/* XPM */
static char *ba46e62162774e4a8a0deab3215491071V5diDOWcqZyKgyb[] = {
/* columns rows colors chars-per-pixel */
"60 60 174 2 ",
"   c #030100",
".  c #0A0201",
"X  c #0D0A01",
"o  c #130202",
"O  c #1C0304",
"+  c #140E02",
"@  c #1C0C04",
"#  c #161103",
"$  c #1B1403",
"%  c #230405",
"&  c #290506",
"*  c #260F03",
"=  c #240508",
"-  c #2C0609",
";  c #2D090A",
":  c #320708",
">  c #340B0C",
",  c #3C0B0D",
"<  c #251305",
"1  c #291405",
"2  c #241B04",
"3  c #2A1B06",
"4  c #2A1608",
"5  c #2D1808",
"6  c #3F0F10",
"7  c #2D2205",
"8  c #342405",
"9  c #382705",
"0  c #362906",
"q  c #3B2B06",
"w  c #352708",
"e  c #3D2D09",
"r  c #440E0E",
"t  c #4A0F0E",
"y  c #4B100F",
"u  c #430F10",
"i  c #441112",
"p  c #4D1111",
"a  c #531413",
"s  c #5A1715",
"d  c #5D1916",
"f  c #5B1A18",
"g  c #601A17",
"h  c #631B19",
"j  c #691F1B",
"k  c #422E06",
"l  c #402F09",
"z  c #443207",
"x  c #4B3607",
"c  c #443209",
"v  c #4A3609",
"b  c #473908",
"n  c #4F3908",
"m  c #4E3808",
"M  c #4D3B08",
"N  c #4C3A09",
"B  c #4F3B09",
"V  c #4D3908",
"C  c #4C3909",
"Z  c #503808",
"A  c #513808",
"S  c #503908",
"D  c #513908",
"F  c #503B09",
"G  c #513B09",
"H  c #523A08",
"J  c #533A08",
"K  c #523B09",
"L  c #533B09",
"P  c #543B09",
"I  c #513C09",
"U  c #533E09",
"Y  c #533D0A",
"T  c #533E0A",
"R  c #543C08",
"E  c #553C08",
"W  c #543C09",
"Q  c #553C09",
"!  c #543D09",
"~  c #563D08",
"^  c #563D09",
"/  c #543E09",
"(  c #553F09",
")  c #563E08",
"_  c #573E08",
"`  c #563E09",
"'  c #563F09",
"]  c #573F09",
"[  c #543E0A",
"{  c #533C09",
"}  c #583F09",
"|  c #583F09",
" . c #564009",
".. c #574009",
"X. c #574109",
"o. c #56400A",
"O. c #56410B",
"+. c #57420A",
"@. c #56400A",
"#. c #584009",
"$. c #594009",
"%. c #594109",
"&. c #5A4209",
"*. c #5B4309",
"=. c #5A420A",
"-. c #5C4409",
";. c #5D4409",
":. c #5C4509",
">. c #5D4509",
",. c #5D4609",
"<. c #5E4609",
"1. c #5F4609",
"2. c #5D440A",
"3. c #5C450A",
"4. c #5D450A",
"5. c #5D450B",
"6. c #5E450A",
"7. c #5E460A",
"8. c #5F460A",
"9. c #5F470A",
"0. c #5D4509",
"q. c #5E480A",
"w. c #60470A",
"e. c #61470A",
"r. c #60470A",
"t. c #60480A",
"y. c #61480A",
"u. c #61490A",
"i. c #61480B",
"p. c #62480A",
"a. c #62490A",
"s. c #63490A",
"d. c #62480B",
"f. c #62490B",
"g. c #63490B",
"h. c #604B0A",
"j. c #624A0A",
"k. c #634A0A",
"l. c #634A0B",
"z. c #64490B",
"x. c #644A0B",
"c. c #654A0B",
"v. c #644B0B",
"b. c #654B0B",
"n. c #664B0B",
"m. c #644C0B",
"M. c #654C0B",
"N. c #654D0B",
"B. c #664C0B",
"V. c #674C0B",
"C. c #664D0B",
"Z. c #674D0B",
"A. c #674E0B",
"S. c #664F0B",
"D. c #674F0B",
"F. c #664C0C",
"G. c #674C0C",
"H. c #674D0C",
"J. c #644B0B",
"K. c #684D0B",
"L. c #684E0B",
"P. c #684D0C",
"I. c #694E0C",
"U. c #694F0C",
"Y. c #684E0C",
"T. c #67500B",
"R. c #66500B",
"E. c #68500B",
"W. c #68510B",
"Q. c #69500C",
"!. c #69520C",
"~. c #6A520C",
"^. c #6B530C",
"/. c #69510C",
/* pixels */
"o % = = O = O o + + + + + + + + + + + + + + + @ + + + + + + + + + + + + + + + + + + + + + + + + + + + + + O = O = O = O ",
"= > s p f f 6 @ 4 8 8 8 8 8 7 8 8 8 7 9 8 8 9 8 8 8 8 8 9 9 8 9 8 8 8 8 8 8 8 8 8 9 9 8 8 8 9 8 9 9 8 3 < = p i p > 6 6 ",
"; d h s f j 6 < q x m G P P m m | _ | J G G ` ` _ | ` P J A A P P P v ` R R | A A A _ _ %.` ` G A A G x w > a a d p f i ",
"> h h d f j i 4 l G | 9.e.e.9.e.e.z.z.e.e.e.A.u.s.s.A.9.*.| | e.e.*.9.u.e.u.e.e.e.e.V.z.s.A.u.9.| | *.P l ; d a f i j i ",
"> j h h h j u 4 c G 9.u.e.K.s.s.s.9.u.F.u.s.q. .F.u.s.u.*.%.e.e.F.I.e.F.s.q.u.u.s.I.I.F.s.F.u.u.%.*.l.] c ; a a h h j p ",
"> s s h h j 6 4 v %.F.A.K.u.s.A.I.V.I.F.s.F.z 7 ` I.I.A.s.e.Q.s.s.s.s.Q.K.F.I.A.u.F.s.F.F.I.F.u.F.m.F.O.e > h j h h j i ",
"> d s s f s = 5 N u.s.9.e.u.h.h.s.s.A.F.F.N . 7 c I.Q.Q.Q.W.u.u.u.s.u.u.A.u.A.u.s.A.u.u.F.Q.I.^.F.F.5.I l > j h d h j i ",
"> h a a a f 6 4 v 9.u.K.9.9.q.e c  .z s.z #   2 c  .s.A.A.m N A.%.9.9.` N z z q.u.e.u.F.u.e.` 7 q.8 F.] e ; d s p i i i ",
"> h f a a h i 3 v 5.9.F.M c 2 X X 8 + V # $     # 7 u.M 7 X X +.A.A.7 X X X X $ M c *.I z 7 #   2 $ z  .c & p p s a s i ",
"> j d f a h 6 4 c %.9. .X   # $   X 2 x # $   X 2 $ z #   #   2 9.b . X     X     c q.7     $ X   + M M c & i s f d j i ",
"> j d a a d , 4 v %.9.z X X X e $ $ M u.c 7   # q.A.e 7   q 2 X 0 b X X   2 X X   7 F.$ X   7 $ + 7 9.N e ; i s h h j p ",
"> j a p i p , 4 C 9.A.C   X X X     3 9.b 7   7 A.u.e 0   q   $ e q.$   X 8 $ X   c R.$     #   X   I  .c > s f h j d p ",
"> h a p p a > 3 C 5.Q.N   +   $ X   X ,.I 3   7 %.q.q 7   X $ e m.m.#   X  .$ X   z u.X X   + $     c +.c ; f d a a j i ",
"; p p i y p > 4 v O.u.l.z $ 0 w X   X *.b 8   $ N M 7 $   7  .M *.m.#   X M 7 X   c q.z 2 2 7 $     e  .c > d p p a d i ",
"> s a p p p > 3 c O.F.F.$ X   X     # T.C $ X   X $ q #   7 0 # e m.#     e 7 X X e m.8 X     X     c 5.c > f a a a h 6 ",
"> s a p p a , 4 v 5.F.7 # $ $ X # 7 2 A.z 2 X X # c $ # +   # 2  .m.#     $ #     z q.$ $ $ X . 2 2 M *.c > d a s f j i ",
": s a a a a i 3 C R.s.# 2 V $ $ 7  .u.W.%.C z $ 8 m.8 b q X #  .u.u.#   X q     $ R.M # v 7 $ w b l.f.G e > a a a a j i ",
"> h a p a s 6 4 N l.F.F.8 9.N m 9.q.F.A.F.I.s.9.l.F.F.F.Q.I *.l.u.e.# . X  .c q I.F.s.e ` K.c A.U.F.F.T c > a p a p j i ",
"; a a a h h i 5 v 5.u.I.9.u.F.9.*.9.s.Q.I.I.u.9.9.T.F.F.F.A.F.l.s.s.2 X X  .l.R.I.F.s.u.u.W.I.F.F.F.U.] c > a p p p a 6 ",
"> p a d h j i 4 c q.I.A.e.s.u.A.u.e.9.A.A.F.s.9.9.9.q.9.u.F.F.l.u. .# #   # I A.F.s.s.9.9.9.9.9.F.F.F.T e > a p p u 6 > ",
"6 p p j d j i 5 N q.U.F.u.e.s.F.A.u.9.e.s.s.F.e.9.u.u.s.F.W.Q.s.e.9.c $ X 2  .u.s.F.s.9.9.e.s.F.Q.I.F. .l ; a a a u a > ",
"> p i h s h i 5 v f.F.F.A.K.I.9.e.u.F.u.F.I.%.u.u.F.I.A.F.Q.A.F.I.A.u.z 7 ` F.u.I.s.e.u.s.F.Q.I.I.F.F.O.c ; s p p p a 6 ",
"; s a f a s i 4 N l.F.F.9.-.e.9.A.9.s.I.I.9.u.u.u.9.s.F.I.Q.s.F.9.e.9.R.9.u.I.I.A.9.9.u.u.e.s.s.I.I.F.I e ; p > 6 p s 6 ",
"> f a f a f i 4 c 5.F.F.-.9.%.9.9.9.e.F.s.F.u.s.e.s.F.u.s.I.s.u.%.9.%.9.9.u.u.s.s.F.u.u.u.u.F.u.A.A.F.I e ; p 6 : r d u ",
"> f f a a g 6 4 l *.F.*.u.9.9.9.9.9.F.T.s.Q.F.e.9.9.u.9.*.F.u.e.9.9.*.s.9.u.I.A.A.Q.u.9.9.u.s.%.u.s.9.I e ; p i > p s u ",
"> p a a p s > 4 v 5.l.F.u.e.u.A.A.e.A.F.Q.F.u.s.s.e.s.u.G.s.e.F.u.u.u.W.u.u.A.Q.K.s.e.F.s.u.s.s.s.F.l.I c ; a p u u s u ",
"> i a a a p 6 4 v 5.I.Q.I.I.A.A.T.u.Q.Q.F.%.W.s.A.K.F.A.s.F.I.I.I.A.A.Q.K.A.I.Q.9.e.A.s.F.A.Q.A.F.I.I.5.c ; a a p a j i ",
"> f a a a a 6 3 c 9.u.F.F.Q.s.F.e.u.Q.I.u.9.u.u.u.A.I.A.s.F.9.I.F.Q.s.u.9.s.F.A.9.9.u.F.s.A.F.s.u.s.F. .c & a p p a j i ",
"> d a a p f 6 3 v 5.l.l.u.s.e.u.u.u.s.I.s.u.u.e.9.A.I.A.F.s.s.u.s.F.9.s.e.9.I.s.s.9.u.9.u.I.Q.A.F.u.l.T c & p i a a j u ",
"> d p a a s , 4 v =.F.l.e.` 9.A.Q.s.A.u.u.F.9.9.s.I.F.F.A.u.F.u.9.%.9.I.s.s.F.u.u.u.9.u.A.I.s.F.F.F.l.T e ; a a a a j u ",
"> f p p p s i 3 C 5.F.%.%.%.9.u.l.Q.Q.F.u.s.s.u.F.Q.I.I.Q.F.e.| *.9.9.s.F.K.^.F.u.e.u.F.I.I.I.Q.F.s.5.C e ; a a a a d i ",
": s p p p a , 3 v 9.F.Q.u.e.%.9.l.l.s.A.e.s.I.A.F.I.u.A.A.s.F.A.u.*.*.e.F.u.s.u.e.F.s.F.Q.u.Q.s.K.F.R.+.c ; d s s d h i ",
"> d a a s s u 4 c  .9.u.s.F.9.9.F.F.A.u.s.u.Q.W.I.Q.Q.A.9.9.9.s.K.u.9.F.s.I.F.u.s.A.K.I.Q.I.^.m.9.9.q.` c > j d h h j 6 ",
"> h s p s s 6 < c G %.9.F.u.s.s.e.s.s.F.s.F.Q.A.A.A.A.q.%.%.%.u.s.s.F.u.e.F.s.F.s.A.K.I.A.s.T.*.` %.9.I c > j h h s f u ",
"> j g a u r > 3 c ` 9.u.e.I.u.F.A.9.s.F.F.s.I.F.F.s.A.u.*.9.u.e.s.I.9.s.s.e.G.s.F.A.I.s.s.A.A.9.*.9.l.I c > h f h h s 6 ",
"> j h s a u , 4 v 5.l.F.Q.s.F.s.I.F.I.s.s.F.A.u.K.I.I.s.F.l.s.W.F.s.F.I.I.s.A.F.u.F.u.F.I.F.I.u.F.l.F.5.c ; p a h h h p ",
"> j g d a s u 4 v 9.u.e.9.9.9.9.u.u.u.e.u.Q.e.u.A.s.I.I.I.F.e.9.9.9.e.u.A.9.u.e.F.u.u.F.I.F.F.I.A.s.9.I e ; p a a d d p ",
"> j f s a s r 5 v 9.e.s.u.9.u.s.F.u.s.F.u.e.u.s.s.9.s.A.F.u.s.s.9.9.s.F.F.s.u.s.e.9.F.s.u.e.A.K.s.e.s.` e : g h a h j u ",
"> f s f y d i 3 v %.9.9.A.F.Q.I.K.A.s.u.u.F.e.u.F.s.Q.I.u.e.e.u.A.W.I.I.A.u.u.u.u.F.e.u.l.s.Q.u.s.9.l.O.c > j h h d d u ",
"; a a a p d i 3 c %.9.9.9.u.A.s.K.u.s.A.W.I.A.I.s.F.u.u.u.u.9.9.9.u.s.s.A.9.F.A.K.K.A.F.F.A.u.s.q.q.9.I c > h d a p a u ",
": p p y p a u 3 v 5.i.i.e.e.u.%.e.%.9.m.A.T.A.s.F.u.e.s.F.s.9.e.e.u.e.*.e.%.u.u.A.W.K.I.A.9.u.A.A.u.e.` e > s a a a h i ",
"> a u a p a 6 4 N m.I.I.F.l.9.9.| _ 9.*.e.%.K.A.A.A.F.F.I.Q.I.I.s.e.9.*.` %.9.9.u.%.Q.s.A.A.u.F.I.F.F. .c > j f a a j i ",
"; a p a p a 6 4 c =.F.F.I.u.l.u.u.9.9.%.*.*.q.-.9.%.u.e.u.F.F.I.A.u.u.s.u.9.9.*.9.9.9.%.9.e.u.u.u.F.F.O.c ; j h a p d i ",
"> a i t i p , 4 v ] 5.I.I.Q.F.u.9.m.m.9.9.A.A.9.9.9.F.u.e.9.s.I.Q.A.s.u.e.u.u.*.9.A.u.9.9.e.s.s.9.9.F.5.c > d a a a a u ",
"; a p i i a r 4 v | s.I.I.Q.A.s.u.K.K.A.s.A.s.s.u.e.s.F.s.u.K.F.Q.A.F.u.s.A.I.A.A.F.F.u.u.u.s.G.u.F.F.%.c > s a p a s u ",
"> a a a p d i 3 v 9.A.s.u.s.A.F.u.s.A.A.I.I.F.A.u.A.I.I.A.s.s.F.s.A.I.e.u.s.A.A.F.Q.s.F.F.A.Q.K.u.A.s.` c ; a a a a s 6 ",
": s a a a f p 5 v q.u.u.e.*.9.| | s.u.A.s.F.u.s.F.s.A.A.W.s.s.u.9.9.%.| 9.u.u.A.A.u.u.s.s.A.I.F.W.s.u.` e ; h s d a h i ",
"> s a p u f i 4 c %.u.e.9.| 9.` ` %.%.u.u.q.%.9.%.9.q.9.e.u.e.9.*.9.| ` ` %.9.q.u.*.%.9.*.u.9.e.9.u.u.N e ; p p p a s i ",
"; d t a t g u < l ` ` %.` ` ` ` G A P 9.*.*.` N J _ ;._ *.*.P ` ` P | G A P %.9.;.| J A P 9.%.%.%.` | v q = u t r u a 6 ",
"; s a a a a 6 < q V I G m G V G G x x A ` G A x x A x x G P ` A G G x J A x x G _ J A x x x x G I ` R k w O : 6 , , t 6 ",
"= u u p p a > * 9 k x x z z x x z z z z z z k z z k k z x x z x z z x z z k z z x k k k z k z x b x z e 3 O ; , , , p , ",
"= , : , u p > @ 3 9 9 9 9 q 9 8 9 8 9 9 9 q 8 8 9 9 9 9 q q 9 9 9 q 9 9 9 8 9 9 9 9 9 9 8 9 9 9 q q 9 8 3 % > , : , r : ",
"% : - : , t : O % < 1 1 * * * * * * * * 1 * * * * * 1 1 1 1 1 * * * 1 1 * * * 1 * 1 * * * * * 1 1 1 1 * @ & - : : : r - ",
"O - & = : r & % : t t y t a y t y a y r r t y y y y t y y y y a t a y y a t t t y t y t t a y t r t y r > % & & & & : & ",
"o & = & - : % o & , , r r , , , r , , : , , , , , : : , r r , : r : : : : , , , , , , , : r , , , , > : = O % % % & & O ",
"o % % % % O O o O & & & & & & & & & & & % & % % % & & % & & & & & & & & & & & & & & & & & & & & & & & & O O O O % % % O ",
". O O O o O o o O O O % % % O O % % O O O % % O o O O % O % O % % % % % % % % % % % & % & % O % % % % O o o O O O O O o ",
"o O o O O O o . o o o o O O O O O O O O O O O o O o o O O O O O O O O O O % O O O O O O O % O O O O O O o o O O O o O o ",
". o . o o o . . . o o o o o o o o o o . o o o o o . o o o o o o o o . o o o o o o o o o o o o o o o o o . . o o . . . . ",
". . . . . . .                                           .                                                 . . . . . . . "
};
