/* XPM */
static char *c710c9235114404bcd3f4bdc7cbea9b01kKfiyHzsbgQEtpm[] = {
/* columns rows colors chars-per-pixel */
"60 60 166 2 ",
"   c None",
".  c #AB6606",
"X  c #AD650B",
"o  c #AD690E",
"O  c #B46505",
"+  c #B66904",
"@  c #B96B05",
"#  c #B2650A",
"$  c #B36B0C",
"%  c #B57207",
"&  c #B6720D",
"*  c #B9740E",
"=  c #BC7A0D",
"-  c #AA6516",
";  c #AC6B12",
":  c #AB6D1D",
">  c #B36B11",
",  c #B96D13",
"<  c #B36B18",
"1  c #BC7412",
"2  c #BE7A11",
"3  c #B4741D",
"4  c #AB6E25",
"5  c #B87226",
"6  c #B37821",
"7  c #B47B2F",
"8  c #C17D0E",
"9  c #C17615",
"0  c #C27D12",
"q  c #C87F17",
"w  c #C57E18",
"e  c #BF800E",
"r  c #BE852E",
"t  c #B9803D",
"y  c #C3820D",
"u  c #C7890B",
"i  c #CA8D0B",
"p  c #CD940D",
"a  c #D0930D",
"s  c #C68312",
"d  c #C98614",
"f  c #C58B13",
"g  c #CC8C14",
"h  c #C78119",
"j  c #CB861A",
"k  c #CE8A18",
"l  c #D18E19",
"z  c #CD9413",
"x  c #CE9910",
"c  c #D29416",
"v  c #D59B15",
"b  c #D99D17",
"n  c #D2931C",
"m  c #D69A18",
"M  c #DA9E19",
"N  c #D6A213",
"B  c #DCA317",
"V  c #DFA917",
"C  c #DDA319",
"Z  c #DDA81C",
"A  c #EFBD0E",
"S  c #F3BD0D",
"D  c #E5AD17",
"F  c #E1A61A",
"G  c #E4AB1A",
"H  c #E8AF19",
"J  c #E6B315",
"K  c #EBB314",
"L  c #EEBA12",
"P  c #E3B01B",
"I  c #ECB219",
"U  c #EABD1C",
"Y  c #F1BB12",
"T  c #F1BF1D",
"R  c #C2892E",
"E  c #D49520",
"W  c #D79821",
"Q  c #DA9B23",
"!  c #C78E32",
"~  c #CA9233",
"^  c #D09735",
"/  c #D39B35",
"(  c #DABB2C",
")  c #DAA33A",
"_  c #DFA93C",
"`  c #DFB535",
"'  c #D9BB34",
"]  c #DEB53C",
"[  c #DDB93F",
"{  c #EABB27",
"}  c #E3B72D",
"|  c #E4B92D",
" . c #EDB928",
".. c #E2AD3B",
"X. c #E2B535",
"o. c #E9B635",
"O. c #E0B831",
"+. c #EDBB37",
"@. c #E2B33C",
"#. c #E0B83E",
"$. c #F0BF36",
"%. c #F7C707",
"&. c #FAC507",
"*. c #F7C807",
"=. c #FBCB05",
"-. c #F4C708",
";. c #F7C30C",
":. c #F7C20E",
">. c #F7C70D",
",. c #F5C20B",
"<. c #F9C609",
"1. c #F9C70A",
"2. c #FAC50B",
"3. c #F6C80A",
"4. c #F5C90A",
"5. c #F4CA0F",
"6. c #FDCA09",
"7. c #FACD08",
"8. c #EEC214",
"9. c #EEC018",
"0. c #EDC31C",
"q. c #F1C112",
"w. c #F3C411",
"e. c #F6C112",
"r. c #F9C611",
"t. c #F0C21A",
"y. c #F7C737",
"u. c #F2C137",
"i. c #F9CA36",
"p. c #FECE35",
"a. c #FCCA37",
"s. c #F5C438",
"d. c #F3C73E",
"f. c #AC804A",
"g. c #CF9D55",
"h. c #D39D56",
"j. c #D6A156",
"k. c #D1A55B",
"l. c #D8A55F",
"z. c #DEBF58",
"x. c #E1B340",
"c. c #E4B341",
"v. c #E2B642",
"b. c #E4B541",
"n. c #D5A263",
"m. c #DBAC62",
"M. c #DBAC6C",
"N. c #D5AE7D",
"B. c #E1B270",
"V. c #E2B77B",
"C. c #DFC350",
"Z. c #DDC156",
"A. c #DBC158",
"S. c #DDC159",
"D. c #DFC55C",
"F. c #EEC244",
"G. c #E5C34C",
"H. c #D1AF86",
"J. c #DBBF98",
"K. c #DECB9A",
"L. c #E9C085",
"P. c #E6C089",
"I. c #E5C694",
"U. c #E5C99C",
"Y. c #D8CCB1",
"T. c #E5D0A2",
/* pixels */
"                                                                                                                        ",
"                                                                                                                        ",
"                                                      Z.S.Z.S.                                                          ",
"                                              ] #.] v.[ [ #.b.' b.D.                                                    ",
"                                              ] ] ] x.x.[ ] c.' b.S.                                                    ",
"                                              ` ] ] ] ` ] ] c.' c.S.                                                    ",
"                                              ` X.O.X.X.` X.@.( @.Z.                                                    ",
"                                              } } O.} O.O.X.X.( X.C.                                                    ",
"                                              } | | | | | | o.| } G.                                                    ",
"                                              { {  .{ {  .0.{ { U F.                                                    ",
"                                              0.t.t.t.t.t.8.t.0.w.d.                                                    ",
"                                              %.3.3.3.3.>.3.r.5.%.i.                                                    ",
"                                              7.=.=.=.=.=.7.6.7.=.p.                                                    ",
"                                              =.=.=.=.6.6.=.6.=.=.p.                                                    ",
"                                              &.2.3.2.2.2.%.&.=.&.a.                                                    ",
"                                              ,.;.;.,.,.:.,.,.w.e.i.                                                    ",
"                                              S S S S S S ,.S 8.S y.                                                    ",
"                                              S Y S S Y Y S S L Y s.                                                    ",
"                                              L Y Y Y Y L L L L L $.                                                    ",
"                                              K K K K K I K L J L $.                                                    ",
"                                              K K K K K I K I J K +.                                                    ",
"                                              D H H D H P J H P H +.                                                    ",
"                                              D D D D D H P H G D o.                                                    ",
"                                              G F D G G G V G Z D o.                                                    ",
"                                              B F F F F F V F Z F o.                                                    ",
"                                              C F F C F C C C Z F @.                                                    ",
"                                              B C C M F C B M C C ..                                                    ",
"                                              M M M M M M B Q N M ..                                                    ",
"                                              b m b M m m N Q v M ..                                                    ",
"                                              v m m m v m v W v n ..                                                    ",
"                                              c v v m m m x n x m )                                                     ",
"                                              c c c c c c x E x n )                                                     ",
"                                              z c c c c z z n p n )                                                     ",
"                                              c c g g c l z n a l /                                                     ",
"                                              g g c c g g z g a l /                                                     ",
"                                              d g g g g g g l i k /                                                     ",
"                                              i g g g g g f k u k ^                                                     ",
"                                              d d d g g s f k i d /                                                     ",
"                                              s u s s s d f d u d ^                                                     ",
"                                              s d d s g s s j y j ~                                                     ",
"                                              s s s s s y y q y h ~                                                     ",
"                                              0 s 0 8 s 0 y q 8 w ~                                                     ",
"                                              8 2 0 0 0 0 y 0 8 w !                                                     ",
"                                              2 2 = 2 8 0 = 0 = 9 !                                                     ",
"                                              = = = 2 2 2 e 2 = 9 !                                                     ",
"                                              = 2 1 2 2 1 = 1 = 2 !                                                     ",
"                                              * * * * * = * 1 = 1 R                                                     ",
"                                              & * * 1 * 1 & 1 % 1 R                                                     ",
"                                              * 1 & 1 1 & & , % 1 r                                                     ",
"                                              $ & & $ & & & , % , r                                                     ",
"                                            Y.$ 1 $ & $ $ & , % > r                                                     ",
"                                            K.$ $ $ $ $ > $ @ ; $ t                                                     ",
"                                            N.$ $ $ # $ o $ + o $ 7                                                     ",
"                                            n.# $ $ X $ o X + o + 6                                                     ",
"                                            h.X X $ # $ o $ O - O 3                                                     ",
"                                            h.X $ X X X o . O - O 3                                                     ",
"                                            k.X X X X X X . O - # 5                                                     ",
"                                            H.4 : : ; X ; $ > < 4 f.                                                    ",
"                                              L.V.M.n.j.j.k.m.B.P.                                                      ",
"                                                    U.I.I.K.T.                                                          "
};
