/* XPM */
static char *_c7fa6cc511f423f8220f6b2eca7ae0cq6C8qowLVTAw2LGs[] = {
/* columns rows colors chars-per-pixel */
"60 60 236 2 ",
"   c None",
".  c #AD650B",
"X  c #AE690B",
"o  c #AA6507",
"O  c #B36B0C",
"+  c #B56A0D",
"@  c #BA720D",
"#  c #BC7A0C",
"$  c #AE6D14",
"%  c #AE7415",
"&  c #BE7310",
"*  c #BC7B13",
"=  c #B67517",
"-  c #AD7A2D",
";  c #A77226",
":  c #AC762D",
">  c #C37A0C",
",  c #C36F11",
"<  c #C37613",
"1  c #C37B14",
"2  c #CB7B14",
"3  c #CB7E18",
"4  c #CA7820",
"5  c #BE8409",
"6  c #BC8412",
"7  c #B8851B",
"8  c #B98825",
"9  c #B0883C",
"0  c #C8830D",
"q  c #C28314",
"w  c #CB8415",
"e  c #C38916",
"r  c #CC8A14",
"t  c #C48619",
"y  c #CD821B",
"u  c #C58B1B",
"i  c #CA8D1C",
"p  c #D28616",
"a  c #D18C16",
"s  c #D38C1B",
"d  c #D98C1B",
"f  c #D58A18",
"g  c #C6941C",
"h  c #CA931D",
"j  c #CA9B1E",
"k  c #C6981F",
"l  c #D3931D",
"z  c #DB941D",
"x  c #D99A1E",
"c  c #E19D1E",
"v  c #E09718",
"b  c #D9A81E",
"n  c #CB8D22",
"m  c #CC8822",
"M  c #D18824",
"N  c #CD9522",
"B  c #CD9B24",
"V  c #CE9D2B",
"C  c #D29422",
"Z  c #DB9423",
"A  c #D29B25",
"S  c #DD9B23",
"D  c #D4942A",
"F  c #D39D2B",
"G  c #DA9D2B",
"H  c #CC9D34",
"J  c #C99838",
"K  c #D49F32",
"L  c #DE9E31",
"P  c #E29B22",
"I  c #E09F28",
"U  c #CEA225",
"Y  c #CEA229",
"T  c #CAA624",
"R  c #D2A226",
"E  c #DCA224",
"W  c #D4A32C",
"Q  c #DBA32D",
"!  c #D6A92D",
"~  c #DBAB2E",
"^  c #D5A925",
"/  c #CEA436",
"(  c #CEA838",
")  c #D3A433",
"_  c #DBA632",
"`  c #D4AB34",
"'  c #DBAB33",
"]  c #D3A638",
"[  c #D4AB3B",
"{  c #DBAC3C",
"}  c #DFA038",
"|  c #D4B234",
" . c #DCB335",
".. c #D6B03D",
"X. c #DDB33B",
"o. c #DEB93B",
"O. c #D8B937",
"+. c #D2B42F",
"@. c #E1A424",
"#. c #E2A62C",
"$. c #E4AB2D",
"%. c #E9A72B",
"&. c #ECB22E",
"*. c #E3A632",
"=. c #E4AC33",
"-. c #E9AD35",
";. c #E3AD3A",
":. c #EAAF39",
">. c #E3B134",
",. c #EBB336",
"<. c #E3B33B",
"1. c #EBB33B",
"2. c #E2BB3E",
"3. c #EBBD3A",
"4. c #EBBB36",
"5. c #F3BA3D",
"6. c #F2B737",
"7. c #F0AB37",
"8. c #F6C43E",
"9. c #B7904B",
"0. c #C2944F",
"q. c #CDA543",
"w. c #D3AB43",
"e. c #DCAE41",
"r. c #D3AC4D",
"t. c #D5B345",
"y. c #DCB444",
"u. c #DDBA43",
"i. c #DCB44B",
"p. c #DCBA4B",
"a. c #D5BA45",
"s. c #DEBB52",
"d. c #D7B954",
"f. c #CDAC52",
"g. c #E2AD43",
"h. c #E3B443",
"j. c #ECB641",
"k. c #E4BC43",
"l. c #EABB44",
"z. c #E2B54C",
"x. c #E3BB4B",
"c. c #EBBD4C",
"v. c #F1BB45",
"b. c #F1BD49",
"n. c #E4BC53",
"m. c #EABD54",
"M. c #E4BB58",
"N. c #EBBE58",
"B. c #E5B654",
"V. c #C6A162",
"C. c #E8BE67",
"Z. c #E5BE76",
"A. c #E4C246",
"S. c #E6C54A",
"D. c #EAC44B",
"F. c #E7C94E",
"G. c #E8C84F",
"H. c #EBC347",
"J. c #FAC642",
"K. c #F2C64D",
"L. c #FCCD4B",
"P. c #F6C748",
"I. c #E4C255",
"U. c #EBC354",
"Y. c #EACC54",
"T. c #E4C35B",
"R. c #EBC45B",
"E. c #ECCC5A",
"W. c #E7CD56",
"Q. c #F1C354",
"!. c #F2CC55",
"~. c #F1CC5C",
"^. c #F6C855",
"/. c #ECD25D",
"(. c #E9D055",
"). c #F4D25D",
"_. c #FAD55A",
"`. c #FDDB5D",
"'. c #F3D156",
"]. c #ECC462",
"[. c #EDCB63",
"{. c #E8C868",
"}. c #F2CD63",
"|. c #F2CD6B",
" X c #F1C667",
".X c #EDD463",
"XX c #EDDA64",
"oX c #EED46B",
"OX c #EED96A",
"+X c #F2D365",
"@X c #F9D764",
"#X c #F1D964",
"$X c #FDDD64",
"%X c #F3D46B",
"&X c #F3DA6C",
"*X c #F9DB6E",
"=X c #FAD66A",
"-X c #EEC973",
";X c #F1CE77",
":X c #EFDC73",
">X c #F3D574",
",X c #F4DC73",
"<X c #FADC73",
"1X c #F4D47C",
"2X c #F5DB7C",
"3X c #FADC7A",
"4X c #FAD678",
"5X c #FFE265",
"6X c #FEE46C",
"7X c #F2E96F",
"8X c #F4E276",
"9X c #FDE474",
"0X c #F5E37C",
"qX c #FBE37C",
"wX c #FEE87C",
"eX c #FDE871",
"rX c #EFE77F",
"tX c #DDBB80",
"yX c #F5DD82",
"uX c #F4DE8A",
"iX c #F8DB86",
"pX c #F2D58A",
"aX c #EEE385",
"sX c #F7E285",
"dX c #F5E383",
"fX c #F9E282",
"gX c #FAE682",
"hX c #F9E385",
"jX c #FBE583",
"kX c #FEE884",
"lX c #F5E28B",
"zX c #FBE38D",
"xX c #FBE98C",
"cX c #F5E98C",
"vX c #F6E793",
"bX c #FBE395",
/* pixels */
"                                                                                                                        ",
"                                                                                                                        ",
"                                                                                                                        ",
"                                              a.a.o.u.p.s.I.I.I.s.p.h.X.o.a.                                            ",
"                                        O.h.S.E.%XdXzXzXxXxXxXxXxXzXbXlX1X[.m.z.o.                                      ",
"                                    y.p.T.1XiXxXjXcXxXvXvXvXvXvXvXcXcXvXbXbXzXyX[.x.X.i.                                ",
"                                i.u.E.yXbXaXaXaXlXhXzXhXhXfXhXhXdXfXfXuXdXdXdXrXdXdX%XM.t.i.                            ",
"                            y.y.].1XiXyXyXaXuXpXpXpXZ.I.p.p.a.p.p.n.Z.-X1XuXuXuX0XyXyX1X}.<.a.                          ",
"                          | z.[.1X1XyX3X4X+XI.y.` | O.u.k.S.U.S.x.k.O. .+.X.N.|.4X1X:X:X>X;XH. .t.                      ",
"                      r. .k.%XOX>X1X>X[.y...y.p.E.%X<X0XyXyXyXyXyX2X3X%X[.S...X...R.4X>X>X>X%XR.....                    ",
"                    | ..C. X;X1X>X[.t...y.R.*X<X3X2XqXhXfXhXjXhXjXdX0XqX3X<X<X}.u.[ a.M.>X;X[.;X].y.t.                  ",
"                  w.+.S.-X-X|.|.p.( a.R.4X2X2XdXdXsXsXgXkXqXjXjXjXjXjXgXhXdXyXyX4X.Xu.] i.[.;X-X[.U...w.                ",
"                ` { B.].[.}.~...` x.&X1XuX0XsXjXhXjXhXjXoXd.d.d.T.gXdXgXgXjXhXjXuX3X*XY.` ..].|.~.Q.B.g.!               ",
"              r.^ z.C.[.~.E.[ ` E.&X2XyXhX0X0XdXgXgX0X0X{.s.].M.{.qXgXrXdXdXqXrXiXfX2X>X}...[ n.~.[.R.c._ w.            ",
"              ^ y.n.U.R.m.w.e.E.>X2X2X8XeXrX0X8X8X9X&X[.M.B.|.m.s.[.>X8X9X8X8XrX7X0X3X2X1X%Xo.] B. XU.U.z._ q.          ",
"            W ~ z.U.Q.U.{ ] [.>X,X8X8X8X8XrX8X&XI.p.i.z.x.T.{.T.x.z.i.x.E.,X9XrX0X8X8X2X,X>X%Xi.] k.Q.R.M.g.E f.        ",
"          q.} :.n.U.m.{ ] ~.%X&X,X8X8X,X<X8XT.t.s.T.{..XoX>X>XOXoXoX{.T.p.t.%X3X8X8X8X8X,X>X*X}.e.) m.R.N.x.' ]         ",
"          T ;.B.c.Q.e.] R.+X%X>X8X,X8X,X,Xn.a.R.%X4X3X,XoX]. X[.oX0X0X,X{.T.t.}.,X,X,X,X8X,XOX%XE.{ ] m.m.p.g.E q.      ",
"        ( b h.N.c.c.] y.~.&X%X,X:X,XOX,X].y.R.=XqXkXiX%Xn.i.z.i.R.<XkXkX2X.Xx.y.,X&X&X,X8X&X:XOX+XU.] { U.x.B.~ W Z.    ",
"        F  .k.m.c.) ] ~.E.OX&X&XOX&X&X*Xt.x.|.qXkXkX>XR.w.~.}.n.x. XfXkXkX3XT.e.+X*X*X&X&X&X:XOX.X}.e.) c.D.x.g.F q.    ",
"      ) L g.x.U.;.F c.E.%XoXOXOXOXOX&X+Xw.I.,XkXkXkX+XB.a.#XXX(.t.R.qXkXkX3X|.i.I.%X&X&X&XOXOXOX%XE.m.) { m.c.i.Q U     ",
"      H #.g.N.Q.) ] Y.[..XOXOXXX#X#X%X}.{ R.8XkXkXqX%Xz.y.+XXX.Xw.R..X+X%X+X[.i.p.+X#X&X&X#XOXOXoX.XE.h.K m.H.,.=.H     ",
"      V $.h.N.c.F y.R./.+XOX.X.XXXXX+X~.[ R.<XkXkXqX%Xc.[ .XXX/.w.z.p.z.z.z.x.y.p..X+X+X.XXXOX.X.X.XR.m.K { Q.j.;.K J   ",
"    J W =.c.Q.e.Y c.Y./..X.X.X.X.X.X+X~.[ n.*XwXkXwX&Xm.{ I./.E.i.a.u.h.y.y.h.a.W..X.X/..X/..X.X.X+XE.Q.] R ^.c.{ ` U   ",
"    N Q ;.k.Q.K ] D.Y.E././.)..X.X/.).).] z.+XwXwXwX<X~.x.[ a.E.).~.)././.)./././.)././././..X/././.E.U.y.A K.c.g.! j   ",
"    j } h.k.c.F t.c.Y.E././././.(././.E.{ e.~.8XwXwXwX<X[.c.e.] z.Y./././././././././././././.'././.E.R.z.R j.l.<.' N   ",
"    C } g.x.2.G y.S.Y.W.Y.Y.(.'.(././.W.I.) c.[.9XwXeXeX9X=XU.c.{ / p.Q.E.E.E.E.E././.(.(.(.(.(.(.(.E.I.z.K ' l.<.' D   ",
"    l Q 1.j.;.F h.S.Y.W.Y.Y.Y.Y.W.W.Y.W.W.o.] c.}.<XwXwXwXeX&X~.m.h.[ ] c.Y.W.W.Y.W.W.W.(./.!.(./.Y.Y.D.l.W _ P.1._ V l ",
"    C Q ;.v.{ F h.S.G.(.Y.F.Y.F.W.Y.G.Y.G.G.` ] z.U.%X9X9XeXeX9X@X~.S.y.] ` D.Y.Y.Y.Y.Y.Y.Y.Y.(.G.(.U.D.k._ W b.1._ G s ",
"    l Q 1.v._ F <.A.I.F.F.G.F.G.G.G.G.I.G.G.D.<.Y { c.~.=X6X6X9XeX6X@X~.h.[ ) c.G.G.S.G.F.F.F.G.G.F.G.c.h._ F v.h._ N s ",
"    l Q ;.v.} V <.k.S.F.S.S.S.F.G.G.G.S.G.G.D.D.c.) Y ..c.~.@X9X9XeX9X6X+XD.{ F A.S.G.G.S.F.F.S.F.S.H.k.<._ W v.1.=.A a ",
"    h G ;.j.' F  .2.A.A.S.S.S.S.H.S.S.H.S.S.S.S.H.A.o./ Y <.c.).5X9X6X9X5X@Xc.` +.S.H.H.S.S.S.S.S.S.S.k.<.W W c.<._ N s ",
"    i G =.j.;.D ' X.k.H.A.a.A.A.A.A.A.A.A.S.S.A.A.S.A.H.' V ] h.E.*X6XeXeX6X!.y.T u.A.A.A.A.A.A.a.A.A.2.<.W _ b.;._ N s ",
"    i F =.:.:.K ` <.2.k.A.8.A.A.A.A.a.H.A.A.S.k.A.A.A.c.c.<.R Y x.).6X6X6X6X@Xk.) X.k.A.A.A.8.A.8.A.A.<.' A _ l.;.G s m ",
"    r A Q ,.j.K ) ' <.k.2.A.A.A.A.u.A.2.B B B A V B V V ) k.k.Y ` U.5X6X6X6X@XS.W ] k.A.A.A.O.A.k.k.k.;._ F >.h._ S y J ",
"    u a @.-.l.W W ' X.k.2.2.o.o.k.u.o.2.B ` <.X.X.;.;.) U l.2.' V k.$X5X5X5X$XD.W ) k.2.o.2.o.o.2.k.X.' _ G 1.,.E x e   ",
"    8 r c $.3.~ W W  .X.o.2.o.o.o.o.o.<.k X.Y.'.!.!.c._ B 2.2. .B h._.5X5X5X$XH.W Y 2.o.o.2.2.4.2.2. ._ W Q 5.$.E l e   ",
"    9.w v Q ,.&.) W _ ' o.o. .o.O.O.X.<.k  .'.5X5X5XH._ B >. . .N <.'.5X5X5X`.k.A ^ <.o.O.O.o.o.X. .' W G ;.1.#.A u 7   ",
"      t d G $.6.Q F W W  .X. . . . . .<.g Q D.5X5X`.K._ B >. . .N <.'.5X5X5X_.2.h W  .o. . . .>.X.' W F Q ,.-.E l u     ",
"      8 i C @.7.>.Q F ) '  . . . . .>. .B F c._.5X`.H.! k { <.W B X._.5X5X5XD.' g  .>.+. . . . .! Q F W ' &.' G s 5     ",
"      0.1 a G %.,.~ Q V W _ ' +.+.' ~  .R i <.K.`.5XK.;.h N N i Q l.`.$X5X!.h.B j ~  . .| |  .~ Q F R _ <.-.E D q 6     ",
"        6 0 D E -.-._ A B W ! ! ! ~ ~  .~ N N ' H.'._.b.' W A W 1.^.`._.K.h.V n ! ~ ! ~ ~ ~ ! R N A =.=.1.Q l M 5 V.    ",
"        9 * n x #.-.-.*.N C W W ! ! ! ! ! _ g h Q <.D.^.l.k.k.H.K.!.K.3.' F u W ! ! ! ! ! W Q A N _ =.:.*.G d 3 7       ",
"          - > l G *.,.=.#.N j A W W ! R ! R W N e N F W ' { <.<.X.' ) N e h R ! ! ! ! ! E W C h G =.-.-.S C y *         ",
"          V.# w M S %.:.;.*.h h B R R ^ R T R W G N i t u N ;.D t i u N C W R ^ ! R ^ R A N i G -.<.%.G z r * 8         ",
"            9 , r C I *.1.:.*.n h N F A W Y W R U Y U G u N ;.D t W F F W U T R U B V C N i E ,.-.#.b Z M > -           ",
"              - # w z Z %.:.j.;.h e h N A F B B B U U A g i L N u F V B B W B V B B g e t =.1.:.;.L Z s < %             ",
"                % # w d P %.;.3.1.A e t n N N B B B j B 7 6 6 6 6 B j B N V B N h u e h 1.1.,.=.L Z p 1 = 9.            ",
"                  : = w f Z E -.1.5.-.h q e u h h h j N N N N N B N j h h N i t q e $.v.5.6.@.P z p @ % 9               ",
"                    ; @ 2 s Z S %.6.5.J.>.h 6 6 7 t i u i n i i i i u e e 6 6 u ~ J.5.6.%.P C s w , $ 9.                ",
"                      $ @ > w f Z E ~ 4.8.P.v.-.N 1 < > * q q q 6 6 * * i Q v.K.J.3.$.#.Z z M 3 , O                     ",
"                        ; X @ w s s z P @.&.8.J.L.L.3.,.$.Q Q E ~ -.3.P.L.L.8.6.%.P Z l i w , O $                       ",
"                            O O # 2 r f z x P @.-.6.J.L.L.L.L.L.L.L.J.5.6.%.P x z d s 2 & @ O                           ",
"                              O O O # 1 y s d z v c c @.#.@.@.#.@.@.c P z z d d y 2 < @ O X                             ",
"                                  $ X O @ , 1 y 2 p p p d d d d d d p p p 3 2 < @ + X $                                 ",
"                                      o o X O O & < 2 2 2 2 2 2 2 2 < < & , + . o                                       ",
"                                            o o . . . . O $ . O X X . . . .                                             ",
"                                                                                                                        ",
"                                                                                                                        ",
"                                                                                                                        "
};
