/* XPM */
static char *_d4c375cb6cb44e1bde2808610a2fdd7dEABmpbZOrMN2TJR[] = {
/* columns rows colors chars-per-pixel */
"60 60 230 2 ",
"   c None",
".  c #A95F08",
"X  c #AD630B",
"o  c #AA6508",
"O  c #B1660A",
"+  c #B36B0B",
"@  c #B96E0C",
"#  c #B46806",
"$  c #B7720F",
"%  c #BA740D",
"&  c #BD7A0E",
"*  c #B8780A",
"=  c #AA6611",
"-  c #A76817",
";  c #B96D11",
":  c #B56B11",
">  c #B37212",
",  c #BB7510",
"<  c #BD7A11",
"1  c #BC7E19",
"2  c #B2741E",
"3  c #AD7A1B",
"4  c #B67A28",
"5  c #C27B0F",
"6  c #C17D11",
"7  c #CF7F17",
"8  c #BD8312",
"9  c #BD832B",
"0  c #AC8535",
"q  c #C4830B",
"w  c #C9860C",
"e  c #C58212",
"r  c #CA8514",
"t  c #C78A15",
"y  c #CC8B14",
"u  c #C9841A",
"i  c #C7891C",
"p  c #CB8B1C",
"a  c #C3851E",
"s  c #D18C14",
"d  c #D1891D",
"f  c #CD9213",
"g  c #CB911C",
"h  c #C7941C",
"j  c #D19315",
"k  c #D59A14",
"l  c #D99F16",
"z  c #D3961A",
"x  c #D59A1A",
"c  c #D99D1B",
"v  c #DE911E",
"b  c #DCA216",
"n  c #DCA41B",
"m  c #DFA919",
"M  c #EBB90D",
"N  c #F2BD0D",
"B  c #E4AC16",
"V  c #E1A51A",
"C  c #E2AA1A",
"Z  c #ECB415",
"A  c #EDBA12",
"S  c #EAB11A",
"D  c #EDBF1C",
"F  c #E5B31B",
"G  c #F0BA12",
"H  c #F4BD1D",
"J  c #CB8D23",
"K  c #CC8720",
"L  c #CD9524",
"P  c #CE9B26",
"I  c #CE9C2A",
"U  c #C59725",
"Y  c #D19423",
"T  c #D29B24",
"R  c #D99B24",
"E  c #D39C2A",
"W  c #DB9B29",
"Q  c #DB9524",
"!  c #C58A35",
"~  c #CD8E39",
"^  c #C58732",
"/  c #CF9F31",
"(  c #D69532",
")  c #E19E23",
"_  c #CEA32B",
"`  c #CEAB2E",
"'  c #D3A32B",
"]  c #DDA32C",
"[  c #D4A92D",
"{  c #DFA827",
"}  c #DEB92E",
"|  c #DEB72D",
" . c #CDA931",
".. c #D4A433",
"X. c #DCA333",
"o. c #D4A933",
"O. c #DCAC34",
"+. c #D3A43A",
"@. c #D9AC3A",
"#. c #DDB53B",
"$. c #DCBA3C",
"%. c #DDB635",
"&. c #E2A225",
"*. c #E1A52C",
"=. c #E3AB2E",
"-. c #E7AD23",
";. c #EEB322",
":. c #E3BC23",
">. c #ECBC25",
",. c #E3B62D",
"<. c #E2B92A",
"1. c #EABA2A",
"2. c #E2B321",
"3. c #E2A733",
"4. c #E2AB33",
"5. c #E9AD32",
"6. c #E2AE3A",
"7. c #EAAE39",
"8. c #E3B334",
"9. c #E2B43C",
"0. c #ECB53B",
"q. c #E1BA3E",
"w. c #EAB836",
"e. c #F1B737",
"r. c #F9C705",
"t. c #FACB06",
"y. c #F5C20B",
"u. c #F9C50B",
"i. c #FACA09",
"p. c #F5C905",
"a. c #EDC118",
"s. c #F3C611",
"d. c #F2CA17",
"f. c #EAC121",
"g. c #F3CA28",
"h. c #F3C03C",
"j. c #E7CD34",
"k. c #BF8B47",
"l. c #BA9A51",
"z. c #C58D43",
"x. c #C49145",
"c. c #CF974E",
"v. c #CA9447",
"b. c #C69C5A",
"n. c #D69D5B",
"m. c #D4A443",
"M. c #D3AB4B",
"N. c #D7AB48",
"B. c #DCB443",
"V. c #DDB64B",
"C. c #DCBA4C",
"Z. c #DAB841",
"A. c #D3A950",
"S. c #DEBB52",
"D. c #DBBB5B",
"F. c #E3AC41",
"G. c #E3B442",
"H. c #E4BB44",
"J. c #E1B54A",
"K. c #E5BE4A",
"L. c #EAB947",
"P. c #E1BD54",
"I. c #E6BE5A",
"U. c #EABE52",
"Y. c #F4B840",
"T. c #C8A964",
"R. c #D7A869",
"E. c #DBBA69",
"W. c #DEB871",
"Q. c #E5BF74",
"!. c #DEC042",
"~. c #DECA57",
"^. c #E5C345",
"/. c #E9C146",
"(. c #E5C14D",
"). c #EBC44D",
"_. c #E5C84C",
"`. c #EED843",
"'. c #FFD04D",
"]. c #E4C353",
"[. c #EAC554",
"{. c #E6CA53",
"}. c #EBCC56",
"|. c #E3C35A",
" X c #EAC55A",
".X c #E5CA5C",
"XX c #ECCB5A",
"oX c #F3CD55",
"OX c #F5CC5B",
"+X c #ECD15E",
"@X c #FCD55B",
"#X c #FBD55A",
"$X c #D8C166",
"%X c #D7CB71",
"&X c #ECC662",
"*X c #ECCC63",
"=X c #E6C866",
"-X c #F1CF69",
";X c #EED262",
":X c #EDD56A",
">X c #F3D463",
",X c #F3D46B",
"<X c #FCDE6A",
"1X c #F9D966",
"2X c #E2C874",
"3X c #F5CD72",
"4X c #EBD875",
"5X c #F3DA74",
"6X c #FCDD73",
"7X c #F4D97D",
"8X c #F5D572",
"9X c #FDE166",
"0X c #FCE46A",
"qX c #F5E169",
"wX c #FCE273",
"eX c #F6E27B",
"rX c #FCE179",
"tX c #D3BA82",
"yX c #E5BD89",
"uX c #DCC380",
"iX c #E3CF8A",
"pX c #EBC58E",
"aX c #F7DE8A",
"sX c #F8DD81",
"dX c #E7D780",
"fX c #FAE283",
"gX c #FAE28C",
"hX c #F8E498",
"jX c #E3D0AA",
"kX c #FAE4A4",
/* pixels */
"                                                                                                                        ",
"                                                                                                                        ",
"                                                                                                                        ",
"                                          =X$.$.L.G.B.q.q.9.q.$.J.q.Z.2X                                                ",
"                                        iX|.sXaX[.B.#.#.q.9.G.$.J.9.| Z.                                                ",
"                                        $XeXhXkXfX(.#.%.9.q.q.#.G.9.,.| D.                                              ",
"                                      dX4XgXgXgXhX:XB.%.8.8.#.| %.9.9.8.G.iX                                            ",
"                                      =X7XaX*X*XsXfXP.q.,.,.8.,.,.8.8.9.9.].                                            ",
"                                      Q.5X~.B.F.(.7X&X#.,.1.8.8.<.<.} <.:.%.                                            ",
"                                    2X-XXXC.8X7XC.[.3X%.:.1.>.1.1.1.1.1.>.:.                                            ",
"                                    $X,XC.:XfXfX5XC.3Xq.f.>.a.>.H a.D a.a.H                                             ",
"                                    |.&X|.5XfXgXeX&X&X^.f.d.y.s.s.s.s.y.s.s.j.                                          ",
"                                     XP.:X5X*X*X4X5XP.[.f.i.t.p.t.t.t.t.t.t.d.                                          ",
"                                     XG.eX4XB.@.=XrXK. X:.t.t.t.t.t.t.t.i.t.t.                                          ",
"                                  %XU.L.eX4X9.*.{.eX{.I.F p.i.i.i.i.r.i.i.i.r.`.                                        ",
"                                  E.K.}.,XI.J.o.O.>X*XP.=.H y.u.y.y.y.u.s.y.d.g.                                        ",
"                                  D.H.:X|.&X&XB...B.,XC.w.H N y.N N y.N N r.s.g.                                        ",
"                                  S.H.:X=X8X6X X+.o.,XS.w.S N G N N N N N N A >.                                        ",
"                                  C.K.:X8X-X-X1X+._ ;XS.G.S G G G G G G G N A ;.                                        ",
"                                  V.K.=X6XI.|.6X+._ XX|.G.-.A G G Z Z Z Z N Z ;.                                        ",
"                                uXB.[.*X6XJ.S.6Xo.E [..X0.-.Z Z Z Z B Z B M Z ;.                                        ",
"                                  J.{..XrXV.F.1X..T _.;XG.*.B F S S Z S F B Z F                                         ",
"                                  J.XX.XrXV.B.[.o.T (.;XG.*.C S B S B B B F B B                                         ",
"                                  G.XX[.rXK./ /  .E (.;XG.*.C B B C B B m B B C                                         ",
"                                  G.XX|.wX~.I E oXoX+X;XG.*.m V C C V V B B V C                                         ",
"                                  9.XX XqX+X( Y (.OX+X+X9.*.{ V V V V V b b &.m                                         ",
"                                N.6.XX].1XqXX.Y ` XX+X+XG.*.n l b b l b b b ) b                                         ",
"                                  0.[.{.+XwXC.U Y /.+X}.9.X.c c b c c c b b c b                                         ",
"                                M.8.[.{.(.6X+X .L O.}.{.9.*.R c c l c c c l c c                                         ",
"                                  8.[.{.B.>X0XG.p P ).[.6.*.x c c c x c x x c l N.                                      ",
"                                M.8.)._.B._.0XoXg g ^._.6.] z x x x x x k k x k N.                                      ",
"                                M.4.].^.K.#.<X1XL J B.).6.] z z z x z z x j z k M.                                      ",
"                                M.=.(.^./.#.+X9XE p @.K.6.W f z j z z z k f j f m.                                      ",
"                                +.4.!.^.^.G.).0X' p o.^.O.R g j j j j j f f j k                                         ",
"                                +.4.$.9.` [ q.0X..u ' H.4.R f f s j y j f f f f                                         ",
"                                m.4.$.O.` L X.9X] t _ q.O.T y y y y s y y y s f                                         ",
"                                m.6.%.6.).E ] 9XX.r E #.4.z f y y y y y y y y y                                         ",
"                                M.6.O.O.@XW ' 9XW e P #.3.g t r r y y r r y y y                                         ",
"                                M.O.O.O.@X[ E 9XE e E %.3.s r r y r t t r r r r                                         ",
"                                T.&.] O.#X' ' 1XL e I [ 3.r r r r r w r r t w w                                         ",
"                                  &.X.o.oX` [ @Xh q T [ &.r r e e e e e e e q q                                         ",
"                                  W X.[ /.%.9.OX8 & ' _ W r 6 6 e e q e e 6 q q                                         ",
"                                  ( ] _ O.^./.L.8 & _ ' Q 6 6 6 5 5 6 5 6 6 8 1                                         ",
"                                  ~ *.E P 9.L.Y & 8 E ] Y 6 1 6 6 6 6 6 5 < < 4                                         ",
"                                  v.*.P I L Y 8 & g E O.r 6 1 6 & & 6 < & & 1 9                                         ",
"                                  v.=.Q E L K < e E T 4.5 & < , < < , & < , & k.                                        ",
"                                  T.&.] P E a % K T R *.& & , % % , & % , , & b.                                        ",
"                                  tXY =.p L 1 $ u L 3.W % % , % % % % % , % *                                           ",
"                                  jXJ 8.f p J i J f 7.p % , , $ % $ $ $ % % 3                                           ",
"                                    9 &.*.i J L t ' 3.7 @ ; , > % : $ $ @ % 0                                           ",
"                                    ! j Y.Y e 8 p 0.Q & ; : : $ @ > $ $ @ + l.                                          ",
"                                    T.9 4.h.h h e.7.y + : @ @ + + + + + @ @                                             ",
"                                      4 R e.'.'.e.R 6 + : + # + + + + + # >                                             ",
"                                      4 y c 7.e.) d + + O + # O # O O + + 4                                             ",
"                                      n.@ d v ) s 5 O : O + O # O + X X X b.                                            ",
"                                      yX- , 7 7 < + X X O X # . X O = = 4 yX                                            ",
"                                        x.= @ : o X X X X X O # O X X - n.                                              ",
"                                        pXz.= . o . . X X X X o o o - k.                                                ",
"                                            R.c.v.~ ! ! ^ ^ ! z.v.c.R.                                                  ",
"                                                      Q.W.                                                              "
};
