/* XPM */
static char *f74217964b3544368ca8440e5828cfd9uPg0X0TLP3ZzpiP4[] = {
/* columns rows colors chars-per-pixel */
"60 60 243 2 ",
"   c None",
".  c #AC640B",
"X  c #AD680B",
"o  c #AD6307",
"O  c #B1660B",
"+  c #B36B0A",
"@  c #B96C0D",
"#  c #B56B07",
"$  c #B57305",
"%  c #BA740D",
"&  c #BC7B0D",
"*  c #B87709",
"=  c #AB6B13",
"-  c #AE6612",
";  c #B36D11",
":  c #B96E12",
">  c #B06610",
",  c #BC7312",
"<  c #BD7B12",
"1  c #B77518",
"2  c #AC741A",
"3  c #AC792A",
"4  c #B27424",
"5  c #C17B0C",
"6  c #C67705",
"7  c #C37514",
"8  c #C37D12",
"9  c #C87B1A",
"0  c #BC810D",
"q  c #BB8415",
"w  c #B88132",
"e  c #B68A2A",
"r  c #C8870A",
"t  c #C48313",
"y  c #CA8513",
"u  c #C48A15",
"i  c #CB8C14",
"p  c #CB851B",
"a  c #C58B1A",
"s  c #CA8C1B",
"d  c #C58718",
"f  c #D28915",
"g  c #D38C1C",
"h  c #D28419",
"j  c #CC9314",
"k  c #CB931C",
"l  c #CA9719",
"z  c #D39415",
"x  c #D3941A",
"c  c #DA951C",
"v  c #D49B1B",
"b  c #DB9C1C",
"n  c #DA9B15",
"m  c #D1920D",
"M  c #E19C1D",
"N  c #CFA31B",
"B  c #DCA41B",
"V  c #DEAB1D",
"C  c #D8A417",
"Z  c #DCA40F",
"A  c #E8B607",
"S  c #F3BD0C",
"D  c #E4AB16",
"F  c #E1A51D",
"G  c #E7A917",
"H  c #E6B613",
"J  c #E9B416",
"K  c #EEB913",
"L  c #E8B71C",
"P  c #F2BD12",
"I  c #F2B216",
"U  c #E3AA0E",
"Y  c #CE8C22",
"T  c #D68E24",
"R  c #CC9522",
"E  c #CE9B24",
"W  c #CD9D2A",
"Q  c #C89627",
"!  c #D39523",
"~  c #D99521",
"^  c #D29C25",
"/  c #DC9B23",
"(  c #D49D2A",
")  c #DB9E2A",
"_  c #CA9A30",
"`  c #D49E31",
"'  c #E29F26",
"]  c #E29F38",
"[  c #CEA32B",
"{  c #CCA423",
"}  c #D3A224",
"|  c #DCA223",
" . c #D5A32C",
".. c #DBA32C",
"X. c #D5A92E",
"o. c #DBAA2D",
"O. c #DBAD25",
"+. c #DDB526",
"@. c #CEA639",
"#. c #D4A433",
"$. c #DBA531",
"%. c #D5AB34",
"&. c #DBAC33",
"*. c #D3A53B",
"=. c #D5AC3B",
"-. c #DBAC3B",
";. c #DCB335",
":. c #DDB934",
">. c #DDB43C",
",. c #DEBB3C",
"<. c #D5B23A",
"1. c #E3A325",
"2. c #E3A52A",
"3. c #E4AC28",
"4. c #E5BB25",
"5. c #E2B72C",
"6. c #E7B825",
"7. c #E1A633",
"8. c #E3AC34",
"9. c #E9AD35",
"0. c #E3AF3B",
"q. c #EAAF39",
"w. c #E4B234",
"e. c #ECB434",
"r. c #E3B43C",
"t. c #EBB33B",
"y. c #E0BC3D",
"u. c #E9B934",
"i. c #F2B837",
"p. c #F1A92E",
"a. c #FCCB02",
"s. c #F4C20B",
"d. c #FBCA0B",
"f. c #F7C608",
"g. c #EDC517",
"h. c #F2C11B",
"j. c #F5C413",
"k. c #EDCA11",
"l. c #DFC03F",
"z. c #F5C33F",
"x. c #E4C331",
"c. c #B68C53",
"v. c #C69946",
"b. c #C89C57",
"n. c #C08F40",
"m. c #CAA24A",
"M. c #D3AD42",
"N. c #D6AB46",
"B. c #D6B144",
"V. c #DCB443",
"C. c #DDB944",
"Z. c #DCB64B",
"A. c #DCBA4D",
"S. c #D4B94B",
"D. c #C6A759",
"F. c #DEBB51",
"G. c #D8B855",
"H. c #D4AE55",
"J. c #E4AF41",
"K. c #E4B443",
"L. c #EAB443",
"P. c #E3BB43",
"I. c #EABC45",
"U. c #E4B64C",
"Y. c #E3BA4B",
"T. c #EBBC4C",
"R. c #F4BC47",
"E. c #E2BC53",
"W. c #EABD52",
"Q. c #E0B750",
"!. c #F3BE55",
"~. c #C79762",
"^. c #D9BA6A",
"/. c #CDAE74",
"(. c #E2BC65",
"). c #DEC259",
"_. c #DEC04E",
"`. c #E4C246",
"'. c #EBC246",
"]. c #E5C44A",
"[. c #EAC44C",
"{. c #E6C94D",
"}. c #E9C84F",
"|. c #F2C34C",
" X c #FCCC4B",
".X c #F8C546",
"XX c #E6C253",
"oX c #ECC354",
"OX c #EACB54",
"+X c #E6C45A",
"@X c #EBC45B",
"#X c #ECCC5A",
"$X c #E6CD56",
"%X c #F4CD55",
"&X c #F1CD5C",
"*X c #F4C453",
"=X c #ECD15D",
"-X c #E9D157",
";X c #F1D25D",
":X c #F9D659",
">X c #FEE25E",
",X c #DDC778",
"<X c #ECCB64",
"1X c #EECE6C",
"2X c #EAC761",
"3X c #F1CD64",
"4X c #F3CE6B",
"5X c #F0C661",
"6X c #EED363",
"7X c #EED96C",
"8X c #EDD66A",
"9X c #F3D364",
"0X c #FDDE63",
"qX c #F3D46C",
"wX c #F3DA6C",
"eX c #F9DD6C",
"rX c #FAD667",
"tX c #EED474",
"yX c #F4D573",
"uX c #F4DB73",
"iX c #F9DC74",
"pX c #F6DD7A",
"aX c #FADE7C",
"sX c #FFE265",
"dX c #FDE26C",
"fX c #F4E175",
"gX c #FDE474",
"hX c #F5E37C",
"jX c #FCE57C",
"kX c #FDE97B",
"lX c #D5BD95",
"zX c #D9C38A",
"xX c #F4DD82",
"cX c #F6DD89",
"vX c #E4CD91",
"bX c #F5E383",
"nX c #FBE483",
"mX c #FDE984",
"MX c #F4E38B",
"NX c #FAE38A",
"BX c #FBE98D",
"VX c #F7E493",
"CX c #F8E694",
/* pixels */
"                                                                                                                        ",
"                                                                                                                        ",
"                                                        G.      XX                                                      ",
"                                          G.V.Z.Q._.XXF.E.C.,.C.y.r.r.,.C.V.C.Z.G.                                      ",
"                                      Z.E.2XuXhXBXBXBXBXBXnXuX2XA.V.>.>.>.K.J.r.>.Z.G.                                  ",
"                                  G.,.$XfXNXNXVXBXCXCXCXCXCXVXNXaX<XV.>.;.5.5.r.K.r.:.:.^.                              ",
"                              ,XS.`.uXMXMXVXcXMXcXcXMXnXbXNXMXNXxXnXyXE.>.:.:.:.5.:.;.>.:._.                            ",
"                            ,X<.`.iXcXMXMXxXtX@XT.Y.C.C.Y.+XqXaXbXpXpXuXW.M.>.5.4.5.r.V.5.+._.                          ",
"                          ,XB.@XyXxXpXrX#XC.<.>.Y.T.].Y.Y.>.M.A.<XuXpXyXyX+X>.0.t.u.4.5.u.6.4.l.                        ",
"                        tXN.).8XtXyX4XV.B.Y.<XaXpXpXbXbXxXiX<XC.<.C.3XqXtXtXE.&.5.6.4.g.x.x.L L ).                      ",
"                        M.F.1X4X4X@XB.Z.9XiXfXbXbXhXbXbXbXbXhXpX1XZ.N.@XqX4X<XC.+.6.g.j.g.K g.j.x.                      ",
"                      H.M.@X4XyXQ.=.XXyXgXhXhXnXnXbXkXkXnXnXMXxXaXiXE.M.W.qX1X+X&.L j.f.f.j.j.a.d.j.                    ",
"                    zX-.Y.#X3XE.M.OXeXaXhXbXbXfXG.Z.B.B.A.hXMXNXbXpXuXoX=.E.<X1XY.O.K d.a.d.d.a.a.a.g.                  ",
"                    =.0.@X2XoX=.@XuXuXaXhXbXhXfXA.@XB.%.<.gXnXhXbXhXuXuXW.=.@X5X@X-.3.h.a.a.f.d.d.a.a.                  ",
"                  ^.O.T.5X@X=.Y.qXpXhXhXhXhXqX@XY.<X<.#.%.$XfXfXhXhXhXpXqXY.&.5X5XU.o.L f.f.f.s.s.f.f.g.                ",
"                  *.8.W.oXC.B.9XuXpXhXfX8XE.U.E.E.<XE.Z.B.=.=.].eXpXhXhXyX&XM.Q.@XE.-.o.h.f.f.S j.s.S f.:X              ",
"                zX$.t.!.T.*.#XwXuXfXfX#XH.+X5X4XqXyXqX3X#XU.*.[ V.wXfXfXuXqXXX@.W.W.U.o.L j.S S S s.S s.x.              ",
"                D.&.I.@X-.C.3XuXuXfX6XF.4XyXhXyX<X<XyXhXpX4XQ.X.W ].dXfXfX7X6XB.N.*XT.=.| K S S P P L S f.              ",
"                @.w.T.E.*.oX9XwXwXuXF.2XiXnXhX+XZ.B.+XuXmXaX2X$. .%.9XdXuX7X7XoX*.T.T.N. .J K K P K L S A ].            ",
"              ^.$.K.oX-.-.=X7X7X7XwXA.4XmXmXqXZ. .W V.tXmXmX1XK.[ [ -XeX7XuX7X$X-.J.!.K.#.F J J J J J J J g.            ",
"              H.7.W.W. .].<X7X7X7X9XF.uXmXmX6X-.^ ( =.1XnXnXiXU._ [ XXrXwX7X8X;XT.#.!.U.N.b J H J L H I p.H             ",
"              ` 3.G.U.$.#X6X8X8XqX#XF.gXmXkX<X=.( E %.#XqX9X9XL.W W Y.9XwXwX9X9X@X[ T.T.-.v 3.J J D J 3.O.A (.          ",
"            zX` q.E.K.-.$X9X8X6X9X#XF.fXkXkX3X-.E ^ $.K.Q.Z.Q.K.W [ Y.6XqX6X6X9X#X*.K.T.-.^ V D D D G D 3.A G.          ",
"            ^.( t.W.-.K.-X6X=X6X=X#XA.uXkXkXqXZ.( k  .K.K.K.C.V.V.V.OX=X6X6X9X;X#XV.-.!.J.^ | F D D G V G U N.          ",
"            H.) r.W.) T.#X6X=X=X=X&XC.qXjXkXuXoX=.W E >.%X;X=X;X;X;X=X;X;X=X=X;XOXP. .!.t. .b F B V G B Z G $.          ",
"            *.| K.T.) W.OX=X=X=X#X&XB.&XiXkXgX9XY.=.Q Q %.$X=X=X=X=X=X=X=X=X#X;XoXT.W T.r. .! | F B G B Z F |           ",
"            Q 2.K.U.) [.OX=X$X=X=X#XK.U.rXkXkXkXqX!.J.( Q W oX=X=X-X$X=X#X=X#X=XOXT.W T.K. .^ | B B M B Z b B           ",
"            R $.K.K.#.Y.OX$X$XOXOXOX|.N.oXeXgXgXgXrX+XV.` R R C.OX-X-XOXOXOXOX-XOXY.` L.K.$.k / n C n C b C M           ",
"            R $.K.r.#.T.OXOX}.OX$XOXOXK.=.@XrXgXgXkXdX#XY.#.k Q =.OXOX$XOXOXOXOX{.P.#.L.L. .k / b v n N b N n           ",
"            k $.L.0.#.Y.].}.}.}.}.}.{.{.-.-.T.9XgXgXgXdX&XT.#.R k -.}.}.{.{.{.}.[.P.#.0.r.( k v v n n v b N M           ",
"            a $.t.-.#.K.].].{.{.{.[.{.{.[.>.#.Y.=XdXgXdXdX9XY.^ k Q I.].{.{.{.{.].P. .q.r.) k v z n n z z N c           ",
"            k ) t.0.X.r.'.].].].].].].].].[.>.[ K.{.dXgXdXdX&X7.k k &.'.{.`.].].`.r.` q.r. .u x z l z v x j c           ",
"            g ) t.q. .r.P.`.`.].].'.`.`.`.`.T.K.( -.*XdXdXgXeXP.R a } `.`.`.`.].`.w.( t.w.^ a l j z z l x j x           ",
"            Y N 8.J.v >.P.`.`.`.P.'.'.`.`.`.[.'.P.^ r.rXdXdXdX`.E u k I.l.`.`.].Y.>. .t.8.^ i k x k m k j g k           ",
"            Q v 7.L.| &.,.P.P.`.P.y.E ^ ( ^ ^ R R s  .*XdXdXdX}.^ a u ,.`.l.P.P.r.$. .L.7.R i k j i m l m g k           ",
"            v.l 2.L.} ..>.C.P.,.P.r.#.r.-.r.-.! a d E [.sXdXdX}.^ u u ;.,.y.y.P.>.X. .t...k i i i i i r u s a           ",
"            D.j ' K.X...&.>.y.,.r.r.X.}.%X%XP.E u t R '.0XdXdX}.^ p u &.y.y.y.y.&. .o.t.2.a y i i i f m a p Q           ",
"            lXa M 0.;.| o.;.,.;.>.w.X.%XsXsXP.R u t l I.0XsX0X`.Q y u ;.w.y.:.;.&. .e.8.( y d i i y p r p y _           ",
"            vXk n 7.r.|  .&.;.;.>.;. .|.sX0XI.R t r k r.0XsX0XI.k t i >.:.;.:.;. .$.e.2.! t t r r y Y r p y m.          ",
"              e g ] u...^ ..&.;.;.;.} '.:XsX`.R 8 9 g I.:X>X:X;.u 0 s 8.;.;.o. .( $.t.| p t y y t y q 9 r r lX          ",
"              m.d ~ 8.7.) ^ o.&.&.;.E &.%XsXoX .t y ( |.sX:X'.( q 0 ^ &.%.;.o.W  .0.8.! y 5 t t t t q y 6 q             ",
"              zXq x 2.t.$.^  .&.o.;. .E t.%X%Xr.(  .r.%X:X%X&.s t t ..$.X.X.} ^ $.q.) x 8 t t 5 5 t t 5 0 v.            ",
"                w a ) q.8.^ ^  .X.X.X.l E r.[.*XT.I.|.%X|.8.k 0 * k o.X.X. .E ..9.q.) y 5 8 8 8 t 5 < r q               ",
"                D.q T ' e.7.k v  .X.[ X.l k ( $.-.r.0.$.( s < & k o.X.o.} ^ ! 8.q.' T 7 < 8 & 8 < < 9 6 w               ",
"                  4 p b 7.t...k E  .[ [ X.R k a ^ $.s d < q d E  . . .E ^ ! 7.q.2.~ p 7 & 8 % < 8 < 9 & v.              ",
"                  _ 5 T ) 9.q.^ k ! ^ } [ [ [ R R $.8 , < E N { } } ^ ^ Y ) 8.9./ g < , 1 & * < 1 , 6 3                 ",
"                    4 y c 2.9.t.R a R E E W E Q k W < 1 < [ { ( ^ E R d ) L.8.| x 8 % , , % , , % & < ~.                ",
"                    ~., f c 2.e.t.k u k R E E Q 0 q & * & E l E Q k d E L.t.2.! p % % % * , < % * $ 3                   ",
"                      3 8 p / 2.i.R.! q a s k R R R R R R R k s p d ) R.e.2.~ Y < : % , $ : : $ % 2 /.                  ",
"                      lX1 < g c 2.t..X7.u t y a a a a s s d d t q q.R.q.2.c h 8 $ : ; % $ : + $ 1 c.                    ",
"                        b.; 8 y c 2.e..X.X7.p 8 t t t t 8 & Y 5..X.X9.' n y 5 # : + ; % @ : @ $ 3                       ",
"                          c.4 < h g M 2.i. X%Xi.w.o...o.w.z. X.Xi.1.M c h 7 + + + + + + ; # @ 4                         ",
"                            w ; 7 p f c 1.2.i..X X X X X XR.i.2./ ~ p y @ # # + + + + + X + =                           ",
"                              4 - : 9 p g c b ' ' 1.2.1.F M n ~ g p 8 @ # X + X O O O O + =                             ",
"                                3 ; + , 7 9 h f f c c g f h y 9 7 : . X X + X O . O > - 1                               ",
"                                    ; . O @ 7 7 8 8 9 8 9 8 % : O X . . X o o X X = =                                   ",
"                                        = > . O O + O O O . - o o . o . . o o X X                                       ",
"                                                                                                                        ",
"                                                                                                                        ",
"                                                                                                                        "
};
