/* XPM */
static char *_74ece49c9374b89e2f400923606eeecjrYCk5Jp37NFVnw5[] = {
/* columns rows colors chars-per-pixel */
"60 60 242 2 ",
"   c None",
".  c #AD6206",
"X  c #AD640B",
"o  c #AD690C",
"O  c #B1660B",
"+  c #B36B0B",
"@  c #B86C07",
"#  c #B5720C",
"$  c #BB740D",
"%  c #BC7A0D",
"&  c #B87506",
"*  c #AB6913",
"=  c #B36D12",
"-  c #BA6E12",
";  c #B26E18",
":  c #AD7417",
">  c #B67212",
",  c #BB7411",
"<  c #BE7A11",
"1  c #B67419",
"2  c #AE700E",
"3  c #AC7526",
"4  c #AC772E",
"5  c #C1730E",
"6  c #C17C0E",
"7  c #C17512",
"8  c #C27C12",
"9  c #C97F16",
"0  c #C57817",
"q  c #C16F10",
"w  c #BF850F",
"e  c #BE8412",
"r  c #B5831D",
"t  c #AD822A",
"y  c #B9852A",
"u  c #B98834",
"i  c #BB9135",
"p  c #C3840E",
"a  c #CA8B0D",
"s  c #D4910C",
"d  c #C48313",
"f  c #C98514",
"g  c #C48A16",
"h  c #CB8B14",
"j  c #CB821A",
"k  c #C58B1A",
"l  c #CB8C1B",
"z  c #C6821D",
"x  c #D38C14",
"c  c #D28B1C",
"v  c #D38618",
"b  c #CC9416",
"n  c #C5931B",
"m  c #CA921C",
"M  c #CD991C",
"N  c #D19316",
"B  c #D69A17",
"V  c #D3951A",
"C  c #DB941C",
"Z  c #D49C19",
"A  c #DA9D1A",
"S  c #DA9C17",
"D  c #DCA21A",
"F  c #D7A41C",
"G  c #EAB90C",
"H  c #F2BD0D",
"J  c #E5A414",
"K  c #E4AC17",
"L  c #E1A619",
"P  c #E2AB1A",
"I  c #EAAC19",
"U  c #EBB415",
"Y  c #E9B018",
"T  c #EBBC1C",
"R  c #E7B917",
"E  c #F0BA12",
"W  c #F3BF19",
"Q  c #E2A30D",
"!  c #CA8C22",
"~  c #D68F24",
"^  c #C59422",
"/  c #CC9422",
"(  c #CE9C24",
")  c #CE9C29",
"_  c #D29424",
"`  c #DA9522",
"'  c #D39C25",
"]  c #DB9A24",
"[  c #D39C2A",
"{  c #DC9D2A",
"}  c #C69939",
"|  c #CB9038",
" . c #E29F29",
".. c #CFA22C",
"X. c #CEA427",
"o. c #D4A225",
"O. c #D5A32B",
"+. c #DBA42C",
"@. c #D4A92E",
"#. c #DCA82D",
"$. c #DBA925",
"%. c #DDB827",
"&. c #CFA936",
"*. c #D4A532",
"=. c #DAA433",
"-. c #D4AA34",
";. c #DBAC33",
":. c #D5AC3C",
">. c #DBAD3C",
",. c #D7A339",
"<. c #DCB335",
"1. c #D5B33D",
"2. c #DDB33C",
"3. c #DDB93C",
"4. c #D6B735",
"5. c #E2A127",
"6. c #E4A42C",
"7. c #E9AB2E",
"8. c #E3AB28",
"9. c #E4B42C",
"0. c #E4B92B",
"q. c #E7B926",
"w. c #E3A432",
"e. c #E4AC35",
"r. c #EAAD34",
"t. c #E5AC3D",
"y. c #E9AE3B",
"u. c #E2B335",
"i. c #EBB234",
"p. c #E2B53C",
"a. c #ECB33B",
"s. c #E2BB3D",
"d. c #E2B935",
"f. c #F2B93C",
"g. c #F2B536",
"h. c #F3CF02",
"j. c #FBCA04",
"k. c #F5C20C",
"l. c #FAC50C",
"z. c #F6CB0C",
"x. c #FBCB0A",
"c. c #FCC706",
"v. c #ECC21A",
"b. c #EFC314",
"n. c #F3C412",
"m. c #F5C517",
"M. c #E6C12B",
"N. c #ECCA38",
"B. c #B98C48",
"V. c #C5984A",
"C. c #C09C54",
"Z. c #CBAA47",
"A. c #D5AE42",
"S. c #D5B243",
"D. c #DDB443",
"F. c #DDB943",
"G. c #DBB64A",
"H. c #DCBA4C",
"J. c #D4B84A",
"K. c #DDBD53",
"L. c #D7B658",
"P. c #C8A754",
"I. c #E2AF46",
"U. c #E3B443",
"Y. c #E9B444",
"T. c #E3BB43",
"R. c #EABB44",
"E. c #E3BB4B",
"W. c #EBBC4B",
"Q. c #E7B64A",
"!. c #F6BD43",
"~. c #E4BE53",
"^. c #ECBD54",
"/. c #EBB757",
"(. c #F3BF52",
"). c #D5B763",
"_. c #D3B177",
"`. c #DFC243",
"'. c #DDC255",
"]. c #E4C345",
"[. c #E6C44B",
"{. c #EAC34C",
"}. c #E6C94D",
"|. c #E9C649",
" X c #FECC4B",
".X c #F7C648",
"XX c #E5C254",
"oX c #EAC452",
"OX c #E6CA51",
"+X c #ECCB55",
"@X c #E4C359",
"#X c #EAC55A",
"$X c #E7C95D",
"%X c #EDCD5B",
"&X c #F4CC52",
"*X c #F2CC5B",
"=X c #F1C357",
"-X c #ECD15C",
";X c #F3D35B",
":X c #F9D55A",
">X c #FCD659",
",X c #F7D04F",
"<X c #D9C670",
"1X c #ECCB63",
"2X c #ECCD6A",
"3X c #E8C863",
"4X c #F1CC68",
"5X c #EDD463",
"6X c #EED36C",
"7X c #EFD869",
"8X c #F3D264",
"9X c #FDDD62",
"0X c #F4D56B",
"qX c #F4DA6C",
"wX c #FADA6B",
"eX c #F8D767",
"rX c #EAD577",
"tX c #F4D573",
"yX c #F4DB75",
"uX c #FADD73",
"iX c #F4DD7B",
"pX c #F9DC7B",
"aX c #F8D576",
"sX c #F1CB71",
"dX c #FEE265",
"fX c #FDE36A",
"gX c #FEE474",
"hX c #F5E27C",
"jX c #FBE37C",
"kX c #FBE578",
"lX c #DEBB8B",
"zX c #D8C195",
"xX c #F8DA86",
"cX c #EED38F",
"vX c #EFE483",
"bX c #F4E384",
"nX c #FCE483",
"mX c #F5E58B",
"MX c #FDE787",
"NX c #F8E992",
"BX c #FAE392",
"VX c #F1D5AC",
/* pixels */
"                                                                                                                        ",
"                                                                                                                        ",
"                                                                                                                        ",
"                                        H.p.d.d.U.F.3.U.Y.Y.p.d.p.F.F.G.G.G.H.                                          ",
"                                    H.F.4.3.p.U.F.U.3.p.d.U.F.G.@X6XiXpXjXyX6X).J.<X                                    ",
"                                H.0.%.u.d.2.2.2.2.2.F.2.3.S.3XMXNXNXNXNXNXNXNXmXyX`.4.<X                                ",
"                              4.0.9.p.I.D.D.2.3.<.d.2.3.H.uXnXBXBXxXmXmXmXmXmXmXxXxX%X3.<X                              ",
"                            3.%.%.u.p.p.p.3.u.u.u.u.2.H.tXxXxXpXjXyX6X3X2XtXpXjXxXBXxX1X4.cX                            ",
"                          3.0.0.0.3.9.q.0.%.0.d.a.<.U.tXxXxXxX@XF.1.<.2.A.A.S.^.rXiXpXaX1XZ.                            ",
"                        3.T v.0.0.0.T 0.0.q.T q.<.S.2XtXtX2XS.D.W.6XaXpXpX0X#XQ.-.[.sXaXyX'.L.                          ",
"                      3XM.b.b.M.M.T v.T q.v.T %.<.XX6XtX1XS.G.0XyXbXbXbXMXxXhXyX$X2.K.0X0X2XL.L.                        ",
"                      M.n.l.k.v.b.k.n.n.k.l.v.%.U.6X2X#XA.XXuXpXmXbXbXmXmXmXvXbXxX8XS.S.sXsX#X1.                        ",
"                    N.j.j.j.x.z.z.j.x.x.j.z.q.-.^.4X#X1.oXwXpXbXbX%X@X$X$X3XkXnXnXyX;XF.L.sX=XT.Z.                      ",
"                    m.j.j.j.h.h.j.j.x.j.j.m.%.D.3X*XF.H.wXiXhXnXjX2.-.:.E.H.qXjXbXhXyX6XA.#X*X^.>.                      ",
"                  N.j.x.c.c.h.h.c.l.j.h.l.q.=.^.#XQ.:.0XiXvXbXkXwXD.&.:.[.XX6XbXhXhXxXiX#X&.4X3XY.).                    ",
"                  W l.l.x.l.k.k.l.l.l.l.m.#.I.^.{.;.$XyXxXkXeXT.*.=.>.G.~.@XS.H.-XkXkXiXtXA.Q.=X/.-.rX                  ",
"                |.m.H l.H k.k.H k.k.H n.v.o.W.^.Q.2.0XiXbXeX-.@.*.U.XX#X4X2X1X~.H.6XhXhXyX3X:.oX/.1.L.                  ",
"                M.H H E H H H H H H H W D +.^.(.:.#X7XiXyXS.O.O.D.3XtXuXtXtXpXtX$XJ.uXyXyX0XD.D.^.3.P.                  ",
"                v.G E E E E E E E E G T $.e.oXU.A.8XqXyX3XO.O.=.#XhXnX8XK.K.6XnXkX@X3XhXyX0X^.:.oXQ.A.                  ",
"              +XG G U U E U U U U E G 8.+.U.{.*.^.8XqXqXF.O.[ D.tXMXpXE.*.&.$XnXjX6X'.7XqX0X4XA.R.W.2.                  ",
"              <.G U Y U U U U U U U G $.*.U.W.&.#X8XqX9X1.' ' ~.pXMXqXD.' ..E.uXnXwXK.7X7XyX8XH.:.W.2.Z.                ",
"              8.U K Y Y Y K Y Y Y Y U X.*.Q.R.:.5X7X7X;X@.' [ XXkXnX0XU.( ) E.wXuX0XH.7X7X7X5X'.,.[.u.}                 ",
"              8.Y K K K K K Y K K K K F ;.W.e.D.1X7X7X-X*.] [ XXjXnXeXA.) ) 3.XX^.@XH.5X7X5X5X+X,.E.u.*.VX              ",
"              P P K K K K K K L K K D F >.=X[ W.%X6X5X-X.._ [ ~.gXnXwXD...&.&.:.:.&.S.-X-X5X5X%X,.E.p.=.zX              ",
"              L J P 8.L L K K J K K D ( t.(.*.W.-X5X-X;X@.' ' E.gXjXgXE.>.*X*X*X%X-X-X-X5X-X*X*X>.G.R.w._.              ",
"              J J D D L L D D J D D D ( D.^.*.{.%X-X-X;X@.^ _ 2.eXkXgX8XG.:.*X*X;X-X-X-X-X-X-X+XU.S.R.w.P.              ",
"              Q J A D D D D D D D D F ' I.Q.=.{.-X-X+X+XF./ / ,.+XkXkXuX*XD.&.+X%X-X-X-X-X-X%X+XT.A.R.6.C.              ",
"              D D D D D D A D D D D A ' t.I.>.[.+X+X+X*X{.^ ^ ) R.wXkXkXuX#XF.t.oX-X+X$X+X+X*X+XU.-.W.+.}               ",
"              ] F S S S S S S S S Z M o.t.U.>.[.+X+X+X+X+X-.^ / *.XXwXkXgXgX*XU.:.oX%X+X+X+X$XOXT.*.W.#.}               ",
"              ' Z S B B Z Z Z B S S b ' a.t.>.E.OXOX}.}.}.{.) / / -.[.eXgXgXwX-XU.-.oXOXOX+XOXOXp.*.Y.e.i               ",
"              ' Z N B B B B B B B B b ' a.Y.>.[.OX|.}.}.}.{.U.^ m / :.[.eXgXgXfX*Xp.U.{.[.OXOX[.p.*.Y.+.i               ",
"              V Z N C V B V V B N B b ' t.t.-.R.}.|.[.[.}.{.{.u.^ h / ,.Q.eXgXgXfX{.1.|.[.}.[.|.p.*.Y.+.i               ",
"              _ Z b N N N N N N N N b _ r.t.;.Q.[.{.].].[.].].|.p.m l / *.~.eXgXfX:X;.F.[.[.{.T.>.=.Y.+.y               ",
"              s x b V N N N N N N N m M e.a.O.p.T.].].].].].R.].].p.n l / =.&XfXgX9XF.2.].].].R.e.-.a.+.i               ",
"              s x b l b N h h x N h m m w.y.O.u.U.N.N.`.4.=.e.>.-.;./ l l m T.9XfXfXR.>.T.`.T.s.8.:.i.] B.              ",
"              a x h h x h b h h h h h b +.a.[ ;.U.s.3.F.n g f O.-.-.=.[ g k ;.9XfXdXR.>.T.T.T.u.+.=.r.` P.              ",
"              h x h a h h h h h h h h g  .a.o.;.3.p.d.p.n f h ;.|.}.W.[ g g -.>XdXfXR.;.T.3.p.u.{ U.9.~ _.              ",
"              f f g h h h h f a f h f f ` y.+.O.<.3.3.p.m f f >.>X9X.X' d d *.:XdX9XR.;.3.3.<.;.{ u.8.! lX              ",
"              g f f p h f a f h f h g p _ r.;.[ @.<.4.3.n f d *.;XdX.X_ g e O.&XdX9Xp.+.<.3.<.+.=.u.D ! VX              ",
"              y p h f f f d g f d f p d h w.r.[ +.<.<.<./ 9 9 ' &XdX+X_ d e O.;XdX>X-.@.<.<.@.o.+.y.{ r                 ",
"              u p d d d 8 d p f d d w p g { y.+.O.@.;.u._ 9 8 / ].dX&XO.e e ;.:X9X&XX.@.<.;.O.o.u.w.~ u                 ",
"              V.p 9 8 d f 8 8 8 8 d p 6 6 ` y.e.' ( ;.;.O.6 8 g -.&X,X;.n M s.>X>Xp.X.#.;.+.( @.9. .! C.                ",
"                1 8 d 8 6 8 8 p 8 d < p 6 j w.t.+.( O.@.;.g % % m <..X.Xu.p.&X,Xs.o...;.@.[ o.;.9._ y                   ",
"                t d 8 8 < 8 8 6 8 < 8 < 8 d ] r.e.' ( @.@.O.w < d ! ;.Y.R.W.R.>.' n O.O.O.M O.r.8.N 4                   ",
"                  0 8 8 6 < < 8 8 < 0 0 7 8 l +.r.=.m X.X.O._ 8 , < k / *.=.[ / n O.o.@.( ( e.r.[ w V.                  ",
"                  1 8 < < 6 % & , 0 , < < < f ` 6.i.( / [ [ O.' M 0 , < _ [ l _ ' o.o.( n +.r.5.x 4 zX                  ",
"                  B., % 7 $ & % < , $ , $ $ $ c  .i.u.l / ) [ ..X.< $ % _ _ M ' ' ( ( g ' g.6.C f B.                    ",
"                    : $ 5 < , # $ $ $ $ , , $ d ` 8.i.+.l m / ) ) % # # g g ( ) ) / k m a.r.+.x # lX                    ",
"                    B.= $ q 1 1 # & $ # > > @ $ l ] e.f.+.d l / / k g k g g / / n g m r.a.6.c < t                       ",
"                      3 # @ + 1 $ @ # $ = > > # 0 l ] r.!.e.e f l ! ! m _ l l k e m !.a.6.` ! 1                         ",
"                      B.: & 2 : = @ # # = > > + # 8 ~ { r..Xa.l 8 d g g d d d d ] .Xg.6.` j 1 u                         ",
"                        4 2 @ @ = = @ + + - + = + @ 9 l ] 7.!..Xp.o.m m n ' w.W..Xg.w.` v $ 4                           ",
"                          3 @ @ + o + + + + + + + + @ < c `  .g..X X X X X X Xf.7.C ` v 5 o                             ",
"                            ; O + + + + + + O + + + o @ 7 j C ] 5.7.g.g.g.7.5.D C x j 5 O V.                            ",
"                            | * + O + X + + O + + X O O + 5 9 v x C C C C C C x f 5 > o                                 ",
"                                * O + X X X X X o X + X X O + - 0 9 9 j j f 9 5 - o *                                   ",
"                                  3 O O X O X X X X X X * . . . @ + - q - - + O X                                       ",
"                                          * X . X X X X X X X . . . X X X                                               ",
"                                                                                                                        ",
"                                                                                                                        "
};
