/* XPM */
static char *_32e7908f5e94f78ae1f14bc2146b268E3gUffEVUVTAFp1H[] = {
/* columns rows colors chars-per-pixel */
"60 60 226 2 ",
"   c None",
".  c #A5620E",
"X  c #AD630B",
"o  c #AE6106",
"O  c #B1660B",
"+  c #B36B0C",
"@  c #BB6D0E",
"#  c #B36807",
"$  c #B6720D",
"%  c #B9740D",
"&  c #BC7A0D",
"*  c #AA6B1A",
"=  c #B36C13",
"-  c #B86F10",
";  c #AC7619",
":  c #BC7312",
">  c #BD7B11",
",  c #B57615",
"<  c #B47529",
"1  c #B37829",
"2  c #B57D34",
"3  c #C17D0C",
"4  c #C17D12",
"5  c #C47E19",
"6  c #C87911",
"7  c #BD830E",
"8  c #BD8313",
"9  c #BC801A",
"0  c #B58535",
"q  c #BF953D",
"w  c #C6840D",
"e  c #C98B0C",
"r  c #C8800F",
"t  c #CE920B",
"y  c #C48212",
"u  c #C98513",
"i  c #C38A15",
"p  c #CC8B14",
"a  c #C6841B",
"s  c #CF8719",
"d  c #C58B1A",
"f  c #CB8C1B",
"g  c #D48C15",
"h  c #D18E18",
"j  c #D08316",
"k  c #CB9413",
"l  c #CA921D",
"z  c #C0951B",
"x  c #D19316",
"c  c #D49C13",
"v  c #D4941A",
"b  c #D59A1A",
"n  c #D99C1B",
"m  c #DC931A",
"M  c #E49E1C",
"N  c #E89F1B",
"B  c #DEAE0E",
"V  c #DBA415",
"C  c #DDA913",
"Z  c #DCA319",
"A  c #DFA818",
"S  c #E7BC0E",
"D  c #E8B60E",
"F  c #F2BD0D",
"G  c #E3AD17",
"H  c #EBAD1E",
"J  c #E5A719",
"K  c #ECB414",
"L  c #E7B118",
"P  c #EBB31B",
"I  c #EDBF1C",
"U  c #E7B912",
"Y  c #F1BA13",
"T  c #F1B31B",
"R  c #C58C24",
"E  c #D68F21",
"W  c #CC9422",
"Q  c #CC9A24",
"!  c #CA9826",
"~  c #D39524",
"^  c #D49D26",
"/  c #DB9B23",
"(  c #D39C2B",
")  c #DC9D2B",
"_  c #D19628",
"`  c #C58935",
"'  c #C58A3C",
"]  c #C58733",
"[  c #CB9637",
"{  c #D49E37",
"}  c #CDA22A",
"|  c #DBA323",
" . c #D4A32C",
".. c #DAA42D",
"X. c #D5A82E",
"o. c #D7A027",
"O. c #DFBA2D",
"+. c #CFA433",
"@. c #CEAA37",
"#. c #D5A532",
"$. c #DBA532",
"%. c #D4AA33",
"&. c #DDAB33",
"*. c #DBAC3B",
"=. c #D7A93A",
"-. c #DCB436",
";. c #DEB934",
":. c #D5B13C",
">. c #DDB43B",
",. c #DEB93C",
"<. c #E1AD24",
"1. c #E3A62C",
"2. c #E5A525",
"3. c #E3B92C",
"4. c #E9B92A",
"5. c #E9B728",
"6. c #F4BF23",
"7. c #E1A431",
"8. c #E3AB32",
"9. c #E0AD3A",
"0. c #EAAD3A",
"q. c #E9AC36",
"w. c #E1B533",
"e. c #E2B63C",
"r. c #E2B93E",
"t. c #E8B732",
"y. c #F5B838",
"u. c #FBC505",
"i. c #F7CB06",
"p. c #FACB05",
"a. c #F5C30D",
"s. c #F8C50C",
"d. c #FAC909",
"f. c #F7C707",
"g. c #E6C01B",
"h. c #EDC21B",
"j. c #F4C511",
"k. c #F8C412",
"l. c #F2C718",
"z. c #EAC82A",
"x. c #F0D239",
"c. c #CA9142",
"v. c #C89847",
"b. c #D29E48",
"n. c #CB9B5A",
"m. c #C7A14E",
"M. c #D8AF42",
"N. c #D5B342",
"B. c #DBB343",
"V. c #DDBC43",
"C. c #DBB54B",
"Z. c #DDBB4D",
"A. c #D3B34B",
"S. c #C5A35A",
"D. c #DEBE54",
"F. c #D7B95D",
"G. c #E1AA41",
"H. c #E4B443",
"J. c #E2BC45",
"K. c #EABB45",
"L. c #E4B44B",
"P. c #E3BB4A",
"I. c #EABD49",
"U. c #E9B341",
"Y. c #F3B941",
"T. c #E2BC53",
"R. c #E3BF5A",
"E. c #E8BB55",
"W. c #CB9F61",
"Q. c #DBB968",
"!. c #DCBC75",
"~. c #D5B77C",
"^. c #D0A96B",
"/. c #DFC146",
"(. c #D9C247",
"). c #DDC656",
"_. c #E1C145",
"`. c #E6C34B",
"'. c #E9C44D",
"]. c #E5CB4B",
"[. c #F5C449",
"{. c #FFCF47",
"}. c #E4C354",
"|. c #E7CC53",
" X c #EBCA52",
".X c #ECC55B",
"XX c #EBCB5A",
"oX c #E8C559",
"OX c #F1CD5C",
"+X c #F3C757",
"@X c #ECD35B",
"#X c #FCD155",
"$X c #FDD45D",
"%X c #FCD85C",
"&X c #D8C662",
"*X c #E5CD63",
"=X c #ECCA63",
"-X c #EACA6B",
";X c #F1CC6A",
":X c #EBD265",
">X c #EDD26B",
",X c #EEDC6A",
"<X c #F2D165",
"1X c #FDDC65",
"2X c #F5D36B",
"3X c #F6DC69",
"4X c #FCD969",
"5X c #ECD474",
"6X c #F5DB73",
"7X c #FADC73",
"8X c #F6DD7C",
"9X c #FBDD7C",
"0X c #F7D677",
"qX c #E0C676",
"wX c #FFE26C",
"eX c #FEE167",
"rX c #FCE274",
"tX c #FAE27F",
"yX c #FDE47A",
"uX c #F7E777",
"iX c #D0BD89",
"pX c #F9DC87",
"aX c #FEDD9C",
"sX c #F9E281",
"dX c #F8E688",
"fX c #F7E49B",
/* pixels */
"                                                                                                                        ",
"                                                                                                                        ",
"                                                                                                                        ",
"                                          ,.>.e.r.,.,.,.H.H.e.;.H.C.(.                                                  ",
"                                        C.e.>.r.r.,.e.e.e.r.B.).4XpX5X&X                                                ",
"                                      F.>.>.e.>.>.e.e.e.w.;.Z.8XdXfXaX).                                                ",
"                                      e.w.w.w.w.w.>.e.w.w.-.>XdXfXuXaX9X&X                                              ",
"                                    D.O.w.w.w.w.w.w.w.w.>.B.7XpX5X|.9XpX).                                              ",
"                                    ;.O.w.3.3.3.3.3.O.;.>.E.3X*X-.=.(.8X5X                                              ",
"                                  :X4.4.4.4.3.4.4.4.3.I -.-XOXC.5X8XR.R.0XF.                                            ",
"                                  ].g.h.I I h.h.h.h.6.h.>.;XZ.<XtXtX9XC.;XR.                                            ",
"                                  z.a.j.a.j.j.j.a.a.j.h.r.=X).rXsXtXtX>XT..X                                            ",
"                                  l.p.i.i.p.i.d.p.p.p.h.K.}.>X6X:X*X5X6XD.+XqX                                          ",
"                                uXi.p.d.p.p.p.p.p.p.p.4.E.J.9X>X@.N.*XtX).OXQ.                                          ",
"                                ,Xp.d.k.p.d.d.d.d.d.i.8.E.Z.tX-X..*.=XsX;XI.Z.                                          ",
"                                x.p.k.k.u.s.s.s.s.s.k.<.E.oX4XB. .H.R.>X6XL.T.                                          ",
"                                z.u.Y a.a.a.a.F s.F Y <.T.;XP. .=..X;XF.6XH.T.                                          ",
"                                h.F Y F F F F F F F K t.P.2X@.#.).6X0X*X>XP.L.                                          ",
"                                S Y Y F Y Y Y K Y Y P e.D.<X+. .>X-X*X6X:X.XH.qX                                        ",
"                                S T K D P Y K K Y T <.K.T.XX} $.7XR.C.yX*X=XU.Q.                                        ",
"                                S P D D H K K K K K <.P.E.}.} &.7XH.B.rXXX<Xr.^.                                        ",
"                              &XP K H K L G L L G P | P.}.`.^ *.yXC.=.4XXX<XL.A.                                        ",
"                              (.H B 2.K G G G G G G | J. X`.Q *.yXC.=.}.}.<XL.N.                                        ",
"                              V.H B J G G G G G G G | P.oXP.Q #.tXC.#.@.(.<XL.N.                                        ",
"                              >.J B J C A A A A A A / C. X`.Q #.rXoX+XXX@XOXH.N.                                        ",
"                              :.N V M J V Z A A Z A | :.XX`.W #.rX@XP.@X@XOXU.:.                                        ",
"                              %.N V 2.V V Z V J Z Z | B. X`.l ( <X4XN.|.@XOXU.:.                                        ",
"                              ..M V / V n Z n V n Z ^ *. X X! ! XXrX}.T.OX|.,.B.                                        ",
"                              ../ c / n n n n n n n ) *.'. X! W H.rX3XB. X|.H.G.                                        ",
"                              ..n c n c n b b n n n ^ *.`. X#.W ( <XrXP.P.|.>.G.                                        ",
"                              ( v c m b b b b b c b ^ 9.'.'.>.W W '.rXOXJ.`.>.G.                                        ",
"                              ( v c v c b x b x v x / 9.`.`.I.! v %.1X4XP.`.>.G.                                        ",
"                              ^ m k v k x v x x x x / &.K.`.'.&.p l |.wXJ.`.:.G.                                        ",
"                              _ x t v k x x x x x x ~ 8.V._._.H.l d J.eXV.[.8.&.                                        ",
"                              _ x t k k h x g k x h v 8.,.,.#. .l d X.eX_._.&...                                        ",
"                              _ h e h i p p p p p p h &.>.&.i W X.W ( eX_.r.&.$.                                        ",
"                              [ u e s k p p p p p g f 8.-.&.u E [.^ Q 1X_.e.&. .                                        ",
"                              { f e s p p p u p u e p w.&...y ~ %X .Q 1XV.e.$.(                                         ",
"                              b.d e u u u u u u u u u 8.%...w l %X .W %X,.&.&.(                                         ",
"                                w u u a e u u u u u u 8.X.X.8 f $X( W 3X>.&.1.v.                                        ",
"                                e 6 i 5 r w y y y r y 7...X.8 a +X .! $X&.X.2.v.                                        ",
"                                & y 8 a w y 4 y y y 4 ) .. .& y K.>.%.#XX.} 8.m.                                        ",
"                                9 y > 5 3 3 4 3 3 4 3 ^ .. .8 > #.K.K.K.} o.7.                                          ",
"                                9 > > > 3 > 4 4 3 4 3 p &.o.d & i U.K.^ o. .{                                           ",
"                                R : > > 3 4 > > > & 3 y 8.Q ~ 4 > W ) W ^ 1.(                                           ",
"                                [ & > & % > & > > > & & ..^ ( d % y W ( ~ q.R                                           ",
"                                S.& : & % % & % & % % & ) 1._ l % 4 ( ( W 8.R                                           ",
"                                ~., : % & : : % : % % % l q.l d % & R W ( $.[                                           ",
"                                  ; 6 = $ $ $ $ % $ : % u 0.l f f a l i 0._ S.                                          ",
"                                  ; @ , $ $ $ : $ : = $ 4 ) 8.i R W f l 0.d iX                                          ",
"                                  0 @ : $ $ + $ $ + = + % h Y.^ 8 8 8 Y.7.,                                             ",
"                                  ^.= + # @ = + + $ + $ + y 8.y.b 8 x.y.E 0                                             ",
"                                    ; # + + + + + + + + + % m y.{.#X[.N 5                                               ",
"                                    2 + # + + + O + + O + O u / 2.t.2.g ,                                               ",
"                                    n.= O O O O O + + O X # @ 5 M m h 6 2                                               ",
"                                      1 O + O O + O X O O O X 6 5 6 6 = W.                                              ",
"                                      b.X X X X X X X X X O X o - @ # <                                                 ",
"                                        c.* . X o o X X X X X X . . <                                                   ",
"                                          ^.n.v.c.' ] ] ` ' ' c.b.W.                                                    ",
"                                                      Q.!.!.                                                            "
};
