/* XPM */
static char *e0fb886abed740faf6f958b34dc49c030BkJWixdItXaOUlG[] = {
/* columns rows colors chars-per-pixel */
"60 60 102 2 ",
"   c None",
".  c #0E120C",
"X  c #10130E",
"o  c #151210",
"O  c #191513",
"+  c #171916",
"@  c #1A1A16",
"#  c #1B1C19",
"$  c #211E1C",
"%  c #1E221D",
"&  c #24221E",
"*  c #28221F",
"=  c #1A1E22",
"-  c #1C2125",
";  c #1D262D",
":  c #1F2A34",
">  c #242522",
",  c #2B2522",
"<  c #262A24",
"1  c #2E2926",
"2  c #2B2C2A",
"3  c #312A26",
"4  c #342D29",
"5  c #2C312B",
"6  c #36312D",
"7  c #39322E",
"8  c #31382F",
"9  c #202B32",
"0  c #202D38",
"q  c #22313E",
"w  c #323332",
"e  c #3D3532",
"r  c #353B32",
"t  c #3A3C35",
"y  c #3A3B39",
"u  c #403734",
"i  c #413A36",
"p  c #384336",
"a  c #3F423F",
"s  c #40413F",
"d  c #243545",
"f  c #2A3F4E",
"g  c #293F53",
"h  c #2A4156",
"j  c #2C465E",
"k  c #2D4760",
"l  c #2E4B65",
"z  c #2F4E69",
"x  c #304D67",
"c  c #304F6A",
"v  c #2F506C",
"b  c #31516E",
"n  c #325674",
"m  c #335877",
"M  c #345B7C",
"N  c #395F7E",
"B  c #3A607F",
"V  c #444443",
"C  c #4D4D4D",
"Z  c #4A5A47",
"A  c #4F504F",
"S  c #535353",
"D  c #595959",
"F  c #365F81",
"G  c #366285",
"H  c #3C6585",
"J  c #376489",
"K  c #38668A",
"L  c #39698E",
"P  c #3B6D95",
"I  c #3A6E98",
"U  c #3F7096",
"Y  c #3C729C",
"T  c #3D76A3",
"R  c #3E79A6",
"E  c #3E7AA8",
"W  c #406D8E",
"Q  c #426F92",
"!  c #41769D",
"~  c #45789F",
"^  c #4077A1",
"/  c #447AA2",
"(  c #497DA4",
")  c #427EAB",
"_  c #4480AE",
"`  c #4A82AC",
"'  c #4685B3",
"]  c #4A86B3",
"[  c #4C89B6",
"{  c #4D8DBA",
"}  c #528FBA",
"|  c #4F90BE",
" . c #5191BF",
".. c #5394C2",
"X. c #5698C6",
"o. c #589AC7",
"O. c #579AC8",
"+. c #5A9DCB",
"@. c #5EA1CD",
"#. c #61A3CE",
"$. c #65A7D1",
"%. c #67A9D2",
/* pixels */
"                                                      m m k m m m                                                       ",
"                                            j j k M L T T k R R T L F k k k                                             ",
"                                        l J Y Y Y E ) _ ) l ..' ) ) T Y Y T F k                                         ",
"                                    j z J R ) ' ' ' [ {  .l [ { { [ ' ' ' ) R J z                                       ",
"                              j j z F m ' ..` / / / P L ! x n J L Q / / ( ) X.) m ~ c j j                               ",
"                            z m I Y U H ( I P L K K M n m M k m m F K L L P ! ( K } ^ I n c                             ",
"                        k m T R E ] [ ~ m F G G M m m n n m l n n n n M F F F n ~ [ ] ) E T m j                         ",
"                      j J T R ..{ / L K M z b m m n m l x x j l c n n M n n c n J L ~ }  .R T G j                       ",
"                  j l P E _ } U Q F m n b n c c j h g g 9 = - > g g g k x x b n m m J Q I } ) R L l j                   ",
"                  n I E ` ] P F F n n k d d d d > @ @ # $ * , $ O $ $ - d d d d k n m F G I [ ' E I n                   ",
"                j L E [ ` P L m M n g 9 $ * $ $ , , , , , 4 4 , * , 3 * & $ & $ 9 j m m m L P ( [ R L j                 ",
"              j W _ { Y L N M b g = = * 4 4 7 6 , 1 u u u u e u u u 3 , e 7 4 4 $ = = g n m F L ) { ) H j               ",
"            b M z W Q G G n b q > 3 1 6 7 7 6 4 * 1 O o o o o o o $ , $ 4 4 7 7 7 3 3 $ d n m G F L M b m v             ",
"          n I R / n M L M z 9 $ 4 7 , , , * $ o o o o o o o o o o o o o o $ , , , , 7 4 $ 0 l m L M n / E I n           ",
"          M R [ ` L n n b 9 $ 3 6 6 O O o o o o o o o o o o o o o o o o o o o o o @ 7 7 4 $ ; c n n K ` [ R M           ",
"        m Y T [ ! M n k - & 3 7 3 o o o o o o o o o o o o o o o o o o o o o o o o o o 1 4 4 , = l n M / [ ) R M         ",
"        n ! ( ] L F c 0 = 1 e & o o o o o o o o o o o o o o o o o o o o o o o o o o o o , e 1 @ d b M G ( { E m         ",
"  } c k c F ( ] F n x = $ 1 6 o @ o o o o o o o o o o o o o o o o o o o o o o o o o o o o 4 3 $ ; x n G ` ' T n l x }   ",
"  ` ] ! n n ( ( F M l = * 4 , , # O o o o o o o o o o o o o o o o o o o o o o o o o o o 2 , 3 , ; x M G ` [ G m / ` `   ",
"  x Q ) ! l / ( F M l = 6 u O w # $ o o o o o X o o o o o o o o o o o o o o o o o o O O t > i 6 ; x n K ` ) b ! ` I z   ",
"  z Y L L n Q / F n l = 3 4 O = = & # X o o o o o o o o o o o o o o o o o o o o o # % V > r 6 3 ; z n M ( K n L L I z   ",
"  k l n n m F F M n x = 3 u O o @ % # o o o o o o o o o o o o o o o o o o o o o o & % C > r i 1 ; k z b m m M M M M l   ",
"    l L P P L L L L b = 1 6 O o X % # o o o o o o o o o o o o o o o o o o o o o o @ . C > t e 1 ; x m M F J I Y Y J     ",
"    j l l l l l l l k = $ 1 O 2 V . X o o o o o o o o o o o o o o o o o o o o o o o V A > r 2 & ; j l k l l l l l k     ",
"        l n n n l b l = $ 3 O 1 C 2 O o o o o o o o o o o o o o o o o o o o o o + 2 S S @ r 3 $ ; z b z n n M x         ",
"        z G M n l b l = , 3 O V A 2 , $ o o o o o o o o o o o o o o o o o o o o # 2 S S @ r 4 , ; z b z M M K b         ",
"        b L K K n n z = * * o D S 2 * $ o o o o o o o o o o o o o o o o o o o o $ 2 w A + r , , ; z b n J P ` H         ",
"        m Y P ` F F b = 6 u O D S 2 $ $ o o o o o o o o o o o o o o o o o o o o $ 2 2 C # y i 4 ; b M m L U } H         ",
"        m E Y ` W b z = , e O D S 2 > = o o o o o o o o o o o o o o o o o o o o $ 2 w C < 8 e , ; z m M I Y  .G         ",
"        m E E [ W b l = , u O S y 2 , $ o o o o o o o o o o o o o o o o o o o $ > 2 C S 2 6 t , ; z v F E T ) M         ",
"        b I T E F z z = 1 e O S w 2 > $ o o o o o o o o o o o o o o o o o o o = > 2 C D S 5 e , ; z b G T E E m         ",
"        b I Y Y F b l = * 1 o S w 2 > $ o o o o o o o o o o o o o o o o o o o @ > 2 2 s D 5 4 > ; l v G U Y E m         ",
"        b I U Y M b l = 1 e o S w 2 , > o o o o o o o o o o o o o o o o o o o o o , 2 w S 6 e 1 ; z b M Y Y E m         ",
"        b I ) Y n n l = , e O S 2 o - o o o o o o o o o o o o o o o o o o o o o o X X 1 A r 7 2 ; z n m Y R E m         ",
"        b I { ` n M n = 4 4 o S 2 . X o o o o o o o o o o o o o o o o o o o o o o 2 + 1 5 r 6 3 ; b M m Y R R m         ",
"        b I { ` b M c = 4 e + 4 2 # X o o o o o o o o o o o o o o o o o o o o o # e f 7 5 t i 4 ; b M m Y R R M         ",
"        b I [ _ n M c = , e O C w , # o o o o o o o o o o o o o o o o o o o o o & 2 S S 5 t t 3 ; v M m Y E E m         ",
"        b I Y K c b x = 1 7 O D S 2 @ o o o o o o o o o o o o o o o o o o o o o # 2 S p 5 r 7 1 ; z b b J Y E m         ",
"        n T L M b b x = 1 e + s A 2 o o o o o o o o o o o o o o o o o o o o o o o 2 < & 5 t i 3 ; z b b M P E m         ",
"        b L M n c m c = 1 e O 2 C 2 o o o o o o o o o o o o o o o o o o o o o o X 2 X < - t e 3 ; v m v n G L b         ",
"      j x b v v l l c = 4 4 o 6 a 2 % o o o o o o o o o o o o o o o o o o o o o o , w 5 5 r 6 1 : z l k v v b x j j     ",
"      v U P L P F L I ; , 4 o 2 2 + # o o o o o o o o o o o o o o o o o o o o o o 2 C 8 - r 4 1 d Y I P P L P L P z     ",
"      B |  ...| } } ..0 & 1 o < < . $ o o o o o o o o o o o o o o o o X o o o o o < + % & r 3 & f { { .. . . . .} b     ",
"    ` z m B G G M M m = $ , o < < o > o o o o o o o o o o o o o o o o o o o o o o 2 # 2 < 8 1 $ : v v m n M M M b j     ",
"    ..L L J J L L L L ; , 4 + & < X > o o o o o o o o o o o o o o o o o o o o o X + < < % r 7 * q L L L L L L L L (     ",
"E _  . . .| ..........: 1 e + % % # + o o o o o o o o o o o o o o o o o X o o o X + % % % p i 3 f ............} ..} ) R ",
"] Y l K P Y R T Y Y Y ; 3 e O # > % O o o o o o o o o o o o o o o o o o o o o o O o % 5 & t i 3 q L L R R Y Y P Y z Y [ ",
"X.Y z L L I I P L G M - 3 e O 2 > $ @ o o o o o o o o o o o o o o o o o o o o o o o % p # p i 3 : F F P L L L L L l T O.",
"X.Y z G G J G M n b n = $ 1 O 8 & % # X X o o o o o o o o o o o o o o o o o o o o o = r Z r 3 & : b n n M J J G F l T O.",
"O._ M M M M M M M F M - $ 1 o r < # % o o o o o o o o o o o o o o o o o o o o o o @ @ # r 5 3 $ 0 M M M M M M M F M ' O.",
"+.o. . .{ ........} } 9 $ 3 o % + + o o o o o o o o o o o o o o o o o o o o o o o O o + 5 5 2 $ h .. . .| |  . ...} +.+.",
"M ) _ _ ' ) ' E ) ^ U ; $ & o 2 o o o o o o o o o o o o o o o o o o o o o o o o o o o o o < * & q Q Y _ _ _ _ / ! U ^ m ",
"l L T R R R R P L J K - $ # o o + o o o o X o o o o o o o o o o o o o o o o o o o o O o o o $ # 0 K J L I T T R R P J k ",
"l J L I I I L L F m M 0 d d d d d d d d d d d d d d d d d d d d d d d d d d d d d d d d d d d d d M m G L P L P I L J l ",
"l F J m m m m m m n b j c m K G m m m b k n n m F F n n n n n n n m m n m n n x c m m m m m n c k m n n m m m m m F F k ",
"k l l z b b b z b b b c M I E E I P I G c M H I T Y I I I I P I I P I P I P F c m J P I P J F M c l z b b b v v c n b k ",
"l m F L Y T Y Y T T Y Y Y E E R ) ^ R I M P T [ ....{ ..} E ) ..} ..} ..' T P N G L T T T T Y I L G J L L L L L L L J k ",
"l J I ..X.X.X.X.{ ) | O.X.X.X...X...) I J T ) { +.+.+.O.+.X.O.+.+.+.@.+.+.X.' K K ) ..X.o.o.o.X...} ( ) ) ) ) ) T P L k ",
"x I ) @.+.+.+.#.%.@.+.$.+.+.+.+.+.+...I L R ' ........O.+.+.+.+.+.@.%.%.%.$.+./ T { ..} ..+.$.#.@.%.%.%.$.+.+.+.[ ' _ x ",
"F I I / / / / / / / ~ ) / / / / / / ^ P L I I P P P I ^ / / / ^ / / / / / / / Q P I I I I / / / / / / / / / / / / / ~ F "
};
