/* XPM */
static char *_ebe00f1718a4cdfecdaf32847c446cct80T03ZO2mMOWdDI[] = {
/* columns rows colors chars-per-pixel */
"60 60 129 2 ",
"   c None",
".  c #0D110B",
"X  c #10140E",
"o  c #141613",
"O  c #191715",
"+  c #161916",
"@  c #1A1A17",
"#  c #1B1B1A",
"$  c #221E1B",
"%  c #1E221D",
"&  c #22231E",
"*  c #28231F",
"=  c #1A1E22",
"-  c #1B2126",
";  c #1D252C",
":  c #1F2A34",
">  c #222521",
",  c #2B2522",
"<  c #252A24",
"1  c #2E2A26",
"2  c #2A2D29",
"3  c #312A27",
"4  c #332C29",
"5  c #2C322A",
"6  c #2F382E",
"7  c #33332E",
"8  c #38312D",
"9  c #31392F",
"0  c #202B32",
"q  c #212E3A",
"w  c #22313E",
"e  c #353635",
"r  c #3D3532",
"t  c #353C33",
"y  c #3C3D3B",
"u  c #413935",
"i  c #374035",
"p  c #394237",
"a  c #3B4439",
"s  c #3D493B",
"d  c #40413F",
"f  c #414E3E",
"g  c #253645",
"h  c #263847",
"j  c #263A4C",
"k  c #2A3F4E",
"l  c #283D50",
"z  c #2C465E",
"x  c #2D4760",
"c  c #2E4B65",
"v  c #2F4E69",
"b  c #304D67",
"n  c #304F6A",
"m  c #31516E",
"M  c #325674",
"N  c #345877",
"B  c #345B7B",
"V  c #385C79",
"C  c #39607F",
"Z  c #424441",
"A  c #454944",
"S  c #484A47",
"D  c #4B4C4B",
"F  c #504F4E",
"G  c #445342",
"H  c #495A46",
"J  c #4E524D",
"K  c #4C5C49",
"L  c #50584F",
"P  c #535453",
"I  c #575856",
"U  c #5C5C5B",
"Y  c #546652",
"T  c #546851",
"R  c #5D6D5A",
"E  c #646464",
"W  c #676867",
"Q  c #6C6C6C",
"!  c #737373",
"~  c #7B7B7B",
"^  c #7F807F",
"/  c #365E80",
"(  c #366184",
")  c #3B6484",
"_  c #376489",
"`  c #38668A",
"'  c #39688E",
"]  c #3A6C94",
"[  c #3B6F98",
"{  c #3F7096",
"}  c #3C729C",
"|  c #3D76A3",
" . c #3E79A6",
".. c #3E7AA8",
"X. c #406E92",
"o. c #437295",
"O. c #41759D",
"+. c #45789F",
"@. c #4077A2",
"#. c #447AA3",
"$. c #487CA3",
"%. c #427EAB",
"&. c #4480AE",
"*. c #4A83AD",
"=. c #4685B2",
"-. c #4986B3",
";. c #4B89B6",
":. c #4C8CBA",
">. c #518FBB",
",. c #4F90BE",
"<. c #5191BE",
"1. c #5293C0",
"2. c #5798C5",
"3. c #5A9DCB",
"4. c #5EA0CD",
"5. c #62A4CF",
"6. c #64A6D0",
"7. c #858585",
"8. c #8C8C8C",
"9. c #939393",
"0. c #9A9A9A",
"q. c gray64",
"w. c #AAAAAA",
"e. c #B4B4B4",
"r. c #B9B9B9",
"t. c #C4C4C4",
"y. c #CBCBCB",
"u. c gray84",
"i. c #E4E4E4",
/* pixels */
"                                                                                                                        ",
"                                                z x x _ _ c ] ' _ z z z                                                 ",
"                                          v n n v ] ....| c %.......] m n n v                                           ",
"                                      z v ] ........;.:.-.v 2.:.:.=. .......] v z                                       ",
"                                  z z m [ ..-.<.1.<.$.#.>.b #.#.#.&.<.1.<.-...[ m z z                                   ",
"                              x v M ] N ;.1.%.' ' ' ' ` ( v c ) ` ' ' ' ' %.1.-.B <.B v z                               ",
"                          c / (  .%.*.o.] ' ' ] ( ( B M M ( c M M B / ) ' ' ' o.o.1.&. .( / c                           ",
"                      x x _  .%.%.:.#.{ B M B B N M M M M M x M M M M B / B M M { #.>.%... ._ z                         ",
"                    z m |  .%.>.;.' ) ( M m n m M m M x l j j l z m m M M c m N ( ` ' ;.<.%...| v x                     ",
"                  z N |  .;.-.' ' B M M n b b b j q : q # # $ = q q q j x c b m M M V ` ' =.;.#.} M z                   ",
"                  ( | ..1.#.' B V M m l - - - - % $ $ $ * , , * $ $ $ $ ; - ; - j M M B B ] #.<. .| (                   ",
"              z M { &.:.X._ _ M m z w # , 3 3 3 , 4 8 8 8 8 8 8 8 8 4 1 3 3 1 , $ g z m M ) ` ] ;.=.{ m z               ",
"            x z V *.-.` ` B M x q $ , 1 4 4 u u , 4 1 , , , 1 , 1 4 4 * u u 4 4 , * $ q b M B ' ] %.| V z               ",
"            B } N m ( ` B M b = 3 8 , 8 u u 3 @ @ @ 5 2 2 H @ 7 9 1 O O O 4 u u 8 * r 3 = c M B ` ( v B } B             ",
"          M ..&.;.) B ( N h # , 4 4 * O o # 5 a e 5 5 2 s G + 2 5 9 f 9 d 7 & + O * 4 4 , = h B ( N ) ;.%...N           ",
"        M _ | :.%.) M v j > , 8 8 , O @ 2 A U J 9 < + X X % o o X % 9 9 L U S < # o , 8 4 , $ j b M ) *.:...] m         ",
"        N } *.*.] / N x = , 3 r $ @ 2 t D *.! u O O % % % % X % % % X + i ! *.F 8 3 O $ u 4 , = c M B ] -.=...N         ",
"      z m ` *.*._ B c = @ 3 u o $ 6 J 7.~ E u O $ $ % % % 5 X % < % % o X e W ~ 7.f 4 * o r 3 # ; b B ( $.;...M         ",
"  2.$.B n B +.*./ M b = $ , 4 @ 6 a U ! U 7 > % * < < % % 5 X & < < % % @ - 5 U ~ L f * O 3 , $ ; n M ( *.;.] n ( $.2.  ",
"  B +.-.` b +.*._ B b = 4 r # 2 t a F Z # + + # % * < % % 5 + % & % % % @ + + # d K p 5 @ $ r 8 ; b B ` *.=.M ' ;.@.B   ",
"  n ] +.#.m +.*./ M b = 1 r @ 7 e < + o % y 2 + % < < < < 5 + < < < % % + 1 y & X $ 9 i 5 # r , ; n M ( *.o.m +.X.] v   ",
"  x M m m v M N n b x = , r # t t # % o y ~ F > % < < % % 5 X % % < < - > J ^ y X $ 9 i p # 8 3 ; x c n B m v m M M x   ",
"    c ( _ [ ] ] ] ] M = 1 r + y i % # < U ! Z % @ X < > < 6 + < < % X @ # S ! U * % & H p # r 3 ; c M B / _ ] [ ] ]     ",
"    c B B M m m m m x = , 3 @ a H % % - F y < ! G X . . % % X % . . X S Q , d F * % % f p # 3 , ; x m m m M N / B c     ",
"      z c n m m c n x = $ 1 # a K % o o @ @ d 9.8.G 7 X . . o . o 7 D 7.9.S # @ o + % f y # 3 $ : x c c m m m c         ",
"        v B N M b m b = $ 3 @ t t % y ! 5 3 U 7.e.t.q.0.Q y.# P 0.w.e.0.~ F 1 * ! < % K p # , > ; c m n N B ( m         ",
"        n ] ) / n m b = , , @ t 7 % t 8.^ 5 u ! 9.e.y.y.i.i.5 w.u.t.w.7.Q Z k w.0.> % K p @ , , : c m M ( ` +.M         ",
"        M [ ' #.) N n = 4 8 @ a f % & D 9.7.~ 7.8.8.t.y.u.i.2 w.y.r.8.7.7.7.9.q.P O # K p # 4 7 ; m M N ' } <.)         ",
"        N ..[ &.X.B n = 3 r @ a K % % + u 9.9.8.7.7.8.r.t.i.2 8.0.8.7.8.7.9.8.a O % % t e # r 1 ; m B M ' } <.)         ",
"        N ..| ;.' m b = , r @ a Y S % @ $ F ~ 8.9.8.7.7.8.y.< ~ 7.7.8.9.8.7.I % @ - J p 5 , r , ; c m ( | | =.C         ",
"        M }  .%.) n b = , r @ a R ! % + X u o.0.q.0.8.8.9.t.< ^ 7.9.0.q.0.7.y . @ % ! A 5 > r , : c m /  . ...M         ",
"        n ] } } B n b = > 3 @ a T E P . , U ^ 0.0.r.t.t.q.y., 7.w.y.t.e.0.~ I < o E E a 5 # 3 > ; c m ( } | ..N         ",
"        n [ [ [ B M b = 1 8 @ a K a Z . * E U U W E E w.r.y.< 0.t.o.~ Q E I E 2 . D S t 5 # 8 1 : c m / | } ..B         ",
"        M ] #.| M n c = 1 r # a H % z $ F ~ W r & + @ t Q w., Q Z + O * t W ~ F # D > t t # r 1 ; c m B [ | ..M         ",
"        n [ ;.*.M B m = > , O a G @ > < E 7.9.E & . . % P 0.= F $ . . $ Q 0.7.E , 2 + H y # , $ ; m B N } ....M         ",
"        M [ ;.*.M B m = 8 u # e 6 + % < E ~ 9.0.Q P P Q ^ e.> ! Q I U 7.t.w.~ U < < + H p = u 8 ; m / M } ....M         ",
"        M ] ;.%.m / m = 1 r # y G + 5 % e W ! ~ ~ ! ~ Q r.t.2 7.! ! ~ ^ ^ ~ E 7 % 5 + H p # r 3 ; m / M } ....N         ",
"        M ] | ] m M c = 3 8 @ a H + 5 % # a P Q W E Q 9.8.W > ! 9.Q E W W P f % - 5 + s y @ 8 3 ; v m M _ | ..N         ",
"        M } ' B m m c = 1 r @ a H + 5 < # o % G d U ! 0.e I o 1 0.! U d f * O % < 5 + 6 t $ r 1 ; v m m B ] ..M         ",
"        n ] / N v B n = 3 r # 6 t o 5 & < < % X X J Q 9.U U # I 9.Q F X O O * * & & O e t # r 3 ; m N m N ( ] m         ",
"      x c B m m c c c = 1 4 # 2 6 + 5 < < 5 % . < U Q ! ! 9.> W ! ! R < X % 5 5 5 5 + 6 i @ 4 1 : c c c m m N v x       ",
"      v / _ / ( M / ' ; 3 4 + 7 6 X < 5 < 5 < % U I ~ Q ! 0.> W Q Q I Y % 5 5 5 5 < + s i @ 4 1 w ' ' ( ( ( ( ( / c     ",
"      ) 1.1.1.1.1.>.1.0 $ 1 + e f % % % % % < % % o ~ W E 9.- E W E X % % < % % % % + H p # 1 & k <.1.1.<.1.1.<.1.M     ",
"      v / ( ' ( / B / = $ , + 6 s % % 5 5 5 5 5 % X e 8.! 0.% E 8.2 X % < 5 5 5 < < + 6 t @ * $ : m M B B / B ( M x     ",
"    1.` _ ( / _ _ _ ( ; , 4 # e i X % % & - < 5 2 + 7.U Q 0.> E U Q + 2 5 < & % % % o 6 t # 4 , q _ ( _ _ _ ( ' ( O.    ",
"..%.>.>.>.:.1.1.1.1.1.: 1 r @ a f X % % % % % % % % ! < 2 R + > , E % % % % % % % % o t p $ r 3 k :.<.1.1.1.1.:.1.>.%...",
"=.} c ' ] [ ..| | } | ; 1 r # a H + % % 5 < & < & & + o t T + 6 o % - & & < 5 - # % o H y $ r 3 g ] ] |  .| } ] } v } =.",
"2.| c ' ' [ [ ] ' / / = 3 r # a H X < s s 5 % & < % % o t T @ 5 + % & < & < s s > + o H p # r 3 : B / ] ] _ ' ' ' c } 3.",
"2.} c _ _ _ / / M M M = $ 4 # 7 t < z p 5 % % % % < % o i T + 6 o % - % % % 5 p f H & G i # 4 * : M M M / _ / ( / c | 2.",
"2.%.M M M M M M M M M = $ 3 + 7 i H i 5 $ % & * % i 6 5 i T + 6 5 i i % & < % 5 t i i t 5 @ 3 $ : M N M N M B M N N %.3.",
"3.3.1.1.1.1.1.1.1.1.1.0 $ 4 + 2 6 y 5 % X + % @ % o s s p T + t s 6 X + % % % % 5 6 t i 5 @ , $ k 1.1.,.1.1.1.1.1.1.3.3.",
"B #.%.=.=...=...%.| o.; $ $ + 2 2 5 p s i G G f G G 6 6 6 T + 5 6 i G G i s s s s 9 5 5 5 @ $ $ g ] +.%...%.%. .} o.@.M ",
"c _ |  .....| [ ' _ _ - # # O % % % % % % - % - % % - % - i X % % % % % % % % & % % - % - + @ @ g _ ( ' [ | | | ..] _ c ",
"c _ ' [ [ [ ] ' / M B q g g g g g g h g i h h h g g h h h h h h h w z g z w w z g g h h g h j w g B B ( ] ] ' ] ] ] _ x ",
"c / / M m M m M M M M x m B ] ' B N B M c M C M _ ( N B N B N B N C C N M C M c m B B N N B N M x m M m M m m M M / ( x ",
"x m v m N M M M N M M M / [  . .} } } _ v C ' [ | } } } } [ } [ [ [ [ } [ ] ) m N ` } } } ` / / M v m N M N N M N M M x ",
"c N ( ] | } | } | | } | } %. ... . . .[ B ]  .;.,.,.,.1.;...%.:.,.,.,.,.-. .{ C ( '  . .| } } [ _ ( _ ' ' ' ' ] ' ' ` x ",
"c _ } 3.3.3.3.3.>.%.1.3.3.3.3.3.4.2...[ ( ....,.4.4.4.4.4.4.4.4.4.4.4.4.4.4.:._ _ ..2.4.4.4.4.4.3.2.=.=.=.%.%.%...[ ' c ",
"n [ %.3.3.3.3.3.6.3.3.5.3.3.3.3.4.4.,.} ' ..=.:.:.;.;.2.4.4.4.4.4.4.6.6.6.4.4.+.} ;.;.:.:.4.6.4.3.6.6.6.3.3.3.3.:.;.;.c ",
") ] ] | O.O.+.O.+.O.O.+.O.O.O.O.} } } ] ' ] ] ] [ [ [ } } } } } } } +.} O.} } { ] [ ] ] [ +.} +.+.O.O.O.O.O.O.O.@.O.O./ "
};
