/* XPM */
static char *c5ed92b0654a4026a2ca982756113012ITlfSCZ8ADTBpGtG[] = {
/* columns rows colors chars-per-pixel */
"60 60 123 2 ",
"   c None",
".  c #0C100A",
"X  c #10140F",
"o  c #151310",
"O  c #181615",
"+  c #161916",
"@  c #1A1A17",
"#  c #1B1B1A",
"$  c #211E1C",
"%  c #1E221D",
"&  c #23221E",
"*  c #1A1E22",
"=  c #1C2125",
"-  c #1D262D",
";  c #1F2A33",
":  c #222621",
">  c #2A2522",
",  c #252A24",
"<  c #2E2A26",
"1  c #212528",
"2  c #2B2C2A",
"3  c #302A26",
"4  c #342D2A",
"5  c #2B3027",
"6  c #2B312A",
"7  c #34322D",
"8  c #39322E",
"9  c #31382F",
"0  c #202B34",
"q  c #212D38",
"w  c #22313E",
"e  c #343533",
"r  c #3D3532",
"t  c #343C32",
"y  c #393F37",
"u  c #3B3D3B",
"i  c #403835",
"p  c #374035",
"a  c #394237",
"s  c #3C443A",
"d  c #3B4839",
"f  c #40433F",
"g  c #41493F",
"h  c #243545",
"j  c #273A4C",
"k  c #293E4D",
"l  c #293F53",
"z  c #2A4155",
"x  c #2C465E",
"c  c #2C4760",
"v  c #2E4B65",
"b  c #2F4E69",
"n  c #304F6A",
"m  c #2F506C",
"M  c #31516D",
"N  c #325674",
"B  c #335876",
"V  c #345C7C",
"C  c #385E7D",
"Z  c #444543",
"A  c #464945",
"S  c #494B47",
"D  c #4B4C4B",
"F  c #455443",
"G  c #495A47",
"H  c #4C5D49",
"J  c #50534E",
"K  c #535453",
"L  c #575B57",
"P  c #5B5B5B",
"I  c #4E604B",
"U  c #50614D",
"Y  c #596A56",
"T  c #5F625E",
"R  c #5E6F5B",
"E  c #636362",
"W  c #6B6C6B",
"Q  c #727272",
"!  c #777877",
"~  c #7B7B7B",
"^  c #365F80",
"/  c #366185",
"(  c #3B6484",
")  c #37658A",
"_  c #38658A",
"`  c #39698E",
"'  c #3B6D95",
"]  c #3B6F98",
"[  c #3F7197",
"{  c #3C729C",
"}  c #3D76A2",
"|  c #3E79A6",
" . c #3E7AA8",
".. c #416E90",
"X. c #42769D",
"o. c #447AA2",
"O. c #497DA4",
"+. c #427DAA",
"@. c #4480AD",
"#. c #4A82AC",
"$. c #4685B3",
"%. c #4A86B2",
"&. c #4D8AB6",
"*. c #4D8DBA",
"=. c #528DB7",
"-. c #508FBB",
";. c #4F90BE",
":. c #5191BF",
">. c #5394C2",
",. c #5698C6",
"<. c #589AC7",
"1. c #5A9DCB",
"2. c #5EA1CD",
"3. c #61A3CE",
"4. c #65A7D1",
"5. c #67A9D2",
"6. c #848584",
"7. c #8C8D8C",
"8. c #939393",
"9. c #9B9B9B",
"0. c #A5A5A5",
"q. c gray68",
"w. c gray78",
/* pixels */
"                                                      m m c M n b                                                       ",
"                                              c x M N } } v  . .} B N x x                                               ",
"                                        c V ) ' ' }  . .} v *.+. . .} ' ` ' B c                                         ",
"                                      v B |  .@.+.@.&.*.-.n >.*.&.*.+.+.@. .} B v                                       ",
"                                  v M B +.$.*.&.=.-.' ` O.b ^ _ ` X.=.=.&.&.$.+.N C v                                   ",
"                            c v ) ' ` C *.O.[ _ ` ` C V ^ V v V V ^ _ ` _ X.o.&.C -.[ _ v x                             ",
"                        x N ] {  .$.=.X.V ) ) ) V V B N N V v N N N V V _ _ _ V X.:.$.+.[ ] M x                         ",
"                      x N {  .$.$.#.` _ B m N N N N B M M M x M N N N N N N n V _ ` %.%.$. .} N x                       ",
"                    x / } +.*.o.o._ V V N N n n M v v c 0 0 1 0 x v v n n n N N V ^ ` o.o.*.+.} V x                     ",
"                  b )  .+.&.X._ ^ B N n l l l l 0 = = & $ $ & $ = $ = 0 l l l l v N N ^ ^ o.&.+. .) b                   ",
"                x `  .$.=.' _ N B B c 0 $ $ $ $ & > & & > 3 4 > $ > > $ $ # $ # q n N N V ` ..-.@. .` x                 ",
"              x _  .*.O.' ^ V N c 0 1 $ 3 3 4 4 & 3 i i i i i i i i 3 3 8 8 3 3 & * ; c N ^ ^ ` @.&.+.( x               ",
"            v b M X.o./ ( B N j 1 > > 4 4 i 4 i > 3 $ o O $ O $ $ $ 4 $ i 8 4 8 4 > > 1 l M B _ ( [ ` M b v             ",
"          M '  ...M V ` V m j $ 4 r > 3 4 4 $ o o o o o o o o o o o o o o : 4 4 4 > r 4 # l n V ` ^ M '  .) M           ",
"          B  .$.#._ N V N q $ 3 4 r $ o o o o o o o o o o o o o o o o o o o o : $ # 8 4 < # 0 N B N _ &.$. .B           ",
"        N ] } &.O./ N v - : 3 4 8 $ e J E 3 o o o o o o o o o o o o o o X < D W Z $ $ 4 8 3 & 0 b N V O.*. .} N         ",
"        N [ #.#._ V N k # 3 8 3 $ e E ~ K + # % + + o o o o o o o o @ & # o 4 E R J r & 3 8 3 # l N V ) O.&. .B         ",
"  =.x x N _ O.#./ V v * # 3 8 @ 9 g Q W A % % % % % o o o o o o o o @ , , % o z W 6.g & o 8 3 # - b B ^ @.*. .B x x =.  ",
"  =.#.' n N o.#./ N v * > > 3 # a K D : % : 5 % % % + o o o o o X X + & = % + + D W P 9 + < > & - v B ( #.&._ M [ #.-.  ",
"  v ' &.[ v o.#._ V v * 8 i # t y u o + : % % : : % + X o o o o O X # & & % % % @ u A 9 $ $ i 8 - v V _ #.@.M ' *.' b   ",
"  n [ ' [ B X.#.V N b * < 4 + e = # 2 L e # & & & & o o o o o o o o + , & @ o 8 : o # 9 t # 4 < - n N ^ #...N ' ' { n   ",
"  v b N M M N B N M v * 3 r # e % % s 6.L # , = & $ o o o o o o o o @ & & & & E u o % t p # r 3 - c b n N N N N M N v   ",
"    v _ ' { [ [ ' ' M * < 8 # s : , E W K , . # & & o o o o o o o X % % % & & f P % % G a # r 3 - v N V ) ` { } [ '     ",
"    c N m m v v v v v * > 3 + H : & u A u E % . . X o o o o o o X X . . . L 6.3 = + % d a @ 3 & - v v v v v b M m v     ",
"        v N N M v M v * $ 3 # G : + + # Z 9.! K < % o o X o o o o o O 1 f Q 6.i o > # F y # 3 $ - v n n N N N v         ",
"        b V V N v M v * & 3 O 9 % # u # P 0.q.! L L 8 O o o o o o o 2 P ..8.Q f D 7.2 G y # 3 & - b n n B V ( M         ",
"        M ) _ ( N M v * & & $ e % 2 7.D 8 7.9.8.W L P $ o o o o o O 7 W 9.6.! i 7.#.: G a O & & - b M N _ ` O.^         ",
"        B } ` O.( V M * 8 8 O G : 2 6.8.6.7.6.7.W P e O o o o o o + e Q 8.6.8.7.6.8 O F a $ r 8 - n V N _ { -.(         ",
"        B  .] $...N n * $ i @ U : % e #.8.6.Q P P P 3 O o o o o X O r P Q 6.6.8.i @ $ p t # r > - b V ^ ' { -.(         ",
"        B  .} &...M v * > i $ Y L % @ i ~ 8.! P P P 4 o o o o o o O e P Q 6.7.6.i $ & 5 6 2 r > - v b ^ | | $.V         ",
"        N ] |  .V M v $ > i @ R W > o i ~ 9.9.~ P P K $ o o o o o < J W 8.9.9.~ 5 % & p 6 $ r > - b M ^ | | | B         ",
"        n ] ] { C M v $ $ 3 O Y T R > L Q 9.9.9.~ E K $ o o o o o 3 E 6.0.0.8.W & @ R g 2 # 3 1 - v M ^ ] } | B         ",
"        M ] ] ] V M n * 3 8 # H t D 2 E P K K K ! W P $ o o o o o > Q 6.P P L P & X D a 5 # r < - v M ^ { {  .N         ",
"        M ] +.} N N n * > 8 # H : J P ~ Q * o % e J P $ o o o o o > Z $ o $ i ~ E O A g t $ 8 > - b N N {  . .B         ",
"        M ] *.#.N ^ n * > < O A # 9 E ~ 6.e . o > D P * o o o o O > D * o 3 6.0.Q @ , I a # < > - b ^ B ]  . .B         ",
"        b ] *.$.M V M * 4 r # e # t E Q 6.6.W A f K P $ o o o o o > P E Q 8.w.9.E $ , I s # i 4 - N V N {  . .B         ",
"        N ' &.O.N V M * < r # F % , 9 E Q ! E J P P < o o o o o o O e P W ..~ Q t : 5 H a # r 3 - m V N [  . .B         ",
"        n ' } ` M M v * < 4 # H % , % s D W E P D K $ o o o o o o o 3 P E W W J % : 6 F y # 4 3 - v M N ` }  .N         ",
"        N | _ V M M v * 3 r # H % & & % > k D E 2 Z Z # o o o o o 1 D E W E i O # 5 2 t e $ i 3 - b m N ^ '  .B         ",
"        N ` ^ V n B n * 3 r + t % 5 & 3 & O s E K K P $ o o o o o > P E Q Z o $ , = : t y # r < - b N m N / ' M         ",
"      c b V m m v v v * < 3 @ e % , % 6 % % K W E P P $ o o o o o 2 T Q Q s X , 5 5 5 p p @ 3 3 - v v v M M B m v       ",
"      m ` ) ' ) V ) ] - < 3 + 9 % % 6 6 = G P A P P P $ o o o o o 2 T ! T % % 5 5 6 5 z p @ 3 3 h ' ' ` ` ` ` ` ` b     ",
"      ^ *.>.>.>.&.=.-.0 & < O F % % & = % % + f P P P $ o o o o o 1 K W S . % , = % & F a @ 3 & k *.*.*.;.;.;.;.&.N     ",
"      v ^ / ' ^ V ^ ^ * $ > # A % % 5 6 5 % X R ! P i o o o o o o o 2 J , % 6 5 5 , 5 p p @ & & ; M N V V C V V M c     ",
"    >.' ` ^ ) ) ` ) ` - > 4 + e + % % % : , % 6 E E $ o o o o o o o @ K K + 5 , & % & 9 p @ 4 > w ` ` ` ` ) ` ` ` o.    ",
" .+.=.*.>.*.>.>.>.>.>.0 3 r + G % % % % % % % + $ f $ o o o o o o o o u H % % % % % % p p $ i 3 l *.;.>.>.>.>.-.>.=.+.+.",
"$.{ v ` ` ]  .} { { { - 3 r + H % % 5 5 % : % + # & o o o o o o X o X o % , % , % % % G t $ i > w ` ' } } } } ' { b { $.",
",.{ v ` ' ] ] ' ` ^ ^ * 3 i # H + % d 6 % : & @ # $ o o o o o o o o o + & & % 5 d @ + G a $ i 3 ; ^ ^ ` ' ` ` ` _ v } <.",
",.{ v ^ ) ^ ) ^ N N N * & 4 O y , F 6 = % % , % # % O X o o o o o o o + = % % % 9 F F I p # 3 $ 0 N N B ^ ^ ) ^ ^ v } <.",
"<.@.N N B N N N N N N * $ < # a F 9 # # = , 9 p : % O X o o o o o o o + % % = : 9 p p t 6 # 3 $ 0 B B B N N N V N N +.<.",
"1.<.>.>.>.>.>.>.>.-.>.0 $ 3 O e y 9 X + % % + 6 6 & o o o o o o o o + * O + % % # 9 9 t 6 O 2 $ l >.-.-.>.>.>.>.>.>.1.2.",
"V o.+.$. .$. . .+.X.' - $ $ O 2 6 t p F d 6 5 5 # # o o o o o o o o + * % % & d F p 9 6 6 + $ $ h ..} +.+.+.+.} X.] +.N ",
"v ` }  . . .} ] ` _ _ - # # O = : , = , % % X O o o o o o o o o o o o o X X X $ : : : > > + # # h ^ ^ ' ] | } | +.' ^ c ",
"v ` ` ] ] ] ' ' ^ B V 0 h h j h h h h h j h h h h j h h h h h h h h h h h h h h h j h h j h h h h ^ ^ ^ ` ` ` ' ] ` ` c ",
"v ^ ^ N N N N N N N M x n B ^ ` V B N m v M N N ^ V B N N N N B N N N B N N M v n N N N N N N n c M M N N V N N N ^ ^ c ",
"c v v m M M m m M M M n V '  .} [ ' [ ( M V ) [ } { ] ' ] ] ' ] ] ] ' ] ' ' ( M B _ ' ] ] _ ^ V m v m M M M M M M M M c ",
"v V ^ ` { { } { { } } { } | |  . . . .] V `  .$.>.;.;.>.;. .@.;.:.>.:.:.$.o.' V / ` |  . .} { ] ` ^ ^ ` ` ` ` ` ` ` _ c ",
"v ^ { ,.,.,.,.,.*.+.>.<.,.,.,.,.>.>.+.] /  . .;.2.1.1.1.1.,.,.1.1.1.2.1.1.<.&.) ) o.>.,.,.,.,.,.>.>.+.+.O.+.+.+.+.` ` c ",
"b ' +.1.1.1.1.3.4.2.<.4.2.1.1.1.1.2.;.{ `  .$.;.;.>.>.<.1.1.1.1.1.3.5.5.5.3.1.o.} *.>.>.>.1.4.2.3.5.5.5.3.1.1.1.>.+.+.n ",
"^ ' ] +.o.o.o.o.o.o.o.o.o.o.o.o.o.o.{ ' ` ] ] [ ' [ ' } o.o.o.o.o.o.o.o.o.o.o.' ' ' ' ' ] o.o.o.o.o.+.O.o.o.o.o.o.o.o.^ "
};
