/* XPM */
static char *result[] = {
/* columns rows colors chars-per-pixel */
"60 60 196 2 ",
"   c #3F2C08",
".  c #252922",
"X  c #3E3B29",
"o  c #3C3528",
"O  c #45320D",
"+  c #4A350C",
"@  c #4E3A0C",
"#  c #523C0F",
"$  c #4F3B12",
"%  c #533E12",
"&  c #44332D",
"*  c #493A28",
"=  c #55400E",
"-  c #5B440D",
";  c #564012",
":  c #5B4514",
">  c #5F4813",
",  c #5B4418",
"<  c #644C0C",
"1  c #694F0F",
"2  c #6D540E",
"3  c #71570B",
"4  c #75590C",
"5  c #7A5E0C",
"6  c #634C14",
"7  c #684F13",
"8  c #634D1B",
"9  c #604713",
"0  c #665013",
"q  c #6B5313",
"w  c #6C541A",
"e  c #715714",
"r  c #745A15",
"t  c #795E12",
"y  c #705619",
"u  c #745B1B",
"i  c #795E1B",
"p  c #7E610D",
"a  c #7D6113",
"s  c #7D621B",
"d  c #76601A",
"f  c #504023",
"g  c #594B28",
"h  c #5B5024",
"j  c #584538",
"k  c #605127",
"l  c #675626",
"z  c #755D21",
"x  c #644F31",
"c  c #655334",
"v  c #6F5D36",
"b  c #6F5C38",
"n  c #6A5539",
"m  c #735B37",
"M  c #735D39",
"N  c #7D6222",
"B  c #7E6822",
"V  c #7A633B",
"C  c #81640E",
"Z  c #826613",
"A  c #866A15",
"S  c #8A6C14",
"D  c #81651D",
"F  c #856A1C",
"G  c #8A6D1B",
"H  c #8E7017",
"J  c #8D711B",
"K  c #93741C",
"L  c #96791C",
"P  c #997B1D",
"I  c #826622",
"U  c #846922",
"Y  c #8A6E23",
"T  c #81672A",
"R  c #846A2A",
"E  c #896E2C",
"W  c #8E7123",
"Q  c #8E722B",
"!  c #937523",
"~  c #967823",
"^  c #9B7C24",
"/  c #92752B",
"(  c #96792A",
")  c #9C7D2B",
"_  c #81673B",
"`  c #927631",
"'  c #957932",
"]  c #9B7D32",
"[  c #9E7939",
"{  c #A07F2C",
"}  c #A87F3E",
"|  c #9E8024",
" . c #9F812C",
".. c #9D8234",
"X. c #9F8339",
"o. c #A18224",
"O. c #A88927",
"+. c #A2832C",
"@. c #A8862D",
"#. c #A7882B",
"$. c #AB8B2D",
"%. c #A48533",
"&. c #A58835",
"*. c #AB8B35",
"=. c #A28539",
"-. c #AB813D",
";. c #A78939",
":. c #AC8D3A",
">. c #B08F34",
",. c #B08F3B",
"<. c #AE9034",
"1. c #AE913D",
"2. c #B29234",
"3. c #B99837",
"4. c #B3933C",
"5. c #B8963D",
"6. c #B6993E",
"7. c #BB9A3D",
"8. c #B99637",
"9. c #C19E3D",
"0. c #C4A23F",
"q. c #9C8840",
"w. c #A78E45",
"e. c #B48942",
"r. c #B58642",
"t. c #AE9242",
"y. c #B39543",
"u. c #B99643",
"i. c #B69945",
"p. c #BC9B43",
"a. c #B29749",
"s. c #B59A4A",
"d. c #BB9D4A",
"f. c #B69C51",
"g. c #B99F50",
"h. c #BEA043",
"j. c #B7A149",
"k. c #BEA14D",
"l. c #BCA251",
"z. c #BEA95A",
"x. c #C19E44",
"c. c #C09E48",
"v. c #C89F4E",
"b. c #C29049",
"n. c #C99A50",
"m. c #C4A245",
"M. c #C9A646",
"N. c #C6A944",
"B. c #CCAA46",
"V. c #C4A44B",
"C. c #C9A64A",
"Z. c #C6A94E",
"A. c #CDAA4C",
"S. c #D1AD47",
"D. c #D2AE4D",
"F. c #CFB24E",
"G. c #D4B14D",
"H. c #D9B54D",
"J. c #D7B94F",
"K. c #DDB94E",
"L. c #C2A652",
"P. c #C4A953",
"I. c #CCAC52",
"U. c #C5AC58",
"Y. c #D1AE51",
"T. c #C7B055",
"R. c #CCB254",
"E. c #CCB65A",
"W. c #CEB85A",
"Q. c #D5B352",
"!. c #DAB652",
"~. c #D7B952",
"^. c #DDBA54",
"/. c #D5B659",
"(. c #DCB758",
"). c #D5BA5A",
"_. c #DCBD5A",
"`. c #E2BD55",
"'. c #E2BE59",
"]. c #DEC15C",
"[. c #E3C156",
"{. c #E9C357",
"}. c #E4C45B",
"|. c #E9C55A",
" X c #E7C858",
".X c #EAC95C",
"XX c #D6C160",
"oX c #DEC564",
"OX c #DDC966",
"+X c #E4C660",
"@X c #E4CA63",
"#X c #E9CC63",
"$X c #E5CE68",
"%X c #E5D16C",
"&X c #E9D268",
"*X c #E7D874",
/* pixels */
"~.0 A A p p p S C P '..X}.|.|.{.5.y D G W ! ) +.M.[..X X.X7.W t 2 a A H L H p K 0.:.y.d.d.G.| m.4.:.t.y.4.W u 1.F.~.[.~.",
"[ z ].@X@X].K.K.9.S ^.A.Q.Z.C.D.;.6 D ) +. .) { 2. XG.D.G.%.;.&.` N.G.G.G.J.#.J 7.4.a.y.s.A.! A.7.2.8.6.7.( W N.p.:.:.V.",
"-.z }./.A.V.m.h.M.K H.G.Q.Y.Y.I.w.7 4 C a F  .+.$.`.m.A.A.%.;.4.4.7.4.a.i.h.3.^ 9.y.i.1.s.m.7 @ 1 3 4 C C 5 A 4.4.:.:.:.",
"b.z }./.Q.Q.A.Z.d.Y G.A.Y.Y.M.c.2.5.'.(.&.m. X.X XS.M.D.D.' ] x.m.6.i.i.u.k.p. .m.A.F.Z.m.:.9 = w s S (.[.^.J.M.:.&.:.y.",
"n.z }.I.D.Y.Y.I.V.%.~ ) D s U W L B.D.Q...N.7.4.p.4.m.M.A./ [ :.m.1.:.u.k.p.p. .L ~ s > @ 0 w D Y ^ +.D.p.y.:.+. .+.&.y.",
"r.N ^.V.A.Y.Q.Y.k.d.Q.|.Q.U }.}.{.`.m.p.F 3.4.*.&.4.7.m.M.' ` / 4.4.y.k.k.k.k.V.A.V.Q q N u Y / / +.:.D.6.%.&.%.%.&.&.t.",
"r.N `.I.I.A.Y.I.L.s.d.Y.`.^ }.m.:.*.*.:.J 9.2.&.*.u.5.7.V.` B ` p.m.k.k.d.s.i.d.i.M.Q w R ! %.&.*.:.4.D.y.&.%.+.%...:.;.",
"e.u 4.D.Q.!.Y.Y.D.A.C.V.A.s ).1.*.*.*.4.*.H.p.*.:.5.p.m.m.' N U 4.7.7.7.7.m.V.m.p.p.Q w Y ( %.&.*.&.4.A.4.:.:.:.;.%.:.:.",
"-.r % @ ; w i i D D 3 9 > u R.h.M.m.M.m.^ 8.M.A.5.4.4.p.m./ 0 t 4 C L L P P K C e 7 6 i ) +.%.%.&.*.@.x.4.y.a.y.t.:.y...",
"} u 7 y i I D D D U A 7 q 0 P | >.>.O.C < u D ~ M.M.7.5.m.R / A.S.H.K.!.G.D.9.$.G A p D +.W D Y W G S @.<.B.A.Y.C.V.4.I ",
"r.y u Y / &.&.( ( ) ! ).W.)._./.H.`.(.`.|.|.H.5 G Z J U u ; ' !.d.y.y.i.p.u.8.$.#.Q.'.(./.^.^.'.`.}.{.`.y.> ; 0 r u u w ",
"r.u I ) ) &.&.%.%. .J OXZ.m.V.u.*.%.@.*.4.p.D.o.0. X|.K.y.w E C.k.y.t.1.,.4.:.( W R.E.V.d.l.s.4.u.4.,.5.=.9 q w u u s i ",
"u.z u N ) { ~ ^ ~ I Z L *.D.L.y.*.%.{ *.*.%.4.P :.x.C.D.m.T ; u U ) +.o.^ | a > r ^ 4.V.d.k.l.l.k.s.s.t.' w s U I W ~ F ",
"v.!.@X+X}.}.[.[.}.[.!.x.K I.V.i.*.*.&.&.&.+.>.u *.u.A.A.C.R < 8.(.^.}.|.{._.Q.M.c.>.u.L.d.L.U.U.s.s.k.1.Q u Y W Q ) %.) ",
"D.}._._._.Q.I.P.Z.I.V.,.J C.A.M.,.*.,.,.:.&.*.< *.4.B.A.m.T > 0.~.c.j.k.i.p.i.a.1.^ <.k.d.y.y.y.:.t.y.;.W Y (  .%.%.=.%.",
"n +X'.+X(.I.k.l.Z.V.Z.p.~ A G ^ ^ ^ ~ H S S D 6 D +.( %.D + - 3.A.k.k.d.s.d.l.k.k.<.s t U ~ | ~ A Z p A s s Q Y Y ! ~ G ",
"* S  X_._.^.Q.A.C.C.A.u.w ! `.A.Q.D.x.I w i Y / E U T 4.:.I e @.c.f.g.g.d.d.m.L.c./ D A..X'.(.m.( q :.D.(.(.I.U ; % % w ",
"* H [.(./.).m.+.K  .u 6 s m.4.4.u.5.p.U 7 D / { &.] ( m.p./ 2 *.x.u.s.a.~ S G U i 6 / M.y.4.*.,.p.Y m.f.a.d.y.U D U W D ",
"x @.`.|.`.G.$.2.M.V.D.$.r A.4.6.:.>.4.I y Y ) &.,.*.*.V.V.%.r ~ c.c.L.V.P 0.m.m.:.N %.C.d.s.t.&.,.G c.a.y.y.w.E Y / ^ ^ ",
"c a U / ~ L o.u.p.1.4.+.s G.y.h.,.:.,.R i Y ( %.;.;.-.C.m...s 5 t G K K +.x.p.u.y.=.4.A.j.t.1.t.y.^ I.y.s.d.s./ W ^ %.:.",
"v }.+X}.Q.C.F.C.d.4.,.o.G B.h.i.*.&.e./ I W / ) ) :.;.C.p.` s 8.!.H.H.Y.D.d.a.y.i.=.8.C.d.a.s.a.a.+.x.y.s.f.a.] ^ ~ &.*.",
"m $XD.D.D.C.V.m.7.:.4.^ C m.h.i.*.:.,.Y u Y ) { &.] Q D.5.I s h.L.,.,.,.:.=.:.1.i. .$.Z.l.s.t.s.d.i } 4.p.d.a.) ) +.%.*.",
"M #XA.D.A.A.7.4.7.y.y.^ e h.4.1.%.%.%.z 9 u ( ! ) %.~ +.u ; u h.d.:.:.:.+.&.:.;.1.( +.P.l.a.t.d.a.9 < S K S H K | $.$.+.",
"v @XY.Y.C.p.4.4.p.p.4.o.6 *.1.i.:.@.%.I ] A.}.|.}.'.~.B.&., u 4.u.:.*.:.+.)  .%.1.( +.h.s.:.:.t.&.G c.!.G.^.[. XK.`._.5.",
"b ) J.!.Q.A.h.2.y.u.1.W > &.u.u.*.*.:.( 5.x.5.y.u.A.D.M.=.8 6 &.5.,.,.4.,.:.&.w.%.S ~ u.u.:.1.:.4.( C.5.5.5.,.u.y.u.u.7.",
"c 9 3 W P P J U u N N 8 w W p.4.+.:.4.+.9.7.u.u.p.A.A.A.[ , > t S L L L { G G y r a J :.y.:.d.y.&.y ,.5.5.5.4.t.t.y.4.3.",
"g 0 Q.@X`.`.Q.V.] D p.Y.( p A Z 4 q D L 8.5.y.u.p.C.A.V.;.8 6 $.`.Q.M.C.H.!.m.) _.S.L G Z C q t i 7 5.7.7.2.&.;.:.1.7.2.",
"X > Q.@X!.D.D.m.4.G 7.7.Q./.^.A.Y Q A.$.2.p.p.4.4.m.m.V...; q 0.A.,.:.:.:.2.*.Y m.m.Y.Q.'.B.s G.M.r 2.4.4.:...%.:.:.*.:.",
"X 9 /.@X^.!.H.m.,.W A.m.M.x.4.5.+...W.$.K L s u z z U Y w % - *.p.y.y.:.:.;.%./ C.4.4.:.:.A.Y G.p.p K L L A G ~  .W D r ",
". , (.oXQ.D.D.C.5.^ ).F.Q.C.5.c.8.1./.A.C.c.u.&.w / :.p.V.` Q x.y.,.:.:.:.:.&.o.C.4.y.p.p.A.+.7.7.G.G.G.D.+.:.(.!.Y.Y.A.",
"X > !.+X!.Q.C.5.*.G E.A.Y.x.c.m.7.6.T.p.s.i.d.m.t C.V.d.d.T E u.4.y.y.e.:.w.%.L m.4.p.d.d.A.$.7.7.1.4.p.h.<.h.Q.R.Q.P.d.",
"j > c.#X&X%X+X'.B.I T.%X*X#X|.[.B.M._.].oXoXoXD.K M.I.W.E.q.X.A.Q.^.!.Y.D.D.7.^ m.y.d.k.d.B.+.7.1.1.1.t.i.<.h._.].]._./.",
"n 0 A G p 5 C S S P `..X}.|.|.{.0.0.{. X X{.[.{.+.^.[.`.`.{.K.0.H..X|.|.`.K.9.O. X.X.X X{.[.u s G Y W ( { 2.H. X X.X XJ ",
"& N ].OX@X}.H.H.9.S ^.A.Q.V.V.M.*.:.^.B.5.7.m.A.K _.K.S.Q.S.K.9.G.H.A.M.D.A.8.P [.J.!.~.G.Q.w e G +.{ { { @.S.^.G.F.Q.w ",
"* N ].~.A.V.V.c.m.K Q.D.Q.Y.Y.V. .D ~ ^ ^ { O.+.^ [.S.M.D.D.S.3.B.M.9.m.B.M.4.( ^.G.Q.Q.I.I.u 7 A t s W +.@.B.D.B.D.A.w ",
"b z }.Q.Y.G.Y.V.c.Y G.D.Y.Y.C.x.*.*.M.4./ A.}.}.K.H.m.9.D.D.A.2.B.D.B.7.u.p.:.) m.6.i.p.d.m.~ `.}.T.#.J..X.XH.M.A.Q.A.; ",
"M z }.I.D.D.Y.I.m.%.~ ) D s R ! H 2.A.a.Q B.D.M.7.2.2.4.m.m.p.*.N.m.m.8.u.y.y.( K ~ G F Y S 2.K.m.W.^ S.6.4.8.u.m.A.C.% ",
"n N '.V.A.Y.Q.Y.d.d.Q..XH.I }.|.`.^.D.s.' F.C.x.>.5.u.u.u.y.y.) 7.m.5.y.*.y.i.A.}.A.G +.G.`. XH.4.7.s 0.:.;.:.7.9.m.A., ",
"m N _.I.I.A.Y.I.L.s.p.Y.[.^ }.c.*.2.1.y.( G.c.,.u.p.y.4.6.y.y.Y 7.x.5.y.s.s.k.L.I.m.^ N.M.,.*.*.*.:.G m.:.*.4.6.5.7.A.% ",
"V y ,.Y.Q.(.Y.D.Y.D.C.C.A.i /.4.1.:.*.*.&.J.x.u.p.y.:.y.t.i.;.s :.m.M.D.I.I.V.V.p.=.F 7.x.*.*.%.:.8.2.H.4.*.4.u.m.m.B.% ",
"V u % @ ; w i i i s 3 9 > u R.p.s.y.u.:.L 7.m.d.y.y.u.4.4.%.t % - 0 r u u i t i y 6 0 %.B.D.m.M.B.7.L m.M.m.4.4.7.h.B.@ ",
"V u 7 y i D I s D Y F q q 6 ~ | $.@.L S C O.0.m.m.D.D.S.D.] y s I Y W D D D s s F G A J | O.>.2.L 3 1 s U >.M.9.4.h.i.+ ",
"_ y r Y ( &.&.) ( ) ! XXW.W._._.'.'.`.`..X.X`.t D a Z D i q u U ( &.{ } / ! Q Y +._.OX].Y.D.H.`.H.|..X[.2.C S G W s w O ",
"M u I ) ) &.&.%.%.) J OXZ.M.V.i.p.y.:.4.4.V.D.o.H.|. X`.H.&.s Y ] &.%.&.{ ] ) W +.W.u.*.:.,.&.+.%.,.4.m.9.$.H.|. XA.' O ",
"c z i I  . .L ~ ! I Z L $.D.V.s.a.a.t.t.*.*.S.o.H.p.y.d.V.%.i I / ) %.&.*.*.%.) ..Z.6.u.:.*.%.+.+.*.*.:.*.{ 4.x.D.M.u.+ ",
"c !.+X+X].}.[.[.[.}.!.7.K R.V.d.d.d.d.s.,.5.M.K !.d.a.a.g.4.! 7.!.^.#X#X#X}._.Q.R.6.4.h.>.,.*.*.%.*.%.%.) W 4.m.A.D.m.O ",
"j _.'.]._.Q.A.Z.Z.R.V.4.J C.A.S.D.A.D.m.m.9.7.C m.y.y.a.u.,.K 2.m.a.s.d.P.z.y.:.<.! %.V.,.,.:.,.,.:.*.*.! I :.x.A.V.p.O ",
"& }._.oX(.I.L.g.P.C.Z.u.~ G G ~ G t - @ - r D 2 s { Y D t 5 4 *.p.s.a.t.a.a.y.4.1.( t y Y ^ ^ ( K J Z A i w ! ) +. .>   ",
"o }._._.Q.P.L.l.V.Y.Z.V./ S.|.|.(.Y.:.i ! m.!.(._.y.: # % 9 q $.d.g.f.f.d.d.c.L.h./ U A..X(.!.Q.4.t 9.S.(.`.!.E < q - + ",
"o }./.Q./.Q.I.>.{ *.K y 3 `.>.5.,.*.5.) 2.d.s.y.d.;.y Y Y Y a $.c.y.s.i.~ S G U d 6 / M.4.:.*.:.m.p m.p.u.C.Y.~ a G a - ",
"* 8.Q.D.I.A.>.m.}.|.|.^.,.`.4.d.a.:.:./ 1.f.a.a.a.=.s / ^ ( S ~ c.m.L.m.^ m.m.x.:.s %.A.d.s.y.4.d.Z A.p.V.Y.D.) Y J G > ",
"* r ( s D L ^ p.C.m.d.A.E '.p.c.y.:.y.{ p.p.a.d.s.w.F ~ { *.( t t S K ! O.x.i.p.u.=.4.A.d.s.1.:.p.~ D.d.Z.Y.Y.&.( ( ! q ",
"f s _.OX+X}.`.D.A.D.V.y.! H.u.p.a.a.a.&.7.u.a.f.f.t.W ~  .*.^ 2.^.!.H.Y.D.d.y.y.i...3.Z.d.s.:.:.p.{ x.4.c.I.Y.:.%.&.+.e ",
"g ! ]._._._.!.Y.A.L.y.:.Y N.a.a.y.a.d.Q / :.u.d.d.&.~ +.+.%. .m.V.,.:.:.,.%.:.e.s...$.P.l.d.s.t.s.N %.u.d.c.V.} / ( ) 9 ",
"h ^ _.^.}.].(.Q.V.Z.i.y.3 m.t.t.y.a.s.T 6 5 K H S K L O.<.@.) m.p.:.:.:. .%.;.:.:.( +.V.l.f.f.t.i.w 1 Z S Z S a D G U ; ",
"h O.|._.(././.E.V.p.4.4.< 4.y.:.:.:.:.! *.Y.H.D.[.}.}.K._.B. .4.p.:.:.:.+. . .=.1.) o.k.s.s.d.1.g.Y c.`.'._.!.Q.R.T.j.z ",
"l o.`.!.~.Y.Q.G.M.m.m.K < *.y.*.:.t.y.{ p.p.4.7.,.4.y.u.u.7.! *.u.4.:.,.:.*.&.:.%.S ! u.y.y.y.i.l.+.!.p.:.p.V.A.V.A.p.w ",
"h u u Y (  .*.O.o.D 0 < < ~ p.,.y.y.:.N ] 4.5.9.,.y.t.y.y.8.W t S L L L { K G e u a H 1.i.4.s.d.p.+.Q.p.d.V.V.I.C.C.A.R ",
"c ~.@X$X]._.(./.m.D H..X8.C 5 C 4 w i 7 ] 7.p.8.*.;.;.:.4.4.W $.^.H.C.A.!.!.x.) ^.G.P Z A - = 6 D F c.i.i.d.V.V.V.C.A.w ",
"n @XJ.(.Q.I.P.g.5.D D.m.C.D.`.!.*.%.S.! ^ 2.5.4.&.( :.:.*.:.^ m.C.4.:.:.:.,.*.W m.p.Q.(.[.m.! G.M.S p.i.V.C.V.C.V.m.4.9 "
};
