/* XPM */
static char *result[] = {
/* columns rows colors chars-per-pixel */
"60 60 235 2 ",
"   c #040404",
".  c #060709",
"X  c #0B0B0C",
"o  c #0A0706",
"O  c #160605",
"+  c #14120D",
"@  c #19150C",
"#  c #1A160A",
"$  c #0D0E11",
"%  c #0D1013",
"&  c #121314",
"*  c #15161A",
"=  c #17181C",
"-  c #1A1B1D",
";  c #1B1716",
":  c #101011",
">  c #2A0607",
",  c #3B0102",
"<  c #340707",
"1  c #261E0B",
"2  c #241E15",
"3  c #331714",
"4  c #392C0C",
"5  c #2B2514",
"6  c #282519",
"7  c #352B17",
"8  c #3B331B",
"9  c #38311A",
"0  c #2B2309",
"q  c #1C1D22",
"w  c #1F2023",
"e  c #1F2128",
"r  c #232425",
"t  c #23252B",
"y  c #26292C",
"u  c #2A2B2C",
"i  c #282825",
"p  c #342B24",
"a  c #393528",
"s  c #272931",
"d  c #2A2C33",
"f  c #2D2F39",
"g  c #2E3134",
"h  c #2E313A",
"j  c #323434",
"k  c #32343B",
"l  c #35393C",
"z  c #3A3C3D",
"x  c #3B3935",
"c  c #2D302F",
"v  c #460405",
"b  c #550305",
"n  c #481A14",
"m  c #6E0305",
"M  c #49370C",
"N  c #483916",
"B  c #513515",
"V  c #463926",
"C  c #423C35",
"Z  c #503525",
"A  c #673F13",
"S  c #3C403E",
"D  c #59450E",
"F  c #564213",
"G  c #5B4818",
"H  c #4F411A",
"J  c #634C15",
"K  c #64481A",
"L  c #6B541B",
"P  c #695318",
"I  c #755B18",
"U  c #6F550C",
"Y  c #7D631A",
"T  c #7E610D",
"R  c #574926",
"E  c #544A2E",
"W  c #685626",
"Q  c #745C22",
"!  c #695735",
"~  c #745C37",
"^  c #6C4C28",
"/  c #7A6328",
"(  c #7B6734",
")  c #363943",
"_  c #3A3C45",
"`  c #393C47",
"'  c #3E414B",
"]  c #3E4242",
"[  c #3F4350",
"{  c #424444",
"}  c #42454B",
"|  c #464949",
" . c #4A4D4D",
".. c #4A4541",
"X. c #424553",
"o. c #484B55",
"O. c #4E5252",
"+. c #4B515A",
"@. c #565B5B",
"#. c #555758",
"$. c #555349",
"%. c #565B6A",
"&. c #565A6E",
"*. c #5D6162",
"=. c #5C6170",
"-. c #656969",
";. c #6E7372",
":. c #767A7B",
">. c #767A7B",
",. c #6A6F71",
"<. c #786544",
"1. c #870706",
"2. c #93080A",
"3. c #A40205",
"4. c #B3080B",
"5. c #D50205",
"6. c #C90A0D",
"7. c #E80104",
"8. c #F70408",
"9. c #FA1115",
"0. c #F82E32",
"q. c #FB1920",
"w. c #876A18",
"e. c #95771D",
"r. c #876B15",
"t. c #876C26",
"y. c #8D7226",
"u. c #9A7B25",
"i. c #967929",
"p. c #836C33",
"a. c #8B7435",
"s. c #967B36",
"d. c #93612F",
"f. c #AC7537",
"g. c #AA7B48",
"h. c #84714E",
"j. c #F84C51",
"k. c #7A817F",
"l. c #9E802B",
"z. c #9F8024",
"x. c #9C8239",
"c. c #A2832C",
"v. c #A68627",
"b. c #A38532",
"n. c #AA8B36",
"m. c #AB8D3B",
"M. c #A6873A",
"N. c #AF9138",
"B. c #B3933C",
"V. c #BB993D",
"C. c #B7963A",
"Z. c #B08F3B",
"A. c #C19E3E",
"S. c #C4A23E",
"D. c #A68D43",
"F. c #B68844",
"G. c #AB9246",
"H. c #B39543",
"J. c #BC9C44",
"K. c #BB9E4A",
"L. c #B69947",
"P. c #B69F51",
"I. c #BCA14B",
"U. c #BDA452",
"Y. c #938654",
"T. c #C29C47",
"R. c #CD9556",
"E. c #C4A245",
"W. c #C4A44B",
"Q. c #CCAA4C",
"!. c #C8A749",
"~. c #D2AF4E",
"^. c #D6B34E",
"/. c #C8AB52",
"(. c #D1AE51",
"). c #D5B353",
"_. c #D9B552",
"`. c #DCBB54",
"'. c #D8BB57",
"]. c #CEB252",
"[. c #E2BD55",
"{. c #DEAB74",
"}. c #DEC25C",
"|. c #E3C35C",
" X c #E7C55A",
".X c #E5CA64",
"XX c #DBC261",
"oX c #797E81",
"OX c #6B7082",
"+X c #7C8182",
"@X c #858B8C",
"#X c #868988",
"$X c #88918E",
"%X c #8D9494",
"&X c #949B9C",
"*X c #939897",
"=X c #8A8F90",
"-X c #97A19F",
";X c #9BA4A3",
":X c #9EA8A7",
">X c #A3AAAB",
",X c #A4A7A7",
"<X c #A7AFB1",
"1X c #ABB3B4",
"2X c #ADB5B7",
"3X c #B4BABB",
"4X c #B5B9BA",
"5X c #A7B1AF",
"6X c #989EA0",
"7X c #E4B884",
"8X c #FBC58B",
"9X c #F8C996",
"0X c #FED2A4",
"qX c #C3C3B0",
"wX c #B7BEC1",
"eX c #BCC3C4",
"rX c #BDC6C7",
"tX c #C4CBCC",
"yX c #C3C8C8",
"uX c #C6CFD1",
"iX c #CACFD1",
"pX c #CBD4D5",
"aX c #CDD6D8",
"sX c #CCD6D7",
"dX c #D2DBDD",
"fX c #D4D9DA",
"gX c #D9E0DC",
"hX c #D6DEE0",
"jX c #D8DFE2",
"kX c #DBE3E5",
"lX c #D9E2E3",
"zX c #E4EBEC",
"xX c #E6ECEC",
"cX c #EBF3F5",
"vX c #F0F3F4",
/* pixels */
"'.J w.w.T T T r.r.e.`. X X X X XC.I w.w.y.e.u.b./ ~ p.p.D.Z.t.I G B G W G w.r.e.A.n.H.K.K.).u.E.B.Z.B.H.B.y.I Z.].`.|.}.",
"s.Y '..X.X|.`.`.A.r.`.Q.).Q.Q.Q.m.J w.i.c.z.l.l.N f.7Xg.( a.n.n.Q K {.{.K x.v.w.V.B.L.H.K.!.e.Q.V.N.C.B.V.i.y.!.J.m.n.E.",
"M.Q [.).Q.W.E.T.!.e.).~.(.).~.Q.F.U I I Y Y l.v.4 f.9Xg.^ t.M.B./ K {.9XK p.V.u.V.H.H.H.K.I.J M U U U r.T T w.N.C.M.m.n.",
"R.I .X(.).~.~.W.T.t.^.Q._./.!.T.n.C.[.'.N.E..X|.5 f.9Xg.R Q s.A.p.K 7X8XA p.V.c.E.Q./.Q.E.n.J D P Y w.[.[.}._.!.Z.M.m.B.",
"R.I |./.~.~.(./.W.b.u.i.Y J P Y y.!.Q.].x.!.A.N.O f.9XY.N G s.m./ K 7X8XJ ( I.l.u.u.Y G M D G P Y i.c.].V.H.n.b.c.c.b.H.",
"F./ `.W.Q.).).(.I.K.]./.R V E Z W H.L.L.r.C.N.n.O f.0Xg.N ^ a.i.W A 7X7XK ( I.!.!.E.y.J N 7 Z Z 7 P x.~.C.b.b.b.b.M.M.H.",
"F.Y [.(./.Q.(././.G.p.9 + C ! a O 3 H a.w.S.N.n.o B <.Z 7 W t.y.Q 7 ~ h.M p.L.J.I.J./ 0 O 2 .. .w + G G.N.n.b.b.b.c.m.M.",
"F.I Z.~._._.~.W.s.V @ < @ ;XfX$X> b > 1 8 a.C.n.X @.@X#.7 ^ / t.! ) h.=Xj p.W.L.p.N + < v ..wXhXO.O < 5 R p.x.m.M.b.M.G.",
"F.I F M D J H p k ) d y * ,XgX$X& q t k ) e N E.X oXdX#X8 K P I M x yXiXE G I 5 d ) h t & } yXkX#.. y f ) x E s.D.m.H.b.",
"f.L P P F 7 ; o.%.' ' ` X {  .x q ` X.X.&.OX* I X +XdX+X9 G y.~.t.C iXpX] W R y &.X.[ [ t r o.+.r $ } ` [ %.k 7 ! M.m.t.",
"F.L L G 2 w q [ X.) & $ %.%X6X=X} % q ` X.+.y 4 X >.dX>.2 4 s._.( x iXpX| H 2 d X.` h & u ;.&X&X>._ X t ` X.d q r 2 P L ",
"F.Y L 8 = q q o.` & +XzXcXkXhXhXkXwXo.t ) +.u N . >.jX#X6 N t.Q.( E pXfX] % % f X.s - #XzXzXlXlXjXkXeXz e X.f q t ; I I ",
"H.Y J # X . * ) q -.jXcX,X#.o.*.1XcXyXo.s o.s N . oXhX>.7 H G I F S iXfX' % $ d ` s #XjXzXoXO.X.,.aXvX<Xu d d X X @ t.w.",
"W.)./.5 X $ * t t 2XfX#X> 2.4.1.Z &XhX#Xs } s 4 . +XdX+X9 H J C.a.S tXpX_ $ $ d f O.wXpX+.b 3.4.m 2 3XiX,.q s % & # i.u.",
"(.[.U.a ) ) q = l ;X>XX 2.8.0.j.2.O.2X%Xd ' d 1 o @.*X@.5 B D A.p.p $X*Xu % % f f #.1X#XZ 6.9.j.j.v +.3X:.q q e { p s.b.",
"! .XP.5 . X * = * c u o 4.8.9.q.2.; j s & X.s   * q w - & # M D ; = q q q . . s s - j t v 5.8.q.8.b ; l w * q & : @ t.w.",
"V e.W.6 . . * d q =X2X#.< 4.5.3.n OX4X,.y X.d . h [ =.[ s ; M 0 = h &.&.` q X s h ] &X:X_ m 4.5.1.- @X;X+.q t X o + N K ",
"V r.W.6 = q q ` q | >X>X;.u > x +X<X%Xk * e * X h X.=.X.s = M 1 q h &.=.` t   = = = *.:X&X@.3 >  .@X<X+Xw d d = r 2 t.w.",
"! v.W.9 s f q ` ` $ @.<X<XwXrXwX<X=Xk o u { w   . $ X . . o M 1   . X X .   X y z ; . *.:X<XwXrX2X1X@Xy e ' d e z i y.u.",
"! I L # . . * ` ` ) = & _ -.;.-.k * e q *XsXO.y :XpXhXrX$Xx M 0 O.>XdXdXeXOXX ,.rX%.q * r o.,.;.@.s & s _ X.h $ o @ i.m.",
"~ |.U.5 . . = ` X.` ` ) s q = q s k ` t =XiX#.r :XlXxXpX$XS M 0  .5XzXkXrXoX$ ,.eX@.y k d r q q e d ) ` ' [ f % o @ s.n.",
"~ .XJ.8 & q = d f f f t t r q r e q q : * w $ r :XgXxXpX$Xx H 0 O.5XzXkXuX:.  & - % & = q q q r e e s d s ) e q r 2 i.n.",
"( .XW./ : = & q d t $ $ r c j z }  .} c : q $ r :XhXxXsX$Xc # # O.5XzXzXrXoX  $ * ; z | } { z j c w $ & s s = * 6 8 u.b.",
"! .X).I.( 5 . = &   6XvXzXzXkXkXkXdXlXzX;.2   r ;XlXxXpX$Xj X   o.<XzXkXrX:.    g >XzXjXdXkXkXkXzXxXgX%.. = 2 N ( /.`.C.",
"~ l.'._._.!.l.5 : . 3XhXdXdXdXdXhXdXdXhX>X6   r ;XdXxXpX+Xk % X O.1XzXkXeX>.    o.uXdXhXdXdXdXdXfXfXiX>.& @ R M.H.L.V.C.",
"! G U y.z.e.Y 0 d & 4XdXdXdXdXjXhXdXdXjX&X-   . e S S l y %     ; d z z j -     o.rXdXdXdXdXdXdXfXfXiXOXt j ~ D.G.L.B.C.",
"E U ~.|.}.I./ # ) * 3XdXdXdXdXdXdXdXfXdX#Xq s d c h k h h ' X.X.` f f k s s s q } yXdXhXdXdXhXaXhXfXuX:.t l 8 ( x.m.V.N.",
"a G )..XI.R & . ) = 2XdXdXdXdXdXdXfXsXsXoX= q y e e h h s t e e t d k h r r r q } wXpXpXaXdXhXdXaXhXuX:.s g * 7 / M.n.n.",
"a G '..XM.p w X ) * 2XdXdXdXdXdXuX$XS i - & {  .| { 6 :  .*XyX2X>.i . z |  .| j & r i #.<XaXhXdXfXfXuX:.d f q i N / Y I ",
"i G '.XXx.9 r X ) * 2XdXdXdXgXgXuX-.X X . u sXhXjX&Xl ,XaX>X,.@XyXpX-.r tXhXhX;X* X X q &XaXdXdXhXdXuX:.d h q y a G.].Q.",
"S D ).}.x.p t X ) * 2XpXpXsXsXsXrX-.. X   - uXdXsXu >.zX%Xp Z 9 ..iXaXr ;.dXaX*X& o X - *XuXsXpXaXpXtX:.d f q y 9 G./.K.",
"E J I..XG.a r X ] = l S S S S S S w   & r r tXdX&Xr tXyXC d.8X{.B =XxX#Xr dXaX*Xr q . X j ] z z ] _ z u s f q r a P.'.'.",
"! P r.r.D 2 e X l = ,XyXyXyXrXyXeX-.X k h e uXdX+Xi eX*XZ R.0X7Xd.#.iX6X: dXsX*Xy l - - %XrXrXyXyXyX3X-.u d - r a U. Xy.",
"V Q }..XG.p y % l = 3XlXfXdXdXfXpX-.X d y w uXdX5X= >X$XZ R.8X8Xf.$.iX-.u dXaX*Xe h w = &XsXdXdXdXdXfX>.u d q y 8 D.^.L ",
"V Q |.).a.p u & ) * 3XdXdXdXdXdXuX-.% g e - -X:X1X] #.#XR R.0X9Xf.$.*X2 >.>X-X:.w g w i &XsXdXdXdXdXpX:.s h q r 9 D.Q.L ",
"~ Q |.).s.9 u + ) = 3XlXdXdXdXdXpX@Xr c y X X X ] 5Xz i B R.0X8Xg.p 2 *.:X& X X * k w O.2XsXdXdXdXdXsX>.u g w r 9 G.Q.F ",
"~ Q [.].s.p r & ) = 3XdXdXdXgXdXdX*Xu e d t - : r uXrX#.N R.0X8Xf.3 -XsX-X  * q e c = *.rXdXdXdXdXdXpX:.s h - w V G.!.N ",
"~ / `.W.L.W @ . _ = 3XlXdXdXfXdXdXtX+Xe q y = % r pXdX:X9 B ^ ^ n -.uXdX-X  ; w w * S :XdXdXdXsXdXdXpX>.g g & 9 ( I.!.G ",
"~ Q [.(./.K.p.5 g * 3XlXdXdXdXdXdXdXpX#Xr q = : i rXrX3X*.& X . r -XrXyX%X  = = = O.2XdXdXdXdXdXdXdXsX>.s g a a.N.A.!.F ",
"~ I H.(.)._.G.N - X 3XgXdXdXdXaXaXdXdXpX;.&     . i w w * X * X . w r r -   .   j :XsXdXdXsXdXdXdXdXpX>.; - R D.E.S.Q.F ",
"( I D M M 4 # % X   5XpXsXsXsXsXsXsXsXeX*.%     o e * & & * * * * % & = *   o   y +XrXsXsXsXsXsXdXaXrX,.  X 6 H a.C.Q.M ",
"~ I P N + & % q s & . y  .#.@.@.@.@.@.] ; r %     & t = & & & : & * q r .     % = y [ @.*.*.@.@.O.] e . = y * & - R C.M ",
"p.L P 4 + * * y d s e * * % & + % & % X X # X   b > $ $ O v v n < X $ o v ,   X # % % % % % % % & * q y s d q = w # D M ",
"~ Q L 7 . . * ) ' ) l ) l l h j l l j - -.*XE . 3.1.> O n 6.8.9.4.> O > 3.m X R <.E w S l l k g k k ) k l ` s X X 1 / M ",
"! Q K #   . * ) ' ] [ r $       . q g r #XeX$.O 7.5., > > b m m v < < b 7.3.1 ( Y.! i g = .       $ t _ ` ' d : X # m.M ",
"! )./.a s d q ) ' g % x +X-X:X-X$XO.* X @.Y.E o 8.8.6.m v v , , v v m 7.8.4.# ! k.x X - *.*X;X:X-X:.l & k X.d r z p D.M ",
"E }.I.5 = q q ) l % *.:X5X#X*.;.;X:Xk.r + 6 @ o 7.7.5.5.5.5.5.5.5.5.5.7.7.3.  ; # X i k.5X&X,.*.%X<X&X| & ) d = r 6 m.M ",
"V .XU.5 .   & ] e  .-X,X ., b b 7 k.:X,.r ] p o 1.< , , , , , , , , , < , m X g j i k.,X,.3 b b < O.;X%Xl r s X . @ M 4 ",
"p .XI.5 . . = h * :.:X*., 5.8.7.1.C $X$Xc S x 5 n n 1.m 1.1.1.1.1.1.2.1.> + X c d | %X#Xp 3.7.8.5.< @.&X@.q e $ : + M M ",
"V [.K.6 g h q d & r u X m 8.q.0.6.< r y + z C / G.s.J P P I D / a.p.( p.J F 5 i y ; i r v 5.8.0.0.m $ u 2 * q q ] i I D ",
"V C.L.6 $ * q h * >XdX#X> 5.9.q.2.#.tXrX] S x / L.D./ y.u.u.w.u.T.!./.T.z.C.7 d d *.tX3Xx 3.8.0.6.3 oXdXoXq r = - # Y D ",
"Z I t.@ . . & ) - ,.pXkX,.< v v { 2XkX*Xi ] c ! G.D.w.u.l.n.u.I I r.e.e.v.H.5 d h ] >XkX&X3 v b 3 OXhXeXO.q t $ X # Y J ",
"H Y P.9 X % * ) k * ;XcXcXyX%X,XgXxXeX| u } u E G.G.y.u.c.n.u.C.`._.^.^.Q.D.5 d _ t  .eXvXhX>X%XtXcXzX+X* k s & * # y.I ",
"R i./.W * e q ) ' d & ,.tXdXdXdXuX@Xc w l o.y ! H.b.e.l.c.b.c.E.W.Z.m.F.m.s.6 d } h * z >XaXdXhXsX2X-.* d } s - i 6 i.D ",
"W u.`.D.9 X % X.o.` g - - z { { y = y k [ =.6 L r.e.e.v.n.v.c.J.K.m.m.m.b.i.8 y +.] l y = j { { j ; q g ` X.d @ 5 G w.B ",
"R v. X}.).D.R j o.X.) _ * O.*X>.u t ) ' #.] E I. X X|.`.[.Q.u.B.J.M.n.n.b.u.W 2 X.o._ ) q j #X%XS % ) _ X.[ E a.I./.I.W ",
"W z.}._.'.(.W./ 7 :   > O ;.lX1Xc O o + 8 W x.V.Z.Z.H.H.L.V.y.n.V.B.Z.B.Z.n.b.~ 5 + o O O C eXlXO.  O o ; N s.W.W.W.A.L ",
"E Y I y.i.c.N.v.z.Y 1   o =.tX;Xc O 9 G s.B.C.J.B.H.H.H.C.B.y.T r.e.e.e.u.e.w.I I U D # O z <XyX| o @ Q H.W././.Q.Q./.t.",
"! '..X.XXX'.'.).S.Y ^.).7 N ~ ^ 5 N I U l.J.T.C.n.M.M.m.C.C.y.n.`.^.!.Q._.`.T.u.`.~.e.r.M 5 ^ ~ 7 0 F.L.L.K.W.W.Q.Q.Q.L ",
"! |._.'.)././.P.C.w.~.E.a.5 3 7 M i.~.y.u.N.C.C.n.u.m.m.n.n.u.S.~.N.Z.N.n.B.n.t.E.J.)._.K.N 2 5 7 P C.K.W.W.Q.!.W.E.m.K "
};
