/* XPM */
static char *result[] = {
/* columns rows colors chars-per-pixel */
"60 60 204 2 ",
"   c #030304",
".  c #0B0403",
"X  c #060608",
"o  c #07090A",
"O  c #0A0A0C",
"+  c #080708",
"@  c #140203",
"#  c #1B0203",
"$  c #140C0A",
"%  c #0F100F",
"&  c #15110D",
"*  c #0E0E11",
"=  c #0E1113",
"-  c #0E181D",
";  c #121314",
":  c #15161A",
">  c #18171B",
",  c #17181B",
"<  c #1A1B1D",
"1  c #1D1515",
"2  c #100F10",
"3  c #240203",
"4  c #2C0203",
"5  c #330103",
"6  c #3B0204",
"7  c #370A0B",
"8  c #29190B",
"9  c #261609",
"0  c #331D0A",
"q  c #261615",
"w  c #1E201F",
"e  c #3B230D",
"r  c #2F2318",
"t  c #1C1D22",
"y  c #1F2124",
"u  c #1F2028",
"i  c #222324",
"p  c #23252B",
"a  c #26292C",
"s  c #2A2C2C",
"d  c #262827",
"f  c #2E312F",
"g  c #262931",
"h  c #2B2D34",
"j  c #2D2F39",
"k  c #2E3133",
"l  c #2E3139",
"z  c #323435",
"x  c #32353D",
"c  c #36393C",
"v  c #3A3C3D",
"b  c #302E30",
"n  c #4D0102",
"m  c #450304",
"M  c #550104",
"N  c #5E0202",
"B  c #640103",
"V  c #690608",
"C  c #7D0203",
"Z  c #760406",
"A  c #6B0E11",
"S  c #462D16",
"D  c #472C16",
"F  c #423727",
"G  c #503D28",
"H  c #5B4528",
"J  c #564834",
"K  c #63492D",
"L  c #333640",
"P  c #363943",
"I  c #393C45",
"U  c #3B3E49",
"Y  c #373B48",
"T  c #3F4243",
"R  c #3E414C",
"E  c #3F4350",
"W  c #434546",
"Q  c #40434D",
"!  c #464A4A",
"~  c #4A4D4D",
"^  c #474747",
"/  c #4C514E",
"(  c #424553",
")  c #464A54",
"_  c #464959",
"`  c #4A4D5C",
"'  c #4B4E51",
"]  c #4F5152",
"[  c #4E515E",
"{  c #525555",
"}  c #52555C",
"|  c #565A5A",
" . c #5A5D5D",
".. c #545957",
"X. c #4E5162",
"o. c #565A68",
"O. c #585D70",
"+. c #5E6162",
"@. c #5F6475",
"#. c #636666",
"$. c #646769",
"%. c #66696A",
"&. c #696C6D",
"*. c #616864",
"=. c #656978",
"-. c #6D7373",
";. c #727576",
":. c #757A7B",
">. c #797D7D",
",. c #727879",
"<. c #6A716F",
"1. c #880203",
"2. c #9B0204",
"3. c #940103",
"4. c #A80306",
"5. c #B90307",
"6. c #C70206",
"7. c #D60307",
"8. c #E70205",
"9. c #FA0205",
"0. c #F8060A",
"q. c #FA161A",
"w. c #EE1216",
"e. c #EC1E22",
"r. c #C52125",
"t. c #ED2327",
"y. c #965E29",
"u. c #916535",
"i. c #B87A3C",
"p. c #A76526",
"a. c #895119",
"s. c #FD3D42",
"d. c #906D43",
"f. c #8F6D40",
"g. c #B77E43",
"h. c #FD5559",
"j. c #FD5C61",
"k. c #7B817F",
"l. c #B6854B",
"z. c #D48D45",
"x. c #FC9A46",
"c. c #E69D53",
"v. c #FBA858",
"b. c #FCA24E",
"n. c #FDB466",
"m. c #FDAE61",
"M. c #7A7F81",
"N. c #7D8383",
"B. c #7F8589",
"V. c #818586",
"C. c #848A8A",
"Z. c #84898A",
"A. c #88918E",
"S. c #898E91",
"D. c #8D9393",
"F. c #8E9896",
"G. c #929A9B",
"H. c #929696",
"J. c #97A19E",
"K. c #979EA1",
"L. c #9BA3A3",
"P. c #9FA9A7",
"I. c #A3ABAB",
"U. c #A5A9AB",
"Y. c #A7B2AE",
"T. c #A6AEB1",
"R. c #A9AFB3",
"E. c #AAB2B3",
"W. c #ADB6B7",
"Q. c #B3BBBC",
"!. c #B3B7B9",
"~. c #FECE9A",
"^. c #FEC88E",
"/. c #FED2A3",
"(. c #FDD6AC",
"). c #FDD8B2",
"_. c #B5BFC1",
"`. c #BCC4C4",
"'. c #BFC6C9",
"]. c #BBC5C5",
"[. c #C2CACC",
"{. c #C3C9CA",
"}. c #C6CFD1",
"|. c #C7D1D2",
" X c #CAD3D4",
".X c #CED6D8",
"XX c #CFD8D9",
"oX c #D2DBDD",
"OX c #D4D9DA",
"+X c #C6D0CF",
"@X c #D6DEE0",
"#X c #D7E1E1",
"$X c #DAE2E4",
"%X c #DEE7E8",
"&X c #DFE8E9",
"*X c #E1E6E8",
"=X c #E3EBEC",
"-X c #E8EBEC",
";X c #E9EFF1",
":X c #ECF2F3",
">X c #EEF6F9",
",X c #F2F7F9",
"<X c #F2F7F9",
"1X c None",
/* pixels */
"1X1X1X1X1X1X1X1X1X1X  o + + 1X1X1X1X1X1X1X1X1X1X1X1X1X1X1X1X1X1X1X1X1X1X1X1X1X1X1X1X1X1X1X1X. O + 1X1X1X1X1X1X1X1X1X1X1X",
"1X1X1X1X1X1X1X1X1X1Xq u.u.H   1X1X1X1X1X1X1X1X1X1X1X1X1X1X1X1X1X1X1X1X1X1X1X1X1X1X1X1X1X1X$ f.u.K   1X1X1X1X1X1X1X1X1X1X",
"1X1X1X1X1X1X1X1X    < V.G.|     1X1X1X1X1X1X1X1X1X1X1X1X1X1X1X1X1X1X1X1X1X1X1X1X1X1X1X    ; C.H.#.X     1X1X1X1X1X1X1X1X",
"1X1X1X1X1X      # 4 s  X%XB.. n       X 1X1X1X1X1X1X1X1X1X1X1X1X1X1X1X1X1X1X1X1X1X    . 6 < +X=XD.@ m .       1X1X1X1X1X",
"1X1X1X1X* ) R P c > s `. XV.  h c I ) P   1X1X1X1X1X1X1X1X1X1X1X1X1X1X1X1X1X1X; _ Q P c t , {. XA.o h P Y _ x   1X1X1X1X",
"1X1XO   R X.P c a O : s s i o a x P T @.i   1X1X1X1X1X1X1X1X1X1X1X1X1X1X1X1X  _ +.P c h , ; s s i O w h I U M.p   o   1X",
"o , i o ! I c ; f A.Q.[.[.{.E.^ O d I Q P   1X1X1X1X1X1X1X1X1X1X1X1X1X1X1X1XO } U c : ; :.!.[.|.{.E.o.; p U Y j * u *   ",
"  ; , o R P = | $X:X$X.X|.*X>X=XV.< s R R   1X1X1X1X1X1X1X1X1X1X1X1X1X1X1X1XO } P : ' `.:X$XoX[.$X,X>X!., p U j O , O   ",
"  + o + U > s @X>XR.^ 5 5 q V.=X%XA.% Y U   1X1X1X1X1X1X1X1X1X1X1X1X1X1X1X1XO X.d s  X;X+X/ 4 6 q >.%X%XL.X I x   X o   ",
"  o = o Y + Z.oXE.O C e.8.5.3 V.OX[.i z U   1X1X1X1X1X1X1X1X1X1X1X1X1X1X1X1XO } % ;.#XOXd Z e.0.6.5 | oXoXy i x o ; X   ",
"o U L + z   ..&.f 5 e.h.q.9.3., &.&.< i Q   1X1X1X1X1X1X1X1X1X1X1X1X1X1X1X1XO ` o ~ &.] @ q.h.t.9.2.   .&.d , x O R k   ",
"  * ; O P +  .A.{ # 7.0.0.8.B z A.C.< h R   . . B B B B B B B B B B B n . . O } % ..C.k.  7.0.9.8.C 2 A.D.y t x o : O   ",
"  o   + Q ; v I.L.^ 6 C 1.N 1 G.I.N.% P R   N 4 6 m M n M n n n n n m 3 M 5 O } t c J.I. .4 C 1.B q N.Y.D.X L x   X *   ",
"  : > O ( z + #.P.Y.>.] ~  .P.I.k.i O p i   C 7.5.2.2.3.2.3.2.2.2.2.2.6.8.5 X l < + ..J.Y.k./ ~  .G.I.G.d < E x o t *   ",
"  I c o _ Y j o / D.P.E.Y.P.J.*.%   w c s   1.9.9.6.3.C C C C C C 2.7.9.9.6 o / / % + s A.P.Y.W.Y.J.:.w ; c R x O U j   ",
"    O o ( Y I P > o O y i ,   ; x , W 1X1X  1.9.6.@ 4 . 4 4 4 4 . 4 5 8.9.m % ].$Xs d d + + w i ,   % k E T R x o o     ",
"  O   o E P c P P P l k h l L P v > v 1X1X  B 4.Z . 3 M q.0.0.w.7 3 @ 3.4.4 ; Y.`.d d c c z h h l x I I P U R x   o *   ",
"  ; , o l k g h p y t , , , , , , O O ; %   5 C # O * 3 A A N A @ * O 4 C @   < < + ; , , : , , < t y a h h l g O t O   ",
"1X* y o y g u O   ; d f f f l k f i X y ,       ; p : 2 = O = O = , i =       s ; o s f f f f f f y O   = a j : * t + 1X",
"1X1X1XX = ;   { ].|. X|.|.|.|.|.|._.<.o X     ; p : ; : : , , - : , , d O     o , F.'. X X+X X X X X{.{.,   , O     1X1X",
"1X1X1X1Xo   t #.%XXXoXXX#XXXXXoXXXXXP.,         X     X X , :       X           f _.XXoXoXoXXXoXOXoXXX:Xi t     1X1X1X1X",
"1X1X1X1X* l g %.%XXXXX@XXXXXoXXXoX].~ O , ; X +.Q.Q.Q.|   * *   -.!.Q.Q.~ + ; , o +.+XoXoXXXoXoXXXoXoX;X< I +   1X1X1X1X",
"1X1X1Xo   R g %.&XoXXXXX@XXXXXoXY.c O a y ,   &.oXXXW.1 e e e 8 d ].oXXX] o , p d O ~ _.oXoXXXoXoXoXoX;X< ) t     1X1X1X",
"1X1Xo i o ` p %.%XXXXX@XXXXXoX X  , s g t , + &.oXXX .e v./.~.z.0 -.oXOX~ o , i h s ; ; #XoXoX@XoX#XoX;Xt E , ; y   1X1X",
"1X- = h o ( d %.&XoXOXXXoXXXXXQ.  h P = X X   -.Q.z , S n./.~.c.e , T `...  o   , c y % [.OXXXoXoXoXoX:Xw Q w = j   1X1X",
"1X= * l o ) d $.&XoXOXoXoXoX|.<.  g c O -.k.N.L.i  .:.S m./.~.c.0 D.~ z J.V.N...% P t   F.XX#XoXoXoXoX:Xw T t = x   1X1X",
"1X= * l + ) p $.*XOXoXOXXXXX|.]   d x O I.oXoX&.i '.B.S v.~.^.c.e J.Q.; Z.oXoXN.* I y   V.#XoXXXoXoXoX:X> ! t ; z o 1X1X",
"1X- * h + ) p #.-XoXoXoX#X#XXX+.  a T O I.oXoXv J XXF.e c./.~.z.8 I. Xf | OX@XN.; ( i   G.#X#X#X#XoXoX-Xy Q < = k o 1X1X",
"1X= 2 j o ) d o ; % ; % % ; = o   o c * I.oXOX! v =X{.q p./.~.a.w XX#Xf O.XX@Xl.: L o   % % % ; % % % %   Q t ; l   1X1X",
"1X= 2 j o ` p $. X}.}.}.[.|.{.{   O     I.OXoXA.; `.:X&.& d.u.& k.>XY.o T.XX@XV.    o   C.+X+X+X|.+X X%Xt _ > = k   1X1X",
"1X- = j o ` p %.#XoXoXoXoXoX X] o ; O o !.OXOX Xs ] .X XD.v z G.XX|.R E oXXX#XA.  O O   C.oXoXOXoXoXoX*Xw R t ; j   1X1X",
"1X1X= l + _ g %.@XoXoXoXoXoX.X;.+       &.C.C.C.>.; i C.{.<X<X_.N.- y B.B.B.C.|     + ; J.@XoXoXoXoXoX=Xt R t ; k   1X1X",
"1X1Xo t o _ p $.@XoXoXoXoX@XoX'.{.{._.t , t > < y p p : , , ; : , p i t t > t = h `.[.[. XoXoXoXoXoXoX*Xt Q y * ;   1X1X",
"1X1X1X*   _ p $.@X@XoX@X@XoXoX@XoXoX'.i p j l l P R U Y ` X.X.` U U U P l x L y z XXoXOXoXoXoXoXoXoXoX=Xq ) ,     1X1X1X",
"1X1X1X1X* j p $.@XOXOXoX@X.XoXoXoXOX|.s     * > y i t , o     o : t y y > O     W OXoXoXoXoXoXoXOXoXOX-Xy R o 1X1X1X1X1X",
"1X1X1X1Xo o t $.@X@X@X.X.X.XoX@XoXoXoXh     | L.]..XQ.k.< = O k V._..X'.G.T     #.$XoXoXoX@X@XoXoXoXoX-Xy y   1X1X1X1X1X",
"1X1X1Xo * *   $.,X*X@XoX@X@X@X.XoX%XQ.;     *.Q.#X:X|.Z.< % O z F.OX:X#XY./   o s *X$XoXoXoX@XoXOX$X=X,Xt   t X     1X1X",
"1X* , X i j t * w v | o.=.,.M.M.Z.&.1 > ,   %.Q.#X:X XC.<     z F. X:X#XY.~   d * k >.V.V.N.;.$.o.{ z : * p g : * , o 1X",
"  a p o L g j g u t t t > : t t , O         +._.$X,X XA.w 1X  z F..X:X@XE.~   o     : , , , > > t t t p j h j p O h t   ",
"    * o ` Y Y P Y h g p i u g l P , { '.N.  @._.oX:X+XV.< 1X  z F.XX:X@XW.~ ; W.`.s j Y L h p i p a L Y Y Y U L o O     ",
"  O + + X.U Y P ; 2 a W W x t * j , $.=XZ.  &.].@X>X XD.< 1X  c G.OX>X@X_.] * '.%Xh j j O w v ! T a * , c T ( L   o *   ",
"  g h O _ Y g X &.!.T.W.R.I.E.B.O   z >.{   ; , , , , ;   1X  o , : : , , * * M.>.,   < G.E.T.W.E.T.T.o.  x U L O l t   ",
"  a g o E l o ,.R.U.M.{ ^ %.D.T.D.j X > ,   , j R O.P i * 1X  ; a I o.U h :   t : o I K.!.S.#.^ } N.T.E.$.o Y L * j t   ",
"  o X + E 2 W U.R.k 6 4.4.Z ; F.T.Z.2 I (   , L _ =.U h O 1X1X* g E @.( L = O O.z > G.R.Z.$ 1.4.2.4 T T.T.a t c   o O   ",
"    + O P   ' &.P 3 7.q.0.0.C i &.%.> h R   o h j P h >   1X1X  t g P h g   * O.u i &.&.: 2.0.q.0.6.@ ! =.J O g o o     ",
"  Y Y O L   ;.D.! 4 t.h.q.0.1.d D.D.a g _   = o } $.h   1X1X1X1X  c &.'     * O.t c H.H.; 5.j.s.0.7.# ..A.o.o g O X.P   ",
"  = : + R o Z.@X_.$ A t.w.5.3 S.@X[.i x (   - , Q.;X%.  1X1X1X1X  N.;XR.X X O o.g x .X@X;.6 r.e.7.M y '.XX&.= k o t =   ",
"  *   o _ t i .X,X}.| h d T D.,X$XM.* Y R   - , _.-X<.  1X1X1X1X  N.;XR.o 1XO o.P 2 D.=X,X>.v s z %.oX:X'.= a x   X *   ",
"  ; , o _ U : ! *X:X$X.X|.@X,X>X;.; h E E   t : _.:X;.  1X1X1X1X  N.:XY.+ 1XO O.U g < S.,X@X@X}.OX:X,XOXz > _ Q o , *   ",
"  y g O _ U U > O $.U.|..X{.C.t 2 l U ( U   = , `.:X&.  1X1X1X1X  N.:XI.+ 1Xo o.( ( h O s S.{..X}.U.o.o i U ` Y * h ; 1X",
"1X1Xo   ( X.U U c : O s a w   L U U R @.u O 1X, _.=X$.  1X1X1X1X  N.:XI.+ 1X  [ =.U U R L   w d i O t P U U =.g   + 1X1X",
"1X1X1X1X: ( ` _ j ; s [..XZ.X p L ( X.Y o 1X1X, Q.=X%.  1X1X1X1X  N.;XE.  1X  : _ X.U j p   G. X!.t a L X._ Y * 1X1X1X1X",
"1X1X1X1X1X1XX   # 4 s .X%XA.. M .     1X1X1X1X, J.W.{   1X1X1X1X  &.W.C.+ 1X1X1X      # B   G.*X{.i 4 .   o 1X1X1X1X1X1X",
"1X1X1X1X1X1X1X1X. # : +.&.I @ 6   1X1X1X1X1X1XO S z 8   1X1X1X1X  r F S   1X1X1X1X1XO . M . ! #.| O @ o 1X1X1X1X1X1X1X1X",
"1X1X1X1X1X1X1X1X1X1X& H K S X 1X1X1X1X1X1X1X1X8 n.(.y.  1X1X1X1X  g.).x.. 1X1X1X1X1X1X1X1X  G H G $ 1X1X1X1X1X1X1X1X1X1X",
"1X1X1X1X1X1X1X1X1X1X1X1X1X1X1X1X1X1X1X1X1X1X1X9 m.(.y.  1X1X1X1X  l.).x.. 1X1X1X1X1X1X1X1X1X1X1X1X1X1X1X1X1X1X1X1X1X1X1X",
"1X1X1X1X1X1X1X1X1X1X1X1X1X1X1X1X1X1X1X1X1X1X1X9 m.(.y.  1X1X1X1X  g.(.x.. 1X1X1X1X1X1X1X1X1X1X1X1X1X1X1X1X1X1X1X1X1X1X1X",
"1X1X1X1X1X1X1X1X1X1X1X1X1X1X1X1X1X1X1X1X1X1X1X9 n.).y.  1X1X1X1X  i.).b.. 1X1X1X1X1X1X1X1X1X1X1X1X1X1X1X1X1X1X1X1X1X1X1X",
"1X1X1X1X1X1X1X1X1X1X1X1X1X1X1X1X1X1X1X1X1X1X1X9 n.(.y.  1X1X1X1X+ i.).b.. 1X1X1X1X1X1X1X1X1X1X1X1X1X1X1X1X1X1X1X1X1X1X1X",
"1X1X1X1X1X1X1X1X1X1X1X1X1X1X1X1X1X1X1X1X1X1X1X$ J J e 1X1X1X1X1X1XS J G   1X1X1X1X1X1X1X1X1X1X1X1X1X1X1X1X1X1X1X1X1X1X1X"
};
