/* XPM */
static char *result[] = {
/* columns rows colors chars-per-pixel */
"60 60 208 2 ",
"   c #030304",
".  c #0B0303",
"X  c #060608",
"o  c #07090A",
"O  c #0A0B0C",
"+  c #08070A",
"@  c #120203",
"#  c #1C0304",
"$  c #170B0A",
"%  c #19120D",
"&  c #0E0E11",
"*  c #070D10",
"=  c #0E1113",
"-  c #0E181D",
";  c #121214",
":  c #15161A",
">  c #18171D",
",  c #17181B",
"<  c #1B1C1D",
"1  c #1F1915",
"2  c #100F12",
"3  c #230203",
"4  c #2B0203",
"5  c #280C0D",
"6  c #340103",
"7  c #3C0102",
"8  c #380A0B",
"9  c #281609",
"0  c #341E0A",
"q  c #291B16",
"w  c #301D1E",
"e  c #27211A",
"r  c #392C1B",
"t  c #1C1D22",
"y  c #1F2024",
"u  c #1F2129",
"i  c #222324",
"p  c #23252B",
"a  c #27292C",
"s  c #2B2C2D",
"d  c #262827",
"f  c #272930",
"g  c #2B2D34",
"h  c #2D2F38",
"j  c #2E3034",
"k  c #2F313A",
"l  c #323435",
"z  c #32353C",
"x  c #35383C",
"c  c #3A3D3D",
"v  c #3D3834",
"b  c #38302B",
"n  c #430102",
"m  c #4B0203",
"M  c #4B0B0C",
"N  c #430B0B",
"B  c #5B0103",
"V  c #530204",
"C  c #630203",
"Z  c #690205",
"A  c #7A0206",
"S  c #482B12",
"D  c #4D331A",
"F  c #493924",
"G  c #553D24",
"H  c #623B15",
"J  c #3D413E",
"K  c #514232",
"L  c #784C24",
"P  c #775C35",
"I  c #6F4014",
"U  c #343641",
"Y  c #363842",
"T  c #3A3C44",
"R  c #3B3D4A",
"E  c #3E4141",
"W  c #3E414C",
"Q  c #3F4351",
"!  c #434646",
"~  c #41444D",
"^  c #464A4B",
"/  c #4A4C4D",
"(  c #4A4944",
")  c #4B514E",
"_  c #424552",
"`  c #454954",
"'  c #474959",
"]  c #494D5B",
"[  c #4B4F51",
"{  c #4E5252",
"}  c #4D515C",
"|  c #525556",
" . c #51555D",
".. c #565A5B",
"X. c #5A5D5D",
"o. c #585758",
"O. c #524D46",
"+. c #7C6A56",
"@. c #55596A",
"#. c #595D71",
"$. c #5F6363",
"%. c #616564",
"&. c #646768",
"*. c #65696A",
"=. c #666B6A",
"-. c #65697A",
";. c #6D7273",
":. c #757A7B",
">. c #797D7E",
",. c #707476",
"<. c #850102",
"1. c #8B0103",
"2. c #9B0508",
"3. c #8C1318",
"4. c #A30204",
"5. c #A90204",
"6. c #B40408",
"7. c #AE1014",
"8. c #C70307",
"9. c #D50103",
"0. c #D90306",
"q. c #EA0105",
"w. c #E30407",
"e. c #F40205",
"r. c #FB0509",
"t. c #FB1519",
"y. c #F31317",
"u. c #FB1E24",
"i. c #DF2227",
"p. c #FB3034",
"a. c #935D29",
"s. c #97612B",
"d. c #B57538",
"f. c #8B511B",
"g. c #FD3E42",
"h. c #B77E41",
"j. c #FD4245",
"k. c #FE5C62",
"l. c #79807E",
"z. c #C3803C",
"x. c #B7854B",
"c. c #E5984B",
"v. c #FD9C47",
"b. c #E39B53",
"n. c #FCA656",
"m. c #FCAE61",
"M. c #FDB364",
"N. c #E8AC63",
"B. c #6C7086",
"V. c #7D8383",
"C. c #848B8B",
"Z. c #838889",
"A. c #878E90",
"S. c #8C9292",
"D. c #8E9995",
"F. c #8E9699",
"G. c #929696",
"H. c #949B9B",
"J. c #949A9A",
"K. c #88908E",
"L. c #97A19E",
"P. c #999FA0",
"I. c #9BA3A3",
"U. c #9DA8A5",
"Y. c #9EA7A9",
"T. c #A3ACAA",
"R. c #A3A8A8",
"E. c #A6AEB1",
"W. c #A9AFB1",
"Q. c #AAB2B4",
"!. c #ABB4B6",
"~. c #B4BCBD",
"^. c #B7BBBC",
"/. c #B8C0BF",
"(. c #FECE99",
"). c #F8C893",
"_. c #FED4A9",
"`. c #FED8B2",
"'. c #EAC8A2",
"]. c #B7BFC2",
"[. c #BBC3C4",
"{. c #BEC5C8",
"}. c #BFCAC9",
"|. c #C0C6C6",
" X c #C3CACB",
".X c #CACDCD",
"XX c #CACFD1",
"oX c #C5CED0",
"OX c #C7D1D1",
"+X c #CCD4D5",
"@X c #CDD6D8",
"#X c #CFD9D9",
"$X c #D2DBDD",
"%X c #DADADB",
"&X c #D7E0DF",
"*X c #D6DEE0",
"=X c #D8DFE1",
"-X c #D7E0E1",
";X c #DAE3E4",
":X c #DDE6E8",
">X c #E2EAEB",
",X c #E9EDEF",
"<X c #EAEFF1",
"1X c #E6EEF0",
"2X c #ECF2F3",
"3X c #EDF6F8",
"4X c #F0F7F9",
"5X c None",
/* pixels */
"5X5X5X5X5X5X5X5X5X5Xo       X               5X5X5X5X5X5X5X5X5X5X5X5X5X5X5X5X5X5X5X5X                        5X5X5X5X5X5X",
"5X5X5X5X5X5X5X5X5X5X: p O O Y X O t U X O t ; 5X5X5X5X5X5X- = - - = = - 5X5X5X5X5XO : X   x t o X ~ ; O O i X 5X5X5X5X5X",
"5X5X5X5X5X5X5X5X5XX f t   & U =   p z o + t t   5X5X5X5X& = & = = 2 O = O o 5X5X5X: t X o z y X o x > + ; p & 5X5X5X5X5X",
"5X5X5X5X5X5X5X5X5X  O O o + O O + O + O o o o   5X5X5X; h h g h g k l h p O 5X5Xo X X o o o o o o O O o O o   * 5X5X5X5X",
"5X5X5X5X5X5X5X5X& R ' ] ' Q U U R _ _ ] } R p : X & X + o O o o + O + X o   o O O y g _ _ ' _ W T k T R _ ~ ~ > 5X5X5X5X",
"5X5X5X5X5X5X5X5XU #.R _ p O     & f R R R g f t   p _ ] ' ' ] ' ` _ [ ` ] _ T o O f f x Y T x : X   X ; z T ^ @.  5X5X5X",
"5X5X5X5X5X5X5Xo U R R t ; :.G.d ..& t R R h p   > p p p p a p p d p p p p f a y X : f z T Y & a *.i J.E O j T W O 5X5X5X",
"5X5X5X5X5X5X5X  z R s d {.$X/.x E.A.; g R h : / *.*.&.=.&.&.*.i o.&.&.&.=.*.=.%.$.  a x R O ^ T.I.s -X-XV.O k T o 5X5X5X",
"5X5X5X5X5X5XX # p ~ X  X4XOX%.1 Y.!.F.O U f O <X=X=X*X*X*X*X$XT .X>X:X:X:X:X:X:X@X< t U f s I.U.;.; H.,X2X..< T .   5X5X",
"5X5X5X5X5X5X. 6 2 t s <X>Xb 3 4 ; H.Q.p f u q <X$X$X*X*X@X@X+Xc |.$X$X$X#X$X$X$X@XE ; Y ; :.T.*.@ 6 . A.2X~.; < 3 @ 5X5X",
"5X5X5X5X5X% ; f s ; ;.*XB.M i.y.C @.E.{ p u s :X$X*X@X@X%X$X@XE |.$X$X$X$X$X#X#X@X{ ; x   J.I.5 6.y.7.q $X+Xj y d i % O ",
"5X5X5X5X5XG ( OX$X[ H.*X^ 7.k.u.9.q {.,.t u l ;X$X@X*X*X$X$X+XT {.$X$X$X$X#X$X$X@X..= k   U.=.B e.g.p.m L.$X! K..X^.P q ",
"5X5X5X5X5XK O.-X>X| P.=X! 6.t.r.8.5 [.;.< t x ;X*X$X*X$X$X$X+Xc {.$X#X#X&X#X$X#X@X..= k   U.$.B e.t.r.V J.$X! G.:X XP 0 ",
"5X5X5X5X5Xr b Z.C.c S.;X@.A r.e.5.v ~.$.< t ! -X@X$X$X*X$X$X+XE }.#X$X$X#X$X$X#X@X..= z   L.l.n w.e.0.4 [.$XJ $.V.l.K % ",
"5X5X5X5X5XX . @   . [ 4X[.$ A 1.$ V.E.z p t ~ *X$X$X$X$X+X+XoXT [.OXOX@X#X*X#X$X#X@.; x O C.!.l m 2.6 o.3X+Xe o .     5X",
"5X5X5X5X5X5X# Z u Q   =X4XW.c & B.E.I.O h t ! *X*X$X$X+XC.| | < ..| $.E.+X#X$X#X+X..; z i J R.L.^ o *.%X3X>., U 6 . 5X5X",
"5X5X5X5X5X5X5X. f _ t ^ $X$X^.x !.R.d i E t ^ -X$X$X$X+Xg o O             V.$X$X+X..= Y T o =.W.R.s &X$XT.O j Y     5X5X",
"5X5X5X5X5X5X5X  z R U & %.[.^.x H./   ; > 2 x ,X$X$X$X+Xp O &   a a a p i < Q.#X}./ o : : X ; ;.L.s +XI.s t x E o 5X5X5X",
"5X5X5X5X5X5X5X  R _ R z ; < h O : X t *.%.O o R.@X@X X{.d O   s W x x Y g : s I.V.& X l ! l + & < & s 2 i T E } O 5X5X5X",
"5X5X5X5X5X5X5X5Xf B.' _ R x f p U t ! >X-Xi > o d s i i + +   O O O O = a a ; ; O < O 5X5X%.: R j d h Y W W @.]   5X5X5X",
"5X5X5X5X5X5X5X5X  t R R Q _ ' Q ~ u l Z.C.> : X     t t x /.T.T.T.T.C.O < y <     , o / 5X( : W E W E W R R p o 5X5X5X5X",
"5X5X5X5X5X5X5X5X5X*                                 f p ( ;X$X$X$X#XI.O > > >                                 5X5X5X5X5X",
"5X5X5X5X5X5X5X5X5X5X5X- - - = X : t   *.&.$.$.$.$., f p / -X$X$X-X$XU.& X X X   X   4 B <.1.<.Z @ 5X5X5X5X5X5X5X5X5X5X5X",
"5X9 9 9 9 9 % ; > > > > , > & t z U o !.].].].].!.s f i ^ %XL.| l $.H.V.=.=.=.; ;   B 4.q.e.q.m . 5X5X5X5X5X5X5X5X5X5X5X",
"F N.M.M.M.M.P V.~.].].].].].Z.t ' ' O OX-X%X-X&X&Xc h f ^ { o v ! s ; L.$X$X}.d t t @ C 5.e.q.4 A 5X5X5X5X5X5X5X5X5X5X5X",
"F '._._.`._.+.G.<X1X1X<X>X1XI.t -.B.O =X2X4X2X2X2XJ k h 2 l W.1X$X.X>.<  X$X}.d ; p ; . # 4.0.7 1.5X5X5X5X5X5X5X5X5X5X5X",
"q a.a.s.s.a.S ^ &.*.*.;.,.&.^ t R R + {.+XOXOXOXOXl z z o [.2XOXG.Z.Z.l c R.[.i ; : 2 @ n V 9.7 1.5X5X5X5X5X5X5X5X5X5X5X",
"5X                            & f f X C.C.C.K.C.A.d k p  .#XA.q 0 S S S S % o.; ; ; $ M 3 n 9.7 <.5X5X5X5X5X5X5X5X5X5X5X",
"5X5X5X5X5X5X5X5X5X5X5X5X5X5X5X  X &   t < < < < t o R p S.^.1 f.c.m.m.M.n.H     : ; M u.Z n 0.7 <.5X5X5X5X5X5X5X5X5X5X5X",
"5X5X5X5X5X5X5X5X5X5X5X5X5X5X5X5X5X5X5X5X5X5XX o &   ' t XX=.G (._.)._.(._.L * t t & M r.C 7 9.7 <.5X5X5X5X5X5X5X5X5X5X5X",
"5X5X5X5X5X5X5X5X5X5X5X5X5X5X5X5X5X            + * X _ t  X*.G ).(.).(.(.(.L O ; t ; M r.C n 9.7 1.5X5X5X5X5X5X5X5X5X5X5X",
"5X5X5X5X5X5X5X5X5X5X5X5X5X5X5X  O :   l l l l z j & R f V.[.q I z.b.b.b.c.D     ; : 8 y.C 7 9.7 1.5X5X5X5X5X5X5X5X5X5X5X",
"5X                            = f f o G.F.D.G.G.D.d k a ^ $XL.s 9 0 0 0 0 1 =.< = : @ 8 # n 9.7 <.5X5X5X5X5X5X5X5X5X5X5X",
"r d.d.d.x.x.G o.V.V.Z.l.l.V...< R Q O  X@X@X#X#X@Xx k k   ~.3X&XW.I.H.l / ~.}.e ; > ; @ 7 C 9.7 1.5X5X5X5X5X5X5X5X5X5X5X",
"F '.`.`.`.`.+.G.2X2X2X<X2X<XR.t -.-.o =X2X2X2X2X2XT k k : d G.;X+X{.=.d OX$X Xi : u = . 3 8.0.6 <.5X5X5X5X5X5X5X5X5X5X5X",
"r c.n.v.v.v.L :.E.E.T.W.E.E.>.< _ _ O +X*X$X&X&X%Xx h f ( ;.+ s j < q Q.$X#X Xi y < # <.9.e.q.4 B 5X5X5X5X5X5X5X5X5X5X5X",
"5X. . . + . X X X X X X X X X > U z o E.!.!.Q.Q.E.s a p ^ -X^.=.| :.U.$.) { { ; O   V 4.q.e.q.<.. 5X5X5X5X5X5X5X5X5X5X5X",
"5X5X5X5X5X5X5X5X5X5X5X5X5X5X    = :   { ) ) ^ ) / : f p / *X$X$X$X#XR.& O o +   X   . 4 7 n 7 6 . 5X5X5X5X5X5X5X5X5X5X5X",
"5X5X5X5X5X5X5X5X5X  X + O O & O O X o = = X         f p ^ >X$X$X*X$XU.O , , ,         & = O   o O O O O O o   5X5X5X5X5X",
"5X5X5X5X5X5X5X5XO _ @.#.@.@.#.#.#.g ^ }.}.y u =     t : s J.V.l.V.V.&.o t p y   . d = D.[.l.e @. .[  .} @. .} < 5X5X5X5X",
"5X5X5X5X5X5X5X  U B.` W Y f t t h > ! :X$Xi O q X.O.l l o     ; ; = & = a a O d y = & L.;XZ.; i = O & y x T } @.X 5X5X5X",
"5X5X5X5X5X5X5X  R _ W z = s ! : i X & j s X ; %X:X$X+X.Xd O X a ` T T T j = J /.U.y   y s ,   d ..y C.J = j T ` & 5X5X5X",
"5X5X5X5X5X5X5X  h ~ U % >.OX[.x Y...X p z t T >X$X$X$X+Xd & O   p t y y > s /.#XoX..O d a o J L.U.s -X+X;.= z T X 5X5X5X",
"5X5X5X5X5X5Xo 3 p _ : @.>X$X^.x !.W.x y R t ^ *X$X$X#XOXJ X           & ; H.$X$X#X..= x l ; K.T.H.e #X>X%Xs i Y .   5X5X",
"5X5X5X5X5X5X4 <.t _ + >X4XH.t o ;.!.Q.= z y ^ -X$X$X$X$XT.C.C.l S.C.S./.-X$X$X$X#X..= x < =.U.l.O 3 2 Q.3XW.; d 3 . 5X5X",
"5X5X5X5X5X          | =XT.3 4.6.4 B.E.J p t ! -X$X&X$X$X$X&X+XJ [.$X$X$X$X$X$X$X+X..; x   D.T.% 5.t.4.e &X+Xs ; > , $   ",
"5X5X5X5X5XD v P.P.! F.=Xo.3.k.t.6.b ].*.< y T ;X*X$X$X$X$X$X#XJ |.$X$X$X$X$X#X$X+X..2 l   U.=.B e.j.p.m L.&X! S.OX/.P q ",
"5X5X5X5X5XG ( *X:X^ P.=X! 7.j.t.9.5 |.,.> t l ;X$X$X$X$X$X$X+XJ |.$X$X$X%X$X$X$X#X..= j   R.X.C r.t.t.V K.&X! J.:X.XP q ",
"5X5X5X5X5XF K {.|./ J.;X[ 2.r.r.6.w ].;.t t j ;X$X$X$X$X$X$X+XJ |.$X$X$X$X$X$X$X#Xo.= x   L.l.n w.e.0.6 ^.$XJ =.D.V.K 9 ",
"5X5X5X5X5X2 O t i = *.2XA.7 8.9.V =.E./ p p d >X$X$X$X$X$X$X+XJ |.$X$X$X$X&X$X$X#X) ; x o K.W.b B 4.m / 3X+Xi O . .   5X",
"5X5X5X5X5X5X. 6 t k t 4X1X! @ 3 i P.!.t k p , 2X$X$X$X$X$X$XOXx |.%X$X$X$X$X#X$XOXx : U t ) T.D.y   l +X3XG.: l 6 @ 5X5X",
"5X5X5X5X5X5X5X. f Q . ~.3X+X:.t E.W.C.* Y g O =X<X>X>X>X>X>X>X! XX2X2X2X2X<X<X<X-X& y Y T & Z.T.T.d &X;X+Xi a T     5X5X",
"5X5X5X5X5X5X5XX Y R h > !.$X~.z !.V.O h Q k > 1 y < t < q < i O 1 y < < < y < e t X f z Q y > V.T.s -X~.s > T W O 5X5X5X",
"5X5X5X5X5X5X5X5XR Q R u o | :.i T + f R R g f X > T ` ^ Q W _ ` Q ~ ~ W W ` W d o t f T E T p   < O l X t T T ] o 5X5X5X",
"5X5X5X5X5X5X5X5Xf B.] } l ; o O > x R R _ h f p   X : y y t > < < y t t , > =   = h j W W W R R i : t z W ~ #.' X 5X5X5X",
"5X5X5X5X5X5X5X5X& t U _ T h f f z U U U U h : O   5X  o = = = = ; = = ; = o     X ; p k z z U U U z z z z k f O 5X5X5X5X",
"5X5X5X5X5X5X5X5X5XX & O   X & o X O O o X & O   5X5X5XO h j g j j j z k p X 5X5X  O O o X O O   X * + X o & X 5X5X5X5X5X",
"5X5X5X5X5X5X5X5X5XX p p X = ] & X p ~ o X p y   5X5X5X    X X X X   X X   5X5X5X5X; t X X R p   O ~ t + : f o 5X5X5X5X5X",
"5X5X5X5X5X5X5X5X5X5XO : O O R   & : p + o : o 5X5X5X5X5X5X5X5X5X5X5X5X5X5X5X5X5X5X  O O   a : o X h O O O ;   5X5X5X5X5X",
"5X5X5X5X5X5X5X5X5X5X5XX                     5X5X5X5X5X5X5X5X5X5X5X5X5X5X5X5X5X5X5X5X                        5X5X5X5X5X5X"
};
