/* XPM */
static char *result[] = {
/* columns rows colors chars-per-pixel */
"60 60 207 2 ",
"   c #030304",
".  c #0B0304",
"X  c #060709",
"o  c #06090A",
"O  c #0A0B0C",
"+  c #090708",
"@  c #1D0203",
"#  c #150807",
"$  c #0F100F",
"%  c #1B130B",
"&  c #0D0E11",
"*  c #0E1012",
"=  c #121214",
"-  c #15161A",
";  c #17181B",
":  c #1A1B1D",
">  c #18171B",
",  c #250203",
"<  c #2C0203",
"1  c #200C0D",
"2  c #320203",
"3  c #3C0305",
"4  c #28190B",
"5  c #261D16",
"6  c #361D0A",
"7  c #1E211F",
"8  c #2B201A",
"9  c #3A2A18",
"0  c #3B240D",
"q  c #1C1D22",
"w  c #1F2025",
"e  c #1F2128",
"r  c #222325",
"t  c #23252A",
"y  c #26292D",
"u  c #2A2C2C",
"i  c #292828",
"p  c #332A2B",
"a  c #2D302F",
"s  c #272931",
"d  c #2A2C33",
"f  c #2C2F38",
"g  c #262730",
"h  c #2E3132",
"j  c #2E313A",
"k  c #323233",
"l  c #32343B",
"z  c #36393B",
"x  c #3A3C3D",
"c  c #333835",
"v  c #302F31",
"b  c #430103",
"n  c #4D0102",
"m  c #470B0C",
"M  c #550204",
"N  c #640102",
"B  c #6A0103",
"V  c #680B0D",
"C  c #7C0103",
"Z  c #750204",
"A  c #680E11",
"S  c #583413",
"D  c #4B2F13",
"F  c #633C14",
"G  c #6A3F17",
"H  c #453625",
"J  c #443A30",
"K  c #71441C",
"L  c #5C432A",
"P  c #564732",
"I  c #60452A",
"U  c #7E4A20",
"Y  c #343641",
"T  c #363942",
"R  c #3A3C44",
"E  c #3B3D49",
"W  c #3E4242",
"Q  c #3E414C",
"!  c #3F4451",
"~  c #434545",
"^  c #41444D",
"/  c #46494A",
"(  c #494C4C",
")  c #474848",
"_  c #434654",
"`  c #464A54",
"'  c #474A59",
"]  c #4A4D5B",
"[  c #494C56",
"{  c #4D5151",
"}  c #4D515D",
"|  c #525555",
" . c #565B5B",
".. c #5A5D5D",
"X. c #555759",
"o. c #5C615F",
"O. c #4C4F61",
"+. c #4E5162",
"@. c #525565",
"#. c #575B66",
"$. c #5D6162",
"%. c #5D6174",
"&. c #616465",
"*. c #656A6A",
"=. c #696D6D",
"-. c #636767",
";. c #6B736F",
":. c #6A6F71",
">. c #62657A",
",. c #6D7273",
"<. c #767B7C",
"1. c #747878",
"2. c #880204",
"3. c #9B0204",
"4. c #960002",
"5. c #901417",
"6. c #AB0205",
"7. c #A50104",
"8. c #B70206",
"9. c #A40E11",
"0. c #AB1517",
"q. c #D90408",
"w. c #CA0204",
"e. c #E90306",
"r. c #F50204",
"t. c #FA0205",
"y. c #F8070B",
"u. c #FC0C11",
"i. c #ED1619",
"p. c #F91217",
"a. c #EE1F24",
"s. c #FE2B2E",
"d. c #FC363B",
"f. c #DD272C",
"g. c #8A5426",
"h. c #926736",
"j. c #AB6326",
"k. c #A56B34",
"l. c #8F6E41",
"z. c #FD484D",
"x. c #FE6267",
"c. c #A48360",
"v. c #DB9C5B",
"b. c #E49343",
"n. c #D9A366",
"m. c #FEBA6D",
"M. c #FEBF79",
"N. c #FFC17B",
"B. c #757A84",
"V. c #6A6D83",
"C. c #7E8383",
"Z. c #858A8A",
"A. c #888D8D",
"S. c #818787",
"D. c #868E92",
"F. c #8D9292",
"G. c #8E9797",
"H. c #949C9D",
"J. c #9A9E9E",
"K. c #919697",
"L. c #89918E",
"P. c #98A49E",
"I. c #999FA0",
"U. c #9DA3A4",
"Y. c #9DA7A6",
"T. c #A3ACAC",
"R. c #A3A8A8",
"E. c #A5AEB1",
"W. c #A9AFB1",
"Q. c #ABB3B3",
"!. c #ACB5B7",
"~. c #B3BBBB",
"^. c #B4BAB9",
"/. c #A7B2AF",
"(. c #FEC586",
"). c #FDCA95",
"_. c #FBCA96",
"`. c #FDD4AA",
"'. c #FEDCB8",
"]. c #B8BFC1",
"[. c #BBC3C5",
"{. c #BCC5C7",
"}. c #C3CCCC",
"|. c #C8CECF",
" X c #C5CFD0",
".X c #C8CED0",
"XX c #C6D1D1",
"oX c #CBD3D4",
"OX c #CED6D8",
"+X c #CED9D9",
"@X c #D1D4D5",
"#X c #D2DBDD",
"$X c #D3D8D9",
"%X c #C6D0CF",
"&X c #D5DEE0",
"*X c #D7E0E2",
"=X c #DBE3E4",
"-X c #DEE6E9",
";X c #E4EBEC",
":X c #E4E9EB",
">X c #E9EFF1",
",X c #E6EEF0",
"<X c #EBF2F3",
"1X c #EEF7F9",
"2X c #E7F1F2",
"3X c #F1F8FA",
"4X c None",
/* pixels */
"4X4X4X4X4X4X4X                    4X4X4X4X4X4X4X4X4X4X4X4X4X4X4X4X4X4X4X4X4X                    X 4X4X4X4X4X4X4X4X4X4X4X",
"4X4X4X4X4X4XX o o X w o O O q   O X   4X4X4X4X4X4X4X4X4X4X4X4X4X4X4X4X4X4X  = X O - - X   g & O X O 4X4X4X4X4X4X4X4X4X4X",
"4X4X4X4X4XX q - X O Q * X ; ! X X ; -   4X4X4X                  4X4X4X4X4X= u   X f d X X } ; X - g X 4X4X4X4X4X4X4X4X4X",
"4X4X4X4X4XX ; = o & q *   * q O o * -   4X4X  - t d t t t t t r O 4X4X4X  - - & O ; - X O q & X & ; X 4X4X4X4X4X4X4X4X4X",
"4X4X4X4X  & q q w w w w e e e e q q &   4X4XX : q q q w q : q q =   4X4X  O > e q q q t q q q r d q = & 4X4X4X4X4X4X4X4X",
"4X4X4X4Xq V.] ` [ Q j T ! ! ! ! ` Y d :                                 q s f ' O.' ' T - = r ^ @.%.V.d 4X4X4X4X4X4X4X4X",
"4X4X4X  ' _ T j *   * o * s W W E f s o - E ] ] [ ] ] { ] @.[ ] } ] R q   s d R E E = O t x h X g E ! _   4X4X4X4X4X4X4X",
"4X4X4X  E R j O *.{.;.C.;.= q Q R d -   X o + X o X + X o X o o X O X X   q f E R X R U.=.F.&XI.- f E @.X 4X4X4X4X4X4X4X",
"4X4XX   T l O F.=X#X=.F.Y.c.* Q T u . /.@XoX@X@X@X@X@X@X$ |.oX@XoXoXoX@X$X& t E q T E.E.&.<.$X;X].  R T   X 4X4X4X4X4X4X",
"4X4X  3 z t W ;X,XJ.> x P./.#.; R r + [.*X*X*X*X*X&X#X:X$ |.#X+X$X#X$X&X,Xp e Y & U.E.1.    X.,X1Xx s f , . 4X4X4X4X4X4X",
"4X    @ O & U.1XJ.% N b a /.G.o z w 7 %X+X#X*X#X#X#X#X#X$ %X#X#X#X#X#X#X-X( e s q Q.D.1 7.7.3 C.<XF.  & # . X 4X4X4X4X4X",
"X H W $.o.7 [.;Xp 3.r.e.n o./.= j ; u %X#X#X#X#X#X#X#X&X$ %X+X#X#X#X#X#X#X..: t x E.$.2.r.y.8.x &X}.r I.R.( H 4X4X4X4X4X",
". h.F.=XoXu %X|.2 e.p.t.2.( !.w h ; a XX#X#X+X*X#X#X+X*X$ XX#X#X#X#X#X#X#X&.: q / ~.~ 8.u.s.p.i oX$Xi #X,X-.I 4X4X4X4X4X",
"+ l.F.*X%Xu |.oX2 i.z.y.2.( /.8 f - a oX+X#X$X#X#X#X#X*X$ oX&X#X#X#X#X&X#X:.: e ~ W.X.4.u.x.f.j OXoXt ].}...L 4X4X4X4X4X",
"X 9 h ~ ) 7 [.&Xp 9.s.r.b =.T.$ h ; a XX#X#X#X#X+X$X+X#X$ %X#X#X#X&X#X*X#XB.q y t E.C., q.i.M $.&XI.  & & X . 4X4X4X4X4X",
"4X    , = O L.2XW.# M , x /.G.  T ; a oX+X#X#X#X|.^.^.%X$ ~.].~.$X#X#X#X#XS.; f & R.Q.&.  . W :X1X^ g q M b 4X4X4X4X4X4X",
"4X4X  @ l y i #X1X~.c o.Y.Y.~ : z ; a oX#X#X%X{ ~ ; X X   X   a }.+X#X#X+XS.q E q z Q.E.-.C.#X<X~.X ! d 2 @ 4X4X4X4X4X4X",
"4X4X4X  R l * 1.*X#X=.L.Y.,.$ a l - a }.#XOX,.o = $ * -   o O X }.#X#X#X$XS.; z Y X #.E.:.F.&X^.z q E T X O 4X4X4X4X4X4X",
"4X4X4Xo Q z j = | T. .;.o.$ + = = X * T.|.C.O u T R W _ y + $   |.*X&X#X<X) . - - O X k T ..&.q q E E ]   4X4X4X4X4X4X4X",
"4X4X4X4X] } T c > $ $ $ $ = ~ {.R.; O a  .$ w s w : q q t       X...1.U.X.O   T.|.*.= t - & - f E _ #.]   4X4X4X4X4X4X4X",
"4X4X4X4Xw %.} ` / ^ R Q ( s { OX~.7 t $   ; s y + ; w r r r a r   &     o r o [.+X<.q +.+.] ] ' O.O.B.g   4X4X4X4X4X4X4X",
"4X4X4X4XO O w e t t t r r = : z c O O     - > :   L.-X=X=X-X:XZ.q Y       O   W W u & t t g t e t e o X 4X4X4X4X4X4X4X4X",
"4X4X4X4X4X4X4XO 4X4X4X  .     .           O = O   C.#X#X#X+X#XZ.q j X w r r r r t + o X             4X4X4X4X4X4X4X4X4X4X",
"4X4X4X4X4X4X4X4X4X4X4X. C q.r.r.6.Z       : 7 7 i P.].L.H.@X*XZ.: h - L.P.U.Y.P.T.: d j q                             4X",
"4X4X4X4X4X4X4X4X4X4X4X, @ q.r.r.7.3 X y o ~.XX%X{.o.X & O = A.A.q j w {.&X&X#X*X&X: E E d k ,.,.:.=.,.,. .6 j.j.j.j.j.9 ",
"4X4X4X4X4X4X4X4X4X4X4XB 3 7.r.M , + w : o ~.+X&X$.a G.~.{.<.8 z t E r @X<X<X<X<X<X- @.>.R -.;X;X;X;X:X:XQ.J `.`.`.`.`.P ",
"4X4X4X4X4X4X4X4X4X4X4XB n 4.6., , $ 7 -   ~.+XH.7 P.[.{.,X1X!.O t E q }.=X=X=X*X-X- _ ] f ( T.T.T.T.T.Q.Z.9 v.n.n.v.v.H ",
"4X4X4X4X4X4X4X4X4X4X4XN n 4.2.. , + = = o L.W % % 8 5 8 W Q.&X-.q R > H.T.T.T.T.Q.> g f q O = = * - = = & X % % % 4 6 # ",
"4X4X4X4X4X4X4X4X4X4X4XB n 3.C , 0.m $ - X > 1 j.k.k.k.g.D 7 ~.T.- E = ]  . . . .$.O : : o   4X4X4X4X4X4X4X4X4X4X4X4X4X4X",
"4X4X4X4X4X4X4X4X4X4X4XN n 4.C < t.V O ; = o 0 (.(.(.N.(.m.G ) 2X- #.  X o             X 4X4X4X4X4X4X4X4X4X4X4X4X4X4X4X4X",
"4X4X4X4X4X4X4X4X4X4X4XN n 4.C , y.V O ; : = 9 '.'.'.`.'.`.c.v 3X- ] X * -   4X4X4X4X4X4X4X4X4X4X4X4X4X4X4X4X4X4X4X4X4X4X",
"4X4X4X4X4X4X4X4X4X4X4XB n 3.C < y.A & - o X 0 m.N.N.M.m.b.4 1.#X- @.                      4X4X4X4X4X4X4X4X4X4X4X4X4X4X4X",
"4X4X4X4X4X4X4X4X4X4X4XN n 3.C @ 5.3 & -   h % U g.g.g.K 6 ~ [.U.- Q = &.=.;.;.*.,.= w e *                   4X4X4X4X4X4X",
"4X4X4X4X4X4X4X4X4X4X4XN n 3.2.@ @ X - -   Q.L.h * ( `  .K.=X#Xx r R : W.[.[.[.[.{.; h l s ; l x R l c l u # S S S S S 4 ",
"4X4X4X4X4X4X4X4X4X4X4XB n 3.8., @ & r - X ~.#X{.7 Z.#X*X<X-X<.. t E r OX2X>X2X2X2X; @.%.T $.=X:X:X:X-X=XT.H _._._._.).P ",
"4X4X4X4X4X4X4X4X4X4X4XN 3 7.r.Z < . q q   ~.+X#XF.= { F.L.a $ -.t R r }.=X=X:X=X;X- +.%.l $.$XoX$XOXoXOXT.H _.).)._.).P ",
"4X4X4X4X4X4X4X4X4X4X4X, @ q.r.r.6.N   : X L.U.U.T.Z.c X $ | Q.Z.: j : Q.}.}.}.XXXX; Y T d q R W Q ^ W W z % F F F F K 4 ",
"4X4X4X4X4X4X4X4X4X4X4X. Z 8.w.w.2.N               Z.&X#X&X#X#XZ.; j = <.Z.A.D.D.G.- e e - o * * * o 4X4X4X4X4X4X4X4X4X4X",
"4X4X4X4X4X                                - ; ;   C.#X+X#X#X#XZ.q f X                   X o o o O o * 4X4X4X4X4X4X4X4X4X",
"4X4X4X4X  & q w e q e r r = - r i X O     - : : X C.}.}.}.}.oX<.- d       O   x W t & e e t t e t q & X 4X4X4X4X4X4X4X4X",
"4X4X4X4Xs $.` ^ _ R x R _ g c 4X4X= r o   = y y o - : : : - 8 - X & O $   q o [.&X<.q _ E E _ _ ' ' %.f 4X4X4X4X4X4X4X4X",
"4X4X4X  ' ` R l - = $ $ $ - u 1.-.$ o ( Z.u - y h j h l Y X o   I.Q.~.[.A.&   Z.Y.X.o * O - = ; Y E _ ]   4X4X4X4X4X4X4X",
"4X4X4X  Q T v = ..T.o.1.o.$ X O O o ; !.%X/.7 w l l c l * O $   }.&X#X&X,XX.X O &   > -.o.B.T.{ & T E '   4X4X4X4X4X4X4X",
"4X4X4X  R z - | #X#X=.L.T.&.o l l ; d  X#X#XC.X O O o X   $ *   {.$X$X$X#XS.- l f   1.T.=.F.&XoX) - E E   X 4X4X4X4X4X4X",
"4X4X  < l y u #X2XQ.c  .U.Y.( : T - h XX#X+X+XP.Z.W t u   i r {  XOX&X&X#XC.q z = -.E.R.W ( ].<X:XO Y g b , 4X4X4X4X4X4X",
"4X    < * O J.3XR.# M , c Q.G.  T ; h XX+X#X#X#XoX[.{.OX* [.}.{.#X&X&XOX#XC.- d = Q.U.r b n # ^.1X1.& & < , o 4X4X4X4X4X",
"  9 l { { 7 [.;Xu 3.r.e.m $.Y.= j ; h XX#X+X#X+X#X+X+X&X= oX#X+X&XOXOX&X&X<.q t h E.1.M e.y.4.[ :X^.= | | t 5 4X4X4X4X4X",
"+ h.Z.oX[.y  X$X< e.y.r.C { /.8 h ; h XX#X+X#X+X#X#X#X&X$ %X#X#X&X&X&XOX&X:.- q W E.| 3.y.u.q.v $XoXu }.OX&.L 4X4X4X4X4X",
"+ l.F.*X|.u |.|.3 i.z.u.2.( Q.r a ; h XX#X#X+X#X#X#X#X#X$ |.#X#XOX&XOX&X#X&.q e ) !.) 8.p.z.a.u oXoXu OX-X-.I 4X4X4X4X4X",
"  H z | | : [.=Xp 9.s.e.n =.T.$ j : y XX#X#X#X+X#X$X#X#X$ OX#X#X&XOX#X#X&X@.q g j E.,.M p.d.5./ &X!.= |  .i 5 4X4X4X4X4X",
"4X    . X X J.:XF.. C b 5 Q.I.  z w : XX#X+X#X+X#X#X$X$X$ XX#X#X&XOX&X#X&X~ q g - !.K.- M B @ U.;XB.X X . . O 4X4X4X4X4X",
"4X4X  < z r ( ,X;XC.- u G.T.%.= R e   {.=X*X=X=X=X*X=X:X= |.#X#XOX&XOX&X>Xg q Y & D.W.I.q t D.1X<Xr l d < @ 4X4X4X4X4X4X",
"4X4X4X  Y z O Z.;X#X=.L.Y.C.O l T d X S.U.Y.U.U.U.R.J.J.O I.U.U.I.I.I.I.R.& g T f = K.R.:.F.&X-X<.& E E   4X4X4X4X4X4X4X",
"4X4X4X  R T h o o.].=.C.*.& t E T y q   * ; : - - - - = - - - ; - - q - . ; d E E ; ; :.-.F.].[ O T E O.  4X4X4X4X4X4X4X",
"4X4X4X  [ ^ T d o   +   X r R T z d s O = E ` ] ` } ` ] ] O.+.' O.' E - o d d Y R E e     +   & Y Q ' '   4X4X4X4X4X4X4X",
"4X4X4X4Xw @.` ` ! l y j Q ' ' ] ` l t - X O O & O = O O & & & & & & O X - g Y O.+.] ' Q j s E ' O.] @.t 4X4X4X4X4X4X4X4X",
"4X4X4X4X4XX $ = = = = = = = = = = & O   4X4XX e s s s y s y y d ; & 4X4XX X & - & - & - = = = - = = X & 4X4X4X4X4X4X4X4X",
"4X4X4X4X4Xo q - O = g = X - t & X - q X 4X4XO & q : q ; q q q ; O 4X4X4X4X; q & & q q o & s =   - e o 4X4X4X4X4X4X4X4X4X",
"4X4X4X4X4Xo w - X O _ & X > _     q - 4X4X4X4X& o o X o o   o o 4X4X4X4X4X= f X X f f     _ - O - s X 4X4X4X4X4X4X4X4X4X",
"4X4X4X4X4X4XX     X -   X X -   X     4X4X4X4X4X4X4X4X4X4X4X4X4X4X4X4X4X4XX X   X & & X   = X X X   4X4X4X4X4X4X4X4X4X4X"
};
