/* XPM */
static char *result[] = {
/* columns rows colors chars-per-pixel */
"60 60 175 2 ",
"   c #1C1C1C",
".  c #240C0A",
"X  c #2C0E0D",
"o  c #300F0F",
"O  c #27100F",
"+  c #2B100D",
"@  c #34120E",
"#  c #251313",
"$  c #2C1615",
"%  c #241817",
"&  c #2D1816",
"*  c #241D1D",
"=  c #2C1A1A",
"-  c #331413",
";  c #3B1513",
":  c #341917",
">  c #3B1916",
",  c #351B1A",
"<  c #3D1C1A",
"1  c #2B201F",
"2  c #262626",
"3  c #2F2827",
"4  c #2A2929",
"5  c #352626",
"6  c #3D2422",
"7  c #372826",
"8  c #352E2D",
"9  c #392E2D",
"0  c #39302F",
"q  c #363535",
"w  c #393333",
"e  c #3E3D3D",
"r  c #431716",
"t  c #421916",
"y  c #4A1D16",
"u  c #431D1B",
"i  c #4A1E1B",
"p  c #511E1B",
"a  c #46211E",
"s  c #4C221D",
"d  c #53231E",
"f  c #5B251E",
"g  c #5C281F",
"h  c #65271E",
"j  c #65291E",
"k  c #692A1E",
"l  c #712C1F",
"z  c #432321",
"x  c #4D2321",
"c  c #412827",
"v  c #4A2D2B",
"b  c #542421",
"n  c #5B2623",
"m  c #552923",
"M  c #5C2924",
"N  c #552D2B",
"B  c #5D2B28",
"V  c #55302E",
"C  c #5C342D",
"Z  c #403635",
"A  c #413B3B",
"S  c #543B3A",
"D  c #5C3F3C",
"F  c #612623",
"G  c #642B25",
"H  c #6A2D25",
"J  c #642C29",
"K  c #6B2E2A",
"L  c #722E23",
"P  c #792E22",
"I  c #722E2B",
"U  c #7E2F2C",
"Y  c #663026",
"T  c #6B3127",
"R  c #653129",
"E  c #6C322B",
"W  c #6C3A2E",
"Q  c #733226",
"!  c #7A3326",
"~  c #74322D",
"^  c #7A332D",
"/  c #75392E",
"(  c #7B392E",
")  c #643431",
"_  c #6E3431",
"`  c #753431",
"'  c #7C3531",
"]  c #743A34",
"[  c #7D3A33",
"{  c #743C3A",
"}  c #58403D",
"|  c #7F4034",
" . c #754639",
".. c #7B493A",
"X. c #424242",
"o. c #4C4C4C",
"O. c #5D4544",
"+. c #534948",
"@. c #545454",
"#. c #595555",
"$. c #5B5B5B",
"%. c #6D4341",
"&. c #674C4B",
"*. c #754140",
"=. c #714845",
"-. c #75514F",
";. c #665D5C",
":. c #695C5C",
">. c #775550",
",. c #7A5452",
"<. c #646464",
"1. c #6C6C6C",
"2. c #796564",
"3. c #747474",
"4. c #787878",
"5. c #802D29",
"6. c #833527",
"7. c #82362A",
"8. c #853A2D",
"9. c #893B2D",
"0. c #913C2E",
"q. c #823632",
"w. c #853934",
"e. c #8B3C35",
"r. c #863D39",
"t. c #8C3D39",
"y. c #923E33",
"u. c #923E3A",
"i. c #844132",
"p. c #8D4234",
"a. c #874639",
"s. c #8C413B",
"d. c #804C3B",
"f. c #8B4B3C",
"g. c #934235",
"h. c #9B4335",
"j. c #944836",
"k. c #9A4837",
"l. c #94423C",
"z. c #9B443B",
"x. c #95493B",
"c. c #9C4A3C",
"v. c #9F513F",
"b. c #A14536",
"n. c #A24639",
"m. c #A34A3C",
"M. c #A94D3D",
"N. c #A1513E",
"B. c #964540",
"V. c #9B4641",
"C. c #914843",
"Z. c #9C4B43",
"A. c #975242",
"S. c #9E5443",
"D. c #825653",
"F. c #855A55",
"G. c #845A58",
"H. c #8A5D59",
"J. c #A14741",
"K. c #A34B43",
"L. c #A94E42",
"P. c #A74E48",
"I. c #AB4F49",
"U. c #A35242",
"Y. c #AD5445",
"T. c #A85944",
"R. c #AC524B",
"E. c #B35544",
"W. c #B65947",
"Q. c #B2554A",
"!. c #B35948",
"~. c #B95B4C",
"^. c #B25C50",
"/. c #BE604C",
"(. c #C0614E",
/* pixels */
"2 2 2 2 2 2 4 4 4 2 4 4 4 4 4 2 2 2 4 2 4 4 2 2 4 2 2 4 2 2 4 4 2 2 2 2 2 2 4 4 2 2 2 2 2 2 2 2 2 2 4 2 2 2 2 2 2 2 4   ",
"e e e e e e e e e } e e e e e e e X.X.q X.A X.X.e X.X.e X.e e e e X.X.X.X.X.X.q e e e e X.A X.X.A X.e A } e e e e e X.4 ",
"X.X.X.o.A 8 w 8 9 0 8 8 q 0 8 8 9 8 0 3 0 0 8 8 8 8 8 8 9 8 8 0 9 8 8 8 0 8 8 5 8 8 w w 8 8 8 8 0 8 8 9 w 8 e X.X.X.X.4 ",
"q q 8 4 c y . + . @ X X - + y u i i t t d . i i t ; ; t y t i i r r r i ; r u r r i i f $ d d i x i u p > #   4 4 4 q   ",
"o.o.o.o.S f X > ; t > r t i M G M n n d G - J F K b d n G d F F M n n f t s M b M F F L u G n K ` ~ G f J > * o.X.o.o.8 ",
"o.o.o.@.D j > y d d d d f i H ~ K K G n E > J H ~ E G H G d H ~ / E E ( d H H T K K K ( u H ~ ~ ] ^ I / E > 1 o.X.o.o.4 ",
"@.$.$.$.D y > f f g d s s t d m n b f m F < d d d m d d s s d m Y B Y E s R n M n m d g : m d d M M M d b < 2 #.@.$.$.q ",
"o.<.6 R N b J ` R s n G J f b J n s ~ J E M M b b u n M M b M J b < a s a x > > > n B M s b b u : s M J Y M _ V 5 e o.e ",
"X.<.+ n E I ` [ ` u M I ~ G J E H x [ ~ ' ^ J M M B I ` K I ~ [ _ i d d p F i i u G E E J E K b u G J G K K ~ d # q X.q ",
"o.<.@ H ^ ! ^ ~ ~ d K ' ^ [ I w.q.M l.i.w.^ K H I M g.x.^ w.e.q.E b b d n b i d x I E ! K ^ ' H d w.w.' I ' ^ M $ e X.q ",
"o.1.@ n G Y R f Y s G R H E M Y Y m E / W G F n G b ] ] T R / H R d f n g d d d s G F G n G T M s T E W n Y H b # e X.q ",
"+.1.i U q.e.M I t.` l.Z.c.T ' q.` w.V.l.c.m t.q.I w.l.K.8.E ' ~ ' q.e.e.H K ~ ' ' ~ ` g.> q.u.r.x.t.e.i.[ ' q.' : X.o.e ",
"@.1.i 5.t.g.J ' w.l.B.B.V.H w.' K I w.t.z.< r.` I l.l.l.S.Z.t.Z.w.w.u.! G K K ~ ~ q.^ q.u e.t.w.' ` ^ ( ~ ~ ' ' , X.o.e ",
"@.4.f w.q.e.b l.Z.e.m.l.e.G p.q.t.e.e.l.m.a y.z.e.l.m.Z.v.x.t.z.e.e.w.y.T K ! w.q.e.9.8.< w.e.p.^ ^ 8.i.^ ' q.7.z @.o.e ",
"@.4.X i s d < x s x d x d a s m b x s M G u J M b s b B M m d m b s s d s s x s b b b s < b m b s s s n s b b s % X.@.e ",
"@.4.> U ~ K ^ 7.e.J M I ~ I ^ e.e.x > s G i ^ I F J V.l.l.r.' q.b ~ ' ' ~ ~ ' ' n e.q.I ' ' ` H M ` ' s.z.' I b & X.@.e ",
"@.3.i 7.q.w.r.e.q.K K q.t.t.B.t.l.s u b G n G F F ` Z.K.q.` U r.m J w.q.w.w.^ q.M q.q.q.B.w.w.` M r.y.' t.w.q.n = o.$.e ",
"o.#.o f ^ y.y.z.z.Y i.L.K.L.y.y.t.G j j H h L H h ! z.m.n.z.z.y.H q.z.y.e.l.e.9.H w.e.g.h.w.m.s.' K.m.K.m.q.d ; # e X.q ",
"e w w A v f b b b < a b G W b b s s s i s s d i u u M M B x b u x s s d s x x a a s d Y M n R b C Y M n F > Z e 0 q q   ",
"<.<.<.1.,.P x ^ ' ~ ~ w.c.[ w.7.~ ' t.` u.< d b d b b s k K ' E K r.w.u.! q.q.~ ` e.B.Y.x V.z.Q.V.V.z.g.K i A $.<.<.<.e ",
"<.<.<.1.,.P i ` ~ ^ w.w.e.K 7.t.` e.w.^ z.u s d n p b d k ~ ` ' ~ t.w.z./ ' w.~ ^ q.t.K.x t.t.t.w.u.z.g.F d 8 $.<.<.<.e ",
"<.1.<.1.F.7.G y.g.z.h.z.y.G y.z.y.g.e.y.h.s k G k G L G l 8.z.y.7.w.y.m./ y.z.y.y.g.m.m.b e.z.l.z.c.c.c.q.F A <.<.<.<.e ",
"1.3.;.2.=.d b G K M F G M s J K K n n J G a f b n d n n M M K H i b K K M K ~ J B E E Y G G J M J E Y E K b S :.#.1.1.X.",
"#.3.; U U ' U t.V.M K I K K ` l.w.M ' w.e.' w.I ~ x I q.' ~ w.w.m ` z.z.w.u.V.t.J V.s.e.e.t.w.E M t.u.I q.e.q.p % X.@.e ",
"$.3.r q.q.' I q.z.K ] q.r.' t.' K.Y l.t.l.w.' ' w.n q.I ' I w.w._ [ l.J.u.B.V.q.B K.u.l.q.e.' K m w.w.q.l.q.u.n & X.#.e ",
"<.3.i y.y.z.9.y.~.` t.Y.Q.z.!.g.L.~ I.Q.L.g.e.l.x.K e.t.t.y.e.z.w.Z.Y.z.x.K.c.p.J Y.L.L.n.e.q.^ ~ z.y.t.c.c.K.~ = e $.e ",
"$.3.. > x m u x b z x J E R m x B R m x m : x u u < u u d u u a a a b d s s m i x x a b : z u u s u u s < u i > % @.$.X.",
"$.4.r U e.g.J t.t.J.z.J.L.[ K K u.V.t.e.m.u t.' ' ^ q.t.g.K w.q.I I q.q.F ^ r.t.e.V.t.y.u q.q.w.q.' r.8.i F d p $ o.$.X.",
"$.3.p q.r.c.J ' q.q.q.q.7.F w.I w.l.q.q.y.< t.t.s.w.l.V.S.r.K ~ e.q.' u.H q.V.t.u.y.q.u.: e.w.^ I ~ q.g.M d M p # X.@.X.",
"#.3.h n.M.c.^ M.h.m.h.x.h.I M.m.y.y.y.y.M.d W.m.m.L.!.(.T.S.!.b.W.M.b.n.~ n.m.y.y.y.y.b.d m.n.h.y.y.n.z.8.9.0.6.< o.@.X.",
"$.3.. u u m z x x < < < s b a a < , t u b a x b x : x B G x B m z u x b m u u < , u i x u < x < > u a b x B n x % o.@.e ",
"#.3.r I K I ^ t.t.b _ K w.w.q.V.t.J q.w.w.w.' ' ~ u ' q.V.t.t.V.J F w.q.w.' r.' x q.e.' J K ' K M w.I w.z.I.I.K , @.@.e ",
"$.3.r I I I q.e.t.B K w.' ~ ' V.l.G u.w.s.l.w.u.w.i ~ K q.^ ~ ^ m n K I K q.q.` d e.t.w.' ' q.K B q.^ w.t.J.z.I , o.<.e ",
"o.o.. r F y.b.b.n.L 7.L.z.h.m.L.M.~ ~.m.g.m.Y.W.E.I h.h.m.m.h.h.~ ^ 0.9.7.h.h.h.K M.M.z.h.z.h.7.I m.y.W.M.e.i X & X.o.4 ",
"o.X.+.$.O.f t M m n x b J M b J _ J n M / > B J J E J M T M J J J ` K b s M J J J J J E > i i x i a i H ` > 8 o.@.@.@.8 ",
"<.$.<.1.>.6.b ' ^ I I I e.K U q.q.' ` e.L.s u.' t.u.r.q.e.` V.I.V.P.I.l.~ w.r.z.K.K.t.n.< F M n b G b ! ` K e <.<.<.<.e ",
"<.<.;.<.,.6.d ' q.' w.' e.T ^ ' ~ ~ ' e.K.u ' ~ ' e.t.' e.q.Z.u.R.K.R.L.E t.t.t.K.R.t.y., b F b b G H L e.F 9 <.<.<.<.e ",
"1.<.1.1.,.( J q.j.8.e.w.w.T e.p.^ ~ w.e.e.z ! ~ L w.p.q.T ~ Z.A.Z.p.j.c.Y ' s.x.x.l.L ^ m ^ ^ L ~ L L P w.d e 1.1.1.1.e ",
"1.3.O.D. .n n b J x > < t s < < , > J M n x M x x a J b m x J ~ a M J B G b J K u i i s s x b s b J M ` G b %.&.+.<.1.o.",
"$.1.u q.u.q.V.w.B.J u u i d s a i i ' ^ q.K ^ ' q.B t.' ~ ` t.q.R ` r.q.w.' t.t.i d b s n d n d _ K.t.w.U w.^ p % o.<.X.",
"#.3.r q.I w.Z.e.B.B i b i b p i n s ^ ^ ' ' ^ w.w.M e.' w.s.q.q.B E ` ^ ~ ! q.' a b f b F f d i J K.u.^ I w.I t # o.<.X.",
"$.3.i 9.7.9.7.g.Z.T k 8.6.8.P k G f 9.9.g.c.p.e.g.G w.8.8.7.e.7.H ! 9.l.9.9.^ ( f F Q ! 6.g.6.^ ] U.p.9.e.y.9.G $ X.<.e ",
"$.3.- p b F > J E ` B B _ R K m n b b M Y < M n b n J J G s M M J B b M M J n b J B n K u E ~ M E ] R H d n m b = @.<.X.",
"<.4.f w.K L x ' w.w.w.r.R.C.I.e.' ' ^ ^ w.< w.' q.w.V.K.N.w.l.l.' ^ ' ^ H t.q.' ^ ` w.t.z q.` ~ ' r.w.9.K w.q.q.z @.<.X.",
"<.4.p ^ E ! b ~ q.u.z.L.c.G z.u.' q.7.t.l.u ' t.t.z.l.u.U.w.Z.e.r.I K 7.F t.7.w.q.^ I e.> ` J F G I q.p.K w.q.r.z o.<.e ",
"<.3.f y.g.w.F p.p.g.l.l.p./ 8.8.w.9.w.9.N.n g.z.y.N.N.S.g.a.v.e.^ 7.7.9.H e.e.9.q.7.7.7.s g.8.! ^ w.e.i.! y.w.6.z @.$.X.",
"<.4.; I U [ [ I K s n J J I J G F : i b d u n i t m ~ K I ` K J a B J I K I J K x F J J ] ' ` n m ' I K K ` K b % o.<.X.",
"<.4.o L ' q.q.q.` M K w.w.' r.w.z.J I G f i F J H B ' I ^ ` ' ' B ` w.q.' q.q.^ x ^ ' e.w.t.w.q.` V.V.' ~ ` K n $ o.<.X.",
"<.4.X F H w.w.q.~ u K w.e.w.q.q.K.R K H F f F K n n ' ~ K ' ^ ^ B K I ^ t.' ' ^ M ^ ~ I q.e.` K J l.r.' e.~ ~ M = @.<.X.",
"@.X.= 5 B [ / / F s G [ ~ / w.a.f.R j K H G f h d d Q H H H E K b n / ~ ~ H E H s E ~ ~ | | ( E W [ [ i.! i 7 1 0 X.X.* ",
"<.$.#.<.-.P ; b i d s s s d K ' s.r.` ` ( < K ~ ~ J ~ ~ ! M ` ` K G E ~ G J E J ~ ~ ~ w.> b d i s b b ! J i A $.$.<.$.w ",
"<.<.<.1.G.e.u G G b n s f d G I w.' t.t.y., w.l.w.~ ^ ' p.n q.w.^ I q.w.H e.t.' q.r.e.h.: > b M M n b 6.I b A <.<.<.<.e ",
"<.<.<.1.H.9.f L L h H F H g ~ ~ w.7.^ q.y.> e.g.w.y.w.e.8.G g.t.p.e.y.y.E x.w.t.t.e.t.b.> d d F H L G H K i w <.<.1.<.e ",
"1.1.3.3.-.j d f G G F h G d / H ( ( K K K > T [ ~ E K G Y H ^ T ~ ~ w.^ W 8.H ! E K K ( s H f M H H G d F t A 3.1.1.3.X.",
"1.3.c { ] E G n K x K ` ' e.w.r.q.m ` ` ` F E ` ' N K J ` ` ~ K x a b F K M b b x G M E [ ~ ` M B s.Z.C.q.^ C.V 9 $.<.X.",
"$.3.; L K ' [ I ` M K r.' q.` R.r.J q.` w.I [ e.s.J B.r.' [ ' [ b i b H H b s i u J K ~ w.e.e.] J R.R.t.R.u.Q.i % X.$.e ",
"$.<.; I ^ ^ ~ E ! B E q.| e.p.A.R.R w.E ( ~ ~ ^ ( Y p.' / T ^ p.M s s f g s d d a T T q.( i.Y T J A.S.R.Z.^.a.i.6 o.@.e ",
"#.;.+ b n J m d b < d M d d R W R s G n d M d d n s g M M M M Y s s y d s a d s y d d G B C M d m W ..d. . ...m = o.@.q ",
"* 2 2 2 2 4 2 4 4 2 2 2 4 4 4 2 2 2 4 2 4 4 2 4 4 2 2 4 2 2 4 4 2 2 2 4 4 4 4 2 2 4 2 2 4 2 2 4 4 2 4 2 4 4 2 2 2 2 4   ",
"e e e e e e X.e e } e X.X.e e e e X.X.q X.e e X.e e X.X.X.e e e e e e } X.e e e q e e } e X.e X.e X.e e X.e e e e e X.4 "
};
